SplineFontDB: 3.0
FontName: Khartiya-BoldItalic
FullName: Khartiya Bold Italic
FamilyName: Khartiya
Weight: Bold
Copyright: Copyright 1990 as an unpublished work by Bitstream Inc.  All rights reserved.  Confidential.\n\nCopyright (c) 2009, 2010, 2011 Andrey V. Panov
Version: 0.4
ItalicAngle: -11
UnderlinePosition: -109
UnderlineWidth: 90
Ascent: 770
Descent: 230
LayerCount: 2
Layer: 0 0 "+BBcEMAQ0BD0EOAQ5 +BD8EOwQwBD0A"  1
Layer: 1 0 "+BB8ENQRABDUENAQ9BDgEOQAA +BD8EOwQwBD0A"  0
NeedsXUIDChange: 1
UniqueID: 15530633
FSType: 8
OS2Version: 0
OS2_WeightWidthSlopeOnly: 0
OS2_UseTypoMetrics: 1
CreationTime: 1136849748
ModificationTime: 1321103078
PfmFamily: 17
TTFWeight: 700
TTFWidth: 5
LineGap: 0
VLineGap: 0
OS2TypoAscent: 770
OS2TypoAOffset: 0
OS2TypoDescent: -230
OS2TypoDOffset: 0
OS2TypoLinegap: 200
OS2WinAscent: 964
OS2WinAOffset: 0
OS2WinDescent: 236
OS2WinDOffset: 0
HheadAscent: 964
HheadAOffset: 0
HheadDescent: -236
HheadDOffset: 0
OS2Vendor: 'PfEd'
Lookup: 258 0 0 "LGC kerning"  {"LGC kerning subtable" [150,15,0] } ['kern' ('cyrl' <'dflt' > 'grek' <'dflt' > 'latn' <'dflt' > ) ]
MarkAttachClasses: 1
DEI: 91125
LangName: 1049 "" "+BCUEMARABEIEOARP" 
LangName: 1033 "" "" "Bold Italic" "" "" "" "" "" "" "" "" "" "" "Copyright (c) 2009, Andrey V. Panov (<panov @ canopus.iacp.dvo.ru>),+AAoA-with Reserved Font Name Khartiya.+AAoACgAA-This Font Software is licensed under the SIL Open Font License, Version 1.1.+AAoA-This license is copied below, and is also available with a FAQ at:+AAoA-http://scripts.sil.org/OFL+AAoA" "http://scripts.sil.org/OFL" 
Encoding: UnicodeBmp
UnicodeInterp: none
NameList: Adobe Glyph List
DisplaySize: -48
AntiAlias: 1
FitToEm: 1
WinInfo: 64240 16 12
BeginPrivate: 5
BlueValues 32 [-13 0 483 496 671 685 733 736 ]
OtherBlues 31 [-218 -218 -190 -190 -170 -170]
StdHW 4 [52]
StdVW 5 [120]
ForceBold 5 false
EndPrivate
Grid
168 0 m 25
 310.675 734 l 25
42 0 m 25
 184.675 734 l 25
EndSplineSet
BeginChars: 65537 390

StartChar: exclam
Encoding: 33 33 1
Width: 340
Flags: HMW
HStem: -7 152<105 131.5> 198 486<114 251 114 251>
VStem: 43 151<55 83>
LayerCount: 2
Fore
SplineSet
43 60 m 0
 43 106 83 145 127 145 c 0
 165 145 194 116 194 78 c 0
 194 32 154 -7 109 -7 c 0
 73 -7 43 22 43 60 c 0
114 198 m 1
 135 553 l 2
 140 641 165 684 231 684 c 0
 271 684 294 662 294 625 c 0
 294 608 288 585 279 555 c 2
 166 198 l 1
 114 198 l 1
EndSplineSet
EndChar

StartChar: quotedbl
Encoding: 34 34 2
Width: 339
Flags: HW
HStem: 418 296<78 78 78 97 242 242 242 261>
VStem: 41 93<658 678> 205 93<658 678>
LayerCount: 2
Back
SplineSet
78 418 m 1
 42 642 l 2
 41 649 41 655 41 661 c 0
 41 695 58 714 87 714 c 0
 117 714 134 696 134 661 c 0
 134 655 134 648 133 642 c 2
 97 418 l 1
 78 418 l 1
242 418 m 1
 206 642 l 2
 205 649 205 655 205 661 c 0
 205 695 223 714 252 714 c 0
 281 714 299 695 299 662 c 0
 299 655 298 649 297 642 c 2
 261 418 l 1
 242 418 l 1
EndSplineSet
Fore
Refer: 103 39 N 1 0 0 1 164 0 2
Refer: 103 39 N 1 0 0 1 0 0 2
EndChar

StartChar: numbersign
Encoding: 35 35 3
Width: 751
Flags: HMW
HStem: -23 20 221 61<57 197 57 217 284 397 57 263 486 647> 417 61<107 261 107 282 349 464 107 329 552 689> 692 18
VStem: 57 632<221 478 282 478>
LayerCount: 2
Fore
SplineSet
57 221 m 1
 57 282 l 1
 217 282 l 1
 261 417 l 1
 107 417 l 1
 107 478 l 1
 282 478 l 1
 362 710 l 1
 425 692 l 1
 349 478 l 1
 487 478 l 1
 564 709 l 1
 628 692 l 1
 552 478 l 1
 689 478 l 1
 689 417 l 1
 532 417 l 1
 486 282 l 1
 647 282 l 1
 647 221 l 1
 465 221 l 1
 384 -23 l 1
 321 -7 l 1
 397 221 l 1
 263 221 l 1
 181 -23 l 1
 118 -7 l 1
 197 221 l 1
 57 221 l 1
284 282 m 1
 417 282 l 1
 464 417 l 1
 329 417 l 1
 284 282 l 1
EndSplineSet
EndChar

StartChar: dollar
Encoding: 36 36 4
Width: 586
Flags: HMW
HStem: -104 20 1 56<204 216 216 256> 615 55<327 337 337 378> 724 20<352 404 404 404>
VStem: 104 114<480 515.5> 387 116<163 197>
LayerCount: 2
Fore
SplineSet
25 40 m 1
 58 206 l 1
 126 206 l 1
 122 87 l 1
 134 78 l 1
 163 66 191 59 216 57 c 1
 260 290 l 1
 156 329 104 385 104 460 c 0
 104 571 195 661 337 670 c 1
 352 744 l 1
 404 744 l 1
 390 671 l 1
 441 668 491 658 543 640 c 1
 510 479 l 1
 446 479 l 1
 450 592 l 1
 438 602 l 1
 419 609 398 613 378 615 c 1
 336 392 l 1
 447 355 503 297 503 223 c 0
 503 103 410 14 256 1 c 1
 237 -104 l 1
 184 -104 l 1
 204 1 l 1
 136 5 77 18 25 40 c 1
218 501 m 0
 218 459 240 429 287 410 c 1
 327 615 l 1
 260 607 218 560 218 501 c 0
269 57 m 1
 342 66 387 116 387 175 c 0
 387 219 360 255 311 273 c 1
 269 57 l 1
EndSplineSet
EndChar

StartChar: percent
Encoding: 37 37 5
Width: 898
Flags: HW
HStem: -12 45<625 656 625 694> 263 45<180 222 180 249> 363 44<685.5 716> 638 45<240.5 271>
VStem: 55 93<363.5 422 363.5 487> 303 97<482.5 581.5 456 583.5> 500 94<87 145.5 87 213> 749 97<249 306.5 181 307.5>
LayerCount: 2
Fore
SplineSet
55 403 m 0
 55 571 146 683 265 683 c 0
 349 683 400 627 400 536 c 0
 400 376 308 263 190 263 c 0
 107 263 55 319 55 403 c 0
142 0 m 1
 681 671 l 1
 756 671 l 1
 218 0 l 1
 142 0 l 1
148 391 m 0
 148 336 163 308 197 308 c 0
 247 308 303 409 303 556 c 0
 303 611 287 638 255 638 c 0xff
 226 638 202 615 183 569 c 0
 161 516 148 453 148 391 c 0
500 129 m 0
 500 297 592 407 711 407 c 0
 795 407 846 352 846 261 c 0
 846 101 753 -12 635 -12 c 0
 552 -12 500 44 500 129 c 0
594 114 m 0
 594 60 609 33 641 33 c 0
 671 33 694 56 714 102 c 0
 735 152 749 218 749 280 c 0
 749 335 732 363 700 363 c 0
 671 363 648 340 629 294 c 0
 607 242 594 177 594 114 c 0
EndSplineSet
EndChar

StartChar: ampersand
Encoding: 38 38 6
Width: 730
Flags: HW
HStem: -13 82<235 236> 325 48<493 697> 629 55<313 362.5>
VStem: 19 127<158.5 201.5> 127 117<502.5 546.5> 414 114<511 569>
LayerCount: 2
Fore
SplineSet
19 158 m 0xd0
 19 245 78 315 190 358 c 1
 148 404 127 449 127 495 c 0
 127 598 223 684 354 684 c 0
 463 684 528 625 528 542 c 0
 528 461 461 391 338 362 c 1
 471 189 l 1
 495 211 522 248 549 301 c 1
 540 318 l 1
 493 325 l 1
 493 373 l 1
 697 373 l 1x6c
 697 324 l 1
 627 315 l 1
 593 255 552 199 504 148 c 1
 551 80 594 49 658 49 c 0
 663 49 668 50 673 50 c 1
 673 2 l 1
 614 -4 l 2
 598 -5 581 -7 564 -7 c 0
 502 -7 457 19 417 74 c 1
 347 17 272 -13 200 -13 c 0
 94 -13 19 62 19 158 c 0xd0
146 195 m 0
 146 122 199 69 271 69 c 0
 311 69 351 84 387 112 c 1xfc
 222 322 l 1
 171 289 146 248 146 195 c 0
244 520 m 0
 244 485 265 443 305 394 c 1x6c
 377 429 414 480 414 542 c 0
 414 596 385 629 340 629 c 0
 286 629 244 586 244 520 c 0
EndSplineSet
EndChar

StartChar: quoteright
Encoding: 8217 8217 7
Width: 261
Flags: HMW
HStem: 395 303<80 217.5>
VStem: 113 155<607.5 637.5>
LayerCount: 2
Fore
SplineSet
64 425 m 1
 140 467 181 519 184 578 c 1
 124 578 l 1
 117 589 113 601 113 614 c 0
 113 661 148 698 195 698 c 0
 240 698 268 668 268 619 c 0
 268 537 202 444 80 395 c 1
 64 425 l 1
EndSplineSet
EndChar

StartChar: parenleft
Encoding: 40 40 8
Width: 420
Flags: HMW
HStem: -142 51<296 306> 667 51<449 458>
VStem: 66 113<56.5 149 49.5 188.5>
LayerCount: 2
Fore
SplineSet
66 147 m 0
 66 230 83 328 120 433 c 0
 147 511 189 576 247 630 c 0
 306 686 378 716 458 718 c 1
 449 667 l 1
 398 662 349 634 313 587 c 0
 276 539 248 482 229 414 c 0
 193 287 179 185 179 113 c 0
 179 -14 225 -84 306 -91 c 1
 296 -142 l 1
 152 -140 66 -34 66 147 c 0
EndSplineSet
EndChar

StartChar: parenright
Encoding: 41 41 9
Width: 420
Flags: HMW
HStem: -142 51<-61 -52> 667 51<91 101>
VStem: 218 113<432.5 522 392.5 528>
LayerCount: 2
Fore
SplineSet
-61 -142 m 1
 -52 -91 l 1
 -1 -87 47 -59 84 -11 c 0
 123 39 152 99 171 171 c 0
 205 298 218 399 218 466 c 0
 218 590 171 660 91 667 c 1
 101 718 l 1
 244 715 331 611 331 433 c 0
 331 352 314 256 280 153 c 0
 253 71 210 2 150 -54 c 0
 90 -110 19 -140 -61 -142 c 1
EndSplineSet
EndChar

StartChar: asterisk
Encoding: 42 42 10
Width: 500
Flags: HMW
VStem: 97 393<571 572>
LayerCount: 2
Fore
SplineSet
97 571 m 1
 174 598 l 1
 266 522 l 1
 258 507 l 1
 128 508 l 1
 97 571 l 1
131 338 m 1
 143 415 l 1
 262 493 l 1
 273 484 l 1
 209 359 l 1
 131 338 l 1
262 657 m 1
 320 718 l 1
 357 657 l 1
 294 532 l 1
 278 532 l 1
 262 657 l 1
280 484 m 1
 295 493 l 1
 386 415 l 1
 369 338 l 1
 299 360 l 1
 280 484 l 1
303 522 m 1
 423 598 l 1
 490 572 l 1
 435 508 l 1
 304 506 l 1
 303 522 l 1
EndSplineSet
EndChar

StartChar: plus
Encoding: 43 43 11
Width: 833
Flags: HMW
HStem: 258 81<124 375 124 375 458 709>
VStem: 375 83<0 258 0 258 339 596>
LayerCount: 2
Fore
SplineSet
124 258 m 1
 124 339 l 1
 375 339 l 1
 375 596 l 1
 458 596 l 1
 458 339 l 1
 709 339 l 1
 709 258 l 1
 458 258 l 1
 458 0 l 1
 375 0 l 1
 375 258 l 1
 124 258 l 1
EndSplineSet
EndChar

StartChar: comma
Encoding: 44 44 12
Width: 292
Flags: MW
HStem: -175 304<-57 117.5>
VStem: 12 156<37 69>
LayerCount: 2
Fore
SplineSet
-57 -175 m 1
 -49 -129 l 1
 28 -115 73 -69 84 7 c 1
 23 7 l 1
 15 18 12 30 12 44 c 0
 12 94 47 129 94 129 c 0
 141 129 168 100 168 52 c 0
 168 -53 76 -159 -57 -175 c 1
EndSplineSet
EndChar

StartChar: hyphen
Encoding: 45 45 13
Width: 320
Flags: HMW
HStem: 192 98<28 264 10 281>
VStem: 10 271<192 290>
LayerCount: 2
Fore
SplineSet
10 192 m 1
 28 290 l 1
 281 290 l 1
 264 192 l 1
 10 192 l 1
EndSplineSet
EndChar

StartChar: period
Encoding: 46 46 14
Width: 294
Flags: HMW
HStem: -6 155<77.5 119>
VStem: 22 152<49.5 92.5>
LayerCount: 2
Fore
SplineSet
22 71 m 0
 22 114 56 149 98 149 c 0
 141 149 174 115 174 71 c 0
 174 27 140 -6 98 -6 c 0
 57 -6 22 28 22 71 c 0
EndSplineSet
EndChar

StartChar: slash
Encoding: 47 47 15
Width: 481
Flags: HMW
HStem: -93 764<-119 525 -119 525>
VStem: -119 644
LayerCount: 2
Fore
SplineSet
-119 -93 m 1
 443 671 l 1
 525 671 l 1
 -36 -93 l 1
 -119 -93 l 1
EndSplineSet
EndChar

StartChar: zero
Encoding: 48 48 16
Width: 586
Flags: HMW
HStem: -12 59<216 269.5 216 278.5> 625 58<319 373>
VStem: 29 128<147.5 232.5 134 277> 428 127<439 519 385 540>
LayerCount: 2
Back
SplineSet
39 335 m 0
 82 556 206 683 360 683 c 0
 515 683 590 555 547 335 c 0
 504 115 380 -12 225 -12 c 0
 71 -12 -4 114 39 335 c 0
176 339 m 0
 138 143 158 45 237 45 c 0
 316 45 373 142 411 336 c 0
 449 530 429 627 350 627 c 0
 273 627 213 531 176 339 c 0
EndSplineSet
Fore
SplineSet
29 215 m 0
 29 339 61 453 117 541 c 0
 175 633 262 683 352 683 c 0
 479 683 555 594 555 444 c 0
 555 326 524 216 471 131 c 0
 411 36 329 -12 228 -12 c 0
 111 -12 29 80 29 215 c 0
157 177 m 0
 157 91 188 47 244 47 c 0
 295 47 334 87 367 168 c 0
 404 260 428 380 428 498 c 0
 428 582 400 625 346 625 c 0
 292 625 253 584 219 501 c 0
 182 409 157 288 157 177 c 0
EndSplineSet
EndChar

StartChar: one
Encoding: 49 49 17
Width: 586
Flags: HMW
HStem: 0 50<79 425> 561 49<142 142> 661 20<377 437 437 437>
VStem: 79 346<0 50 0 52 0 52>
LayerCount: 2
Back
SplineSet
148 557 m 1
 158 608 l 1
 387 681 l 1
 452 681 l 1
 339 70 l 1
 347 54 l 1
 440 50 l 1
 431 0 l 1
 84 0 l 1
 93 50 l 1
 194 56 l 1
 210 74 l 1
 301 566 l 1
 294 578 l 1
 148 557 l 1
EndSplineSet
Fore
SplineSet
79 0 m 1
 79 52 l 1
 185 58 l 1
 201 75 l 1
 295 574 l 1
 284 579 l 1
 142 561 l 1
 142 610 l 1
 377 681 l 1
 437 681 l 1
 322 72 l 1
 332 56 l 1
 425 50 l 1
 425 0 l 1
 79 0 l 1
EndSplineSet
EndChar

StartChar: two
Encoding: 50 50 18
Width: 586
Flags: HMW
HStem: 0 101<132 411 132 475> 618 64<296 328.5>
VStem: 401 130<447.5 545.5>
LayerCount: 2
Back
SplineSet
-16 0 m 1
 -1 79 l 1
 240 243 375 354 398 479 c 0
 414 568 377 619 301 619 c 0
 283 619 262 615 241 607 c 1
 217 478 l 1
 193 466 170 460 150 460 c 0
 106 460 83 488 91 530 c 0
 106 613 211 683 355 683 c 0
 489 683 558 604 537 488 c 0
 513 360 378 253 128 102 c 1
 408 102 l 1
 442 190 l 1
 503 190 l 1
 468 0 l 1
 -16 0 l 1
EndSplineSet
Fore
SplineSet
-3 0 m 1
 3 75 l 1
 262 254 401 373 401 513 c 0
 401 578 361 618 296 618 c 0
 279 618 259 615 238 609 c 1
 213 473 l 1
 194 463 174 458 155 458 c 0
 116 458 94 482 94 519 c 0
 94 546 108 576 135 603 c 0
 184 652 257 682 335 682 c 0
 455 682 531 613 531 513 c 0
 531 382 397 254 132 101 c 1
 411 101 l 1
 444 191 l 1
 510 191 l 1
 475 0 l 1
 -3 0 l 1
EndSplineSet
EndChar

StartChar: three
Encoding: 51 51 19
Width: 586
Flags: HW
HStem: -11 58<190 242> 622 61<287 328>
VStem: 366 139<187.5 242> 402 137<496 553>
LayerCount: 2
Back
SplineSet
5 114 m 0
 12 153 45 179 88 179 c 0
 100 179 112 176 126 171 c 1
 138 63 l 1
 162 53 184 48 204 48 c 0
 280 48 350 109 364 187 c 0x88
 378 260 333 310 248 310 c 0
 234 310 214 309 186 305 c 1
 199 377 l 1
 209 376 219 376 228 376 c 0
 322 376 383 422 397 499 c 0
 410 569 369 618 296 618 c 0
 279 618 258 614 237 606 c 1
 216 489 l 1
 198 479 181 475 160 475 c 0
 117 475 94 504 101 544 c 0
 114 616 213 682 349 682 c 0
 482 682 553 610 535 513 c 0
 520 434 454 378 341 353 c 1x70
 461 344 518 284 501 193 c 0
 480 80 356 -11 184 -11 c 0
 61 -11 -7 48 5 114 c 0
EndSplineSet
Fore
SplineSet
12 108 m 0
 12 150 43 182 83 182 c 0
 96 182 111 178 129 171 c 1
 141 63 l 1
 163 53 182 47 198 47 c 0
 298 47 366 114 366 209 c 0xa0
 366 275 325 313 249 313 c 0
 231 313 210 311 186 307 c 1
 198 380 l 1
 207 379 216 379 224 379 c 0
 335 379 402 439 402 524 c 0
 402 582 360 622 296 622 c 0
 278 622 258 617 238 609 c 1
 218 491 l 1
 196 482 179 476 164 476 c 0
 128 476 103 501 103 536 c 0
 103 607 202 683 348 683 c 0
 468 683 539 619 539 537 c 0
 539 455 468 383 339 357 c 1x50
 450 350 505 303 505 215 c 0
 505 160 473 101 414 56 c 0
 358 14 282 -11 202 -11 c 0
 85 -11 12 47 12 108 c 0
EndSplineSet
EndChar

StartChar: four
Encoding: 52 52 20
Width: 586
Flags: HMW
HStem: -32 20 180 79<14 14 107 309 -2 14 439 536> 656 20<420 518 518 518>
VStem: -2 552<180 259>
LayerCount: 2
Back
SplineSet
-1 181 m 5
 15 262 l 5
 426 677 l 5
 524 677 l 5
 443 260 l 5
 556 260 l 5
 540 181 l 5
 427 181 l 5
 386 -31 l 5
 269 -31 l 5
 310 181 l 5
 -1 181 l 5
106 260 m 5
 326 260 l 5
 380 539 l 5
 106 260 l 5
EndSplineSet
Fore
SplineSet
-2 180 m 1
 14 259 l 1
 420 676 l 1
 518 676 l 1
 439 259 l 1
 550 259 l 1
 536 180 l 1
 425 180 l 1
 384 -32 l 1
 270 -32 l 1
 309 180 l 1
 -2 180 l 1
107 259 m 1
 325 259 l 1
 381 543 l 1
 107 259 l 1
EndSplineSet
EndChar

StartChar: five
Encoding: 53 53 21
Width: 586
Flags: HMW
HStem: -10 57<186.5 249 186.5 283.5> 343 77<199 370.5> 570 101<224 532 224 224>
VStem: 373 131<183 256.5>
LayerCount: 2
Back
SplineSet
13 111 m 0
 20 145 55 174 100 174 c 0
 111 174 122 171 135 167 c 1
 147 54 l 1
 162 50 178 49 194 49 c 0
 275 49 350 111 366 194 c 0
 383 283 329 339 219 339 c 0
 178 339 136 334 95 325 c 1
 162 671 l 1
 555 671 l 1
 535 567 l 1
 223 567 l 1
 190 398 l 1
 237 413 278 420 316 420 c 0
 455 420 528 341 505 224 c 0
 479 90 346 -9 175 -9 c 0
 60 -9 0 45 13 111 c 0
EndSplineSet
Fore
SplineSet
20 104 m 0
 20 143 49 173 92 173 c 0
 106 173 119 170 132 164 c 1
 147 56 l 1
 161 50 177 47 196 47 c 0
 302 47 373 124 373 218 c 0
 373 295 317 343 217 343 c 0
 181 343 142 339 100 334 c 1
 166 671 l 1
 551 671 l 1
 532 570 l 1
 224 570 l 1
 189 400 l 1
 239 414 279 420 310 420 c 0
 431 420 504 354 504 256 c 0
 504 110 373 -10 194 -10 c 0
 87 -10 20 43 20 104 c 0
EndSplineSet
EndChar

StartChar: six
Encoding: 54 54 22
Width: 586
Flags: HMW
HStem: -12 63<234 301.5 234 325.5> 377 79<263.5 407> 699 20<508 508>
VStem: 31 130<160.5 237 160.5 298.5> 402 129<193 284>
LayerCount: 2
Back
SplineSet
38 289 m 0
 74 544 260 713 519 714 c 1
 509 640 l 1
 468 644 l 1
 335 634 239 550 193 401 c 1
 248 434 304 452 360 452 c 0
 477 452 554 360 536 233 c 0
 516 88 394 -13 245 -13 c 0
 92 -13 11 100 38 289 c 0
169 287 m 0
 147 129 185 49 266 49 c 0
 331 49 386 110 401 214 c 0
 415 312 371 372 290 372 c 0
 252 372 215 364 180 347 c 1
 175 317 170 296 169 287 c 0
EndSplineSet
Fore
SplineSet
31 226 m 0
 31 371 99 510 217 605 c 0
 295 668 391 706 508 719 c 1
 516 656 l 1
 357 641 238 548 194 405 c 1
 247 439 300 456 353 456 c 0
 461 456 531 384 531 268 c 0
 531 118 406 -12 245 -12 c 0
 115 -12 31 75 31 226 c 0
161 213 m 0
 161 108 202 51 266 51 c 0
 337 51 402 130 402 238 c 0
 402 330 361 377 280 377 c 0
 247 377 214 368 180 349 c 1
 168 308 161 261 161 213 c 0
EndSplineSet
EndChar

StartChar: seven
Encoding: 55 55 23
Width: 586
Flags: HMW
HStem: -34 20 563 108<197 483 197 197>
VStem: 74 538
LayerCount: 2
Back
SplineSet
103 467 m 5
 142 671 l 5
 621 671 l 5
 609 606 l 5
 166 -6 l 5
 160 -34 l 5
 53 -34 l 5
 491 560 l 5
 202 560 l 5
 169 467 l 5
 103 467 l 5
EndSplineSet
Fore
SplineSet
74 -34 m 1
 483 563 l 1
 197 563 l 1
 163 464 l 1
 97 464 l 1
 136 671 l 1
 612 671 l 1
 602 610 l 1
 185 -7 l 1
 183 -34 l 1
 74 -34 l 1
EndSplineSet
EndChar

StartChar: eight
Encoding: 56 56 24
Width: 586
Flags: HW
HStem: -18 61<230 305 230 329.5> 628 58<309 371>
VStem: 24 120<128.5 194> 102 124<482 533> 397 128<144.5 201.5> 436 113<497 557>
LayerCount: 2
Back
SplineSet
25 179 m 0xa4
 36 257 91 312 183 338 c 1
 117 370 88 423 98 494 c 0
 114 608 215 685 357 685 c 0
 486 685 556 610 542 511 c 0
 533 444 485 390 402 356 c 1
 495 321 535 266 523 182 c 0
 507 67 401 -15 240 -15 c 0
 92 -15 10 69 25 179 c 0xa4
145 190 m 0
 133 106 181 46 257 46 c 0
 329 46 382 90 391 152 c 0
 401 226 345 264 224 314 c 1xa4
 177 276 152 239 145 190 c 0
229 524 m 0
 220 461 263 419 358 379 c 1x58
 396 411 421 453 428 502 c 0
 438 575 402 625 339 625 c 0
 283 625 237 582 229 524 c 0
EndSplineSet
Fore
SplineSet
24 155 m 0xa8
 24 233 82 302 189 338 c 1
 130 370 102 415 102 475 c 0
 102 591 208 686 355 686 c 0
 478 686 549 625 549 536 c 0
 549 457 498 395 399 358 c 1
 484 316 525 272 525 206 c 0
 525 83 412 -18 247 -18 c 0
 104 -18 24 51 24 155 c 0xa8
144 166 m 0
 144 91 193 43 267 43 c 0
 343 43 397 95 397 169 c 0
 397 234 341 262 230 313 c 1xa8
 172 274 144 226 144 166 c 0
226 510 m 0
 226 454 267 421 354 379 c 1x54
 407 413 436 468 436 526 c 0
 436 588 399 628 343 628 c 0
 275 628 226 579 226 510 c 0
EndSplineSet
EndChar

StartChar: nine
Encoding: 57 57 25
Width: 586
Flags: HMW
HStem: -58 20 223 76<177.5 315.5> 624 60<306.5 352>
VStem: 48 132<391.5 449> 427 130<450 518>
LayerCount: 2
Back
SplineSet
50 439 m 0
 70 584 187 683 346 683 c 0
 493 683 574 581 551 419 c 0
 522 213 348 32 68 -53 c 1
 50 13 l 1
 96 21 l 1
 231 79 322 157 374 262 c 1
 322 237 272 223 223 223 c 0
 106 223 32 311 50 439 c 0
186 460 m 0
 171 356 216 299 306 299 c 0
 334 299 363 306 396 321 c 1
 406 352 415 384 420 419 c 0
 439 552 399 624 324 624 c 0
 259 624 200 562 186 460 c 0
EndSplineSet
Fore
SplineSet
48 407 m 0
 48 491 92 575 168 629 c 0
 219 665 275 684 338 684 c 0
 478 684 557 603 557 464 c 0
 557 241 382 31 72 -58 c 1
 56 -2 l 1
 211 45 321 136 387 270 c 1
 323 239 272 223 233 223 c 0
 122 223 48 297 48 407 c 0
180 434 m 0
 180 349 225 299 298 299 c 0
 333 299 370 310 408 333 c 1
 422 388 427 433 427 467 c 0
 427 569 383 624 321 624 c 0
 251 624 180 543 180 434 c 0
EndSplineSet
EndChar

StartChar: colon
Encoding: 58 58 26
Width: 346
Flags: W
HStem: -6 155<73.4173 177.922> 332 154<133.941 237.922>
VStem: 50 152<17.6914 124.785> 110 152<355.691 462.309>
LayerCount: 2
Fore
SplineSet
50 71 m 0xe0
 50 114 83 149 125 149 c 0
 167 149 202 115 202 71 c 0
 202 28 167 -6 125 -6 c 0
 84 -6 50 28 50 71 c 0xe0
110 409 m 0xd0
 110 452 144 486 185 486 c 0
 227 486 262 452 262 409 c 0
 262 366 228 332 186 332 c 0
 145 332 110 366 110 409 c 0xd0
EndSplineSet
EndChar

StartChar: semicolon
Encoding: 59 59 27
Width: 346
Flags: HW
HStem: -175 304<-24 149.5> 332 154<165.5 206 164.5 207>
VStem: 44 157<38 69.5> 110 152<387.5 430.5>
LayerCount: 2
Fore
SplineSet
-24 -175 m 1xa0
 -16 -129 l 1
 61 -115 106 -68 116 7 c 1
 56 7 l 1
 48 18 44 31 44 45 c 0
 44 94 80 129 126 129 c 0
 173 129 201 99 201 52 c 0
 201 -52 109 -159 -24 -175 c 1xa0
110 409 m 0
 110 452 144 486 185 486 c 0x50
 227 486 262 452 262 409 c 0
 262 366 228 332 186 332 c 0
 145 332 110 366 110 409 c 0
EndSplineSet
EndChar

StartChar: less
Encoding: 60 60 28
Width: 833
Flags: HMW
HStem: 23 551<704 704>
VStem: 129 575<23 337 23 337>
LayerCount: 2
Fore
SplineSet
129 259 m 1
 129 337 l 1
 704 574 l 1
 704 484 l 1
 248 298 l 1
 704 112 l 1
 704 23 l 1
 129 259 l 1
EndSplineSet
EndChar

StartChar: equal
Encoding: 61 61 29
Width: 833
Flags: HMW
HStem: 157 81<124 709 124 709> 358 82<124 709 124 709>
VStem: 124 585<157 238 157 238 358 440 157 440>
LayerCount: 2
Fore
SplineSet
124 157 m 1
 124 238 l 1
 709 238 l 1
 709 157 l 1
 124 157 l 1
124 358 m 1
 124 440 l 1
 709 440 l 1
 709 358 l 1
 124 358 l 1
EndSplineSet
EndChar

StartChar: greater
Encoding: 62 62 30
Width: 833
Flags: HMW
HStem: 23 551<129 129>
VStem: 129 575<23 337 112 337 259 574 259 574>
LayerCount: 2
Fore
SplineSet
129 23 m 1
 129 112 l 1
 585 298 l 1
 129 484 l 1
 129 574 l 1
 704 337 l 1
 704 259 l 1
 129 23 l 1
EndSplineSet
EndChar

StartChar: question
Encoding: 63 63 31
Width: 492
Flags: HMW
HStem: -7 152<136 161.5> 625 58<229 232 229 229.5>
VStem: 74 150<55.5 82> 341 129<485 559.5>
LayerCount: 2
Fore
SplineSet
74 59 m 0
 74 105 114 145 158 145 c 0
 196 145 224 116 224 78 c 0
 224 33 185 -7 138 -7 c 0
 104 -7 74 22 74 59 c 0
79 560 m 0
 79 623 157 683 279 683 c 0
 399 683 470 624 470 529 c 0
 470 422 385 335 218 284 c 1
 201 193 l 1
 136 193 l 1
 161 328 l 1
 278 366 341 441 341 529 c 0
 341 590 303 625 232 625 c 0
 231 625 230 625 229 625 c 2
 163 512 l 1
 156 511 149 511 143 511 c 0
 101 511 79 528 79 560 c 0
EndSplineSet
EndChar

StartChar: at
Encoding: 64 64 32
Width: 936
Flags: HMW
HStem: -153 55<421 524> 57 70<360.5 466.5> 444 48<485.5 528.5> 643 50<482.5 620.5>
VStem: 76 76<187 312.5> 272 104<198.5 248.5> 820 51<336 453>
LayerCount: 2
Fore
SplineSet
76 246 m 0
 76 379 125 490 221 578 c 0
 301 651 412 693 534 693 c 0
 737 693 871 562 871 373 c 0
 871 299 852 233 815 176 c 0
 765 99 688 54 622 54 c 0
 569 54 542 81 542 135 c 1
 490 83 443 57 397 57 c 0
 324 57 272 118 272 217 c 0
 272 280 291 339 327 388 c 0
 376 454 450 492 521 492 c 0
 553 492 585 483 619 465 c 1
 637 488 l 1
 705 488 l 1
 693 458 687 423 678 384 c 2
 641 214 l 2
 636 190 632 169 632 152 c 0
 632 133 648 118 668 118 c 0
 695 118 726 135 753 169 c 0
 795 222 820 295 820 375 c 0
 820 531 707 643 534 643 c 0
 431 643 343 610 274 546 c 0
 192 470 152 375 152 259 c 0
 152 44 293 -98 504 -98 c 0
 592 -98 680 -74 764 -26 c 1
 781 -65 l 1
 675 -124 571 -153 477 -153 c 0
 365 -153 265 -114 188 -40 c 0
 114 31 76 128 76 246 c 0
376 233 m 0
 376 164 402 127 450 127 c 0
 483 127 514 148 545 190 c 1
 582 389 l 1
 545 442 l 1
 538 443 532 444 525 444 c 0
 443 444 376 356 376 233 c 0
EndSplineSet
EndChar

StartChar: A
Encoding: 65 65 33
Width: 634
Flags: MW
HStem: 0 49<-68 147> 236 55<200 383 200 393 170 383> 657 20<339 442 442 442>
VStem: -68 680<0 48 48 48>
DStem2: -12 56 78 68 0.492057 0.870563<54.7319 246.256 308.898 605.117> 442 677 342 551 0.165451 -0.986218<107.718 370.919 426.815 595.16>
LayerCount: 2
Fore
SplineSet
-68 0 m 1
 -68 48 l 1
 -12 56 l 1
 339 677 l 1
 442 677 l 1
 544 69 l 1
 554 56 l 1
 612 49 l 1
 612 0 l 1
 349 0 l 1
 349 49 l 1
 410 55 l 1
 421 70 l 1
 393 236 l 1
 170 236 l 1
 78 68 l 1
 88 53 l 1
 147 49 l 1
 147 0 l 1
 -68 0 l 1
200 291 m 1
 383 291 l 1
 342 551 l 1
 200 291 l 1
EndSplineSet
EndChar

StartChar: B
Encoding: 66 66 34
Width: 628
Flags: MW
HStem: 0 53<226.5 275> 321 52<274.5 329 269.5 330> 620 51<316 362.5>
VStem: 423 138<162.5 252.5> 443 136<499.5 559>
DStem2: 56 69 180 56 0.181964 0.983305<9.78056 282.057 334.191 545.43>
LayerCount: 2
Fore
SplineSet
-23 0 m 1
 -23 49 l 1
 41 54 l 1
 56 69 l 1
 157 605 l 1
 146 619 l 1
 82 624 l 1
 82 671 l 1xf0
 382 671 l 2
 514 671 579 630 579 544 c 0x68
 579 455 520 388 406 358 c 1
 508 353 561 305 561 220 c 0
 561 82 462 0 275 0 c 2
 -23 0 l 1
180 56 m 1xf0
 199 54 218 53 235 53 c 0
 360 53 423 108 423 217 c 0
 423 288 377 321 283 321 c 0
 266 321 249 320 230 318 c 1
 180 56 l 1xf0
239 375 m 1xf8
 252 374 264 373 275 373 c 0
 383 373 443 431 443 528 c 0
 443 590 403 620 322 620 c 0
 310 620 298 619 284 618 c 1
 239 375 l 1xf8
EndSplineSet
EndChar

StartChar: C
Encoding: 67 67 35
Width: 625
Flags: HMW
HStem: -13 60<310 354> 622 62<425.5 471.5>
VStem: 37 139<195 320>
LayerCount: 2
Fore
SplineSet
37 272 m 0
 37 368 68 457 131 537 c 0
 203 628 319 684 440 684 c 0
 505 684 569 672 636 650 c 1
 605 481 l 1
 539 481 l 1
 538 590 l 1
 528 608 l 1
 503 617 481 622 462 622 c 0
 389 622 328 597 281 549 c 0
 216 483 176 381 176 263 c 0
 176 127 250 47 370 47 c 0
 387 47 406 49 427 54 c 1
 446 72 l 1
 492 196 l 1
 559 196 l 1
 527 23 l 1
 456 -1 386 -13 322 -13 c 0
 150 -13 37 100 37 272 c 0
EndSplineSet
EndChar

StartChar: D
Encoding: 68 68 36
Width: 702
Flags: MW
HStem: 0 57<181 222 222 224> 615 56<285 285 285 339>
VStem: 519 141<369 481>
DStem2: 55 69 181 57 0.183225 0.983071<11.2895 543.466>
LayerCount: 2
Fore
SplineSet
-25 0 m 1
 -25 49 l 1
 41 54 l 1
 55 69 l 1
 156 603 l 1
 146 618 l 1
 82 623 l 1
 82 671 l 1
 352 671 l 2
 555 671 660 581 660 416 c 0
 660 299 615 188 536 108 c 0
 460 32 360 0 224 0 c 2
 -25 0 l 1
181 57 m 1
 222 57 l 2
 321 57 391 88 440 155 c 0
 488 221 519 320 519 418 c 0
 519 544 453 615 339 615 c 2
 285 615 l 1
 181 57 l 1
EndSplineSet
EndChar

StartChar: E
Encoding: 69 69 37
Width: 581
Flags: MW
HStem: 0 58<180 406 180 491> 319 56<241 351 230 363> 615 56<286 474 286 286>
VStem: -22 602
DStem2: 57 69 180 58 0.18695 0.982369<12.1888 277.935 335.004 541.503>
LayerCount: 2
Fore
SplineSet
-22 0 m 1
 -22 48 l 1
 43 54 l 1
 57 69 l 1
 158 601 l 1
 149 617 l 1
 85 622 l 1
 85 671 l 1
 580 671 l 1
 550 515 l 1
 486 515 l 1
 485 600 l 1
 474 615 l 1
 286 615 l 1
 241 375 l 1
 363 375 l 1
 378 389 l 1
 403 463 l 1
 460 463 l 1
 416 230 l 1
 362 230 l 1
 364 305 l 1
 351 319 l 1
 230 319 l 1
 180 58 l 1
 406 58 l 1
 420 72 l 1
 458 179 l 1
 524 179 l 1
 491 0 l 1
 -22 0 l 1
EndSplineSet
EndChar

StartChar: F
Encoding: 70 70 38
Width: 539
Flags: MW
HStem: 0 50<-23 261> 306 58<237 345 227 356> 614 57<285 461 285 285>
VStem: -23 592
DStem2: 56 69 182 70 0.186033 0.982543<24.4227 264.674 323.522 545.619>
LayerCount: 2
Fore
SplineSet
-23 0 m 1
 -23 48 l 1
 43 55 l 1
 56 69 l 1
 158 605 l 1
 148 618 l 1
 83 623 l 1
 83 671 l 1
 569 671 l 1
 536 503 l 1
 473 503 l 1
 471 601 l 1
 461 614 l 1
 285 614 l 1
 237 364 l 1
 356 364 l 1
 374 376 l 1
 400 451 l 1
 457 451 l 1
 412 216 l 1
 357 216 l 1
 359 294 l 1
 345 306 l 1
 227 306 l 1
 182 70 l 1
 194 55 l 1
 261 50 l 1
 257 0 l 1
 -23 0 l 1
EndSplineSet
EndChar

StartChar: G
Encoding: 71 71 39
Width: 693
Flags: MW
HStem: -12 63<314.5 359.5> 281 49<388 671> 623 62<439.5 486.5>
VStem: 38 139<200.5 326.5 200.5 337.5>
DStem2: 429 54 548 30 0.190417 0.981703<-4.86332 210.448>
LayerCount: 2
Fore
SplineSet
38 270 m 0
 38 405 98 526 202 602 c 0
 277 656 365 685 462 685 c 0
 531 685 598 674 657 652 c 1
 626 481 l 1
 554 481 l 1
 556 592 l 1
 544 611 l 1
 519 619 497 623 476 623 c 0
 403 623 341 599 293 556 c 0
 220 490 177 386 177 267 c 0
 177 134 253 51 376 51 c 0
 389 51 406 52 429 54 c 1
 467 261 l 1
 456 275 l 1
 388 281 l 1
 388 330 l 1
 671 330 l 1
 671 282 l 1
 608 276 l 1
 593 262 l 1
 548 30 l 1
 468 2 393 -12 326 -12 c 0
 149 -12 38 99 38 270 c 0
EndSplineSet
EndChar

StartChar: H
Encoding: 72 72 40
Width: 747
Flags: MW
HStem: 0 49<-25 256 -25 -25> 321 60<240 508 228 520> 624 47<489 489>
VStem: -25 792<0 671 49 671>
DStem2: 55 70 181 70 0.185508 0.982643<23.374 278.736 339.921 542.485> 462 70 587 70 0.185508 0.982643<23.1885 255.177 316.361 542.299>
LayerCount: 2
Fore
SplineSet
-25 0 m 1
 -25 49 l 1
 39 54 l 1
 55 70 l 1
 156 603 l 1
 146 618 l 1
 84 622 l 1
 84 671 l 1
 360 671 l 1
 360 623 l 1
 295 618 l 1
 282 605 l 1
 240 381 l 1
 520 381 l 1
 562 603 l 1
 549 618 l 1
 489 624 l 1
 489 671 l 1
 767 671 l 1
 767 623 l 1
 701 618 l 1
 688 605 l 1
 587 70 l 1
 596 55 l 1
 660 48 l 1
 660 0 l 1
 383 0 l 1
 383 49 l 1
 446 55 l 1
 462 70 l 1
 508 321 l 1
 228 321 l 1
 181 70 l 1
 192 53 l 1
 256 49 l 1
 256 0 l 1
 -25 0 l 1
EndSplineSet
EndChar

StartChar: I
Encoding: 73 73 41
Width: 353
Flags: MW
HStem: 0 49<-20 263 -20 -20> 623 48<87 369 87 369>
VStem: -20 389
DStem2: 61 69 186 67 0.184509 0.982831<21.098 545.433>
LayerCount: 2
Fore
SplineSet
-20 0 m 1
 -20 49 l 1
 46 54 l 1
 61 69 l 1
 162 605 l 1
 152 619 l 1
 87 623 l 1
 87 671 l 1
 369 671 l 1
 369 623 l 1
 303 619 l 1
 287 605 l 1
 186 67 l 1
 198 53 l 1
 263 49 l 1
 263 0 l 1
 -20 0 l 1
EndSplineSet
EndChar

StartChar: J
Encoding: 74 74 42
Width: 474
Flags: MW
HStem: -13 57<74 76 76 129.5 74 175> 623 48<214 496 214 496>
VStem: -45 541
DStem2: 231 270 358 268 0.17681 0.984245<-146.489 339.346>
LayerCount: 2
Fore
SplineSet
-45 14 m 1
 -11 192 l 1
 60 192 l 1
 61 56 l 1
 74 44 l 2
 75 44 75 44 76 44 c 0
 183 44 204 118 231 270 c 2
 291 604 l 1
 281 619 l 1
 214 623 l 1
 214 671 l 1
 496 671 l 1
 496 623 l 1
 429 617 l 1
 415 601 l 1
 358 268 l 2
 326 79 248 -13 102 -13 c 0
 46 -13 -3 -4 -45 14 c 1
EndSplineSet
EndChar

StartChar: K
Encoding: 75 75 43
Width: 653
Flags: MW
HStem: 0 49<-26 253 -26 -26> 293 50<231 261 231 284 221 261> 624 47<81 360 81 360>
VStem: -26 720<0 671 49 671>
DStem2: 53 69 180 69 0.185174 0.982706<23.5171 251.235 302.222 545.433> 261 343 380 377 0.697316 0.716763<107.351 359.951> 380 377 284 293 0.447214 -0.894427<32.1994 364.192>
LayerCount: 2
Fore
SplineSet
-26 0 m 1
 -26 49 l 1
 38 54 l 1
 53 69 l 1
 154 605 l 1
 144 619 l 1
 81 624 l 1
 81 671 l 1
 360 671 l 1
 360 624 l 1
 294 619 l 1
 281 605 l 1
 231 343 l 1
 261 343 l 1
 512 601 l 1
 506 617 l 1
 444 622 l 1
 444 671 l 1
 694 671 l 1
 694 622 l 1
 614 614 l 1
 380 377 l 1
 508 121 l 2
 534 69 555 47 616 47 c 0
 623 47 630 48 637 48 c 1
 637 1 l 1
 580 -3 541 -7 518 -7 c 0
 436 -7 412 27 375 103 c 2
 284 293 l 1
 221 293 l 1
 180 69 l 1
 191 53 l 1
 253 49 l 1
 253 0 l 1
 -26 0 l 1
EndSplineSet
EndChar

StartChar: L
Encoding: 76 76 44
Width: 529
Flags: MW
HStem: 0 58<178 359 178 450> 623 48<81 360>
VStem: -25 513<0 197 48 197>
DStem2: 53 67 178 58 0.183312 0.983055<14.0665 547.398>
LayerCount: 2
Fore
SplineSet
-25 0 m 1
 -25 48 l 1
 37 54 l 1
 53 67 l 1
 154 605 l 1
 144 619 l 1
 81 624 l 1
 81 671 l 1
 360 671 l 1
 360 623 l 1
 297 618 l 1
 280 605 l 1
 178 58 l 1
 359 58 l 1
 377 72 l 1
 416 197 l 1
 488 197 l 1
 450 0 l 1
 -25 0 l 1
EndSplineSet
EndChar

StartChar: M
Encoding: 77 77 45
Width: 894
Flags: MW
HStem: 0 49<-24 199 -24 -24> 623 48<85 343>
VStem: -24 936<0 671 49 671>
DStem2: 55 71 127 68 0.191165 0.981558<10.8192 541.28> 343 641 231 602 0.155878 -0.987776<21.0649 468.875> 417 178 398 0 0.462915 0.886402<0 518.215> 619 69 737 69 0.175664 0.98445<20.7283 546.498>
LayerCount: 2
Fore
SplineSet
-24 0 m 1
 -24 49 l 1
 40 56 l 1
 55 71 l 1
 160 602 l 1
 151 618 l 1
 85 623 l 1
 85 671 l 1
 343 671 l 1
 343 641 l 1
 417 178 l 1
 661 644 l 1
 661 671 l 1
 912 671 l 1
 912 622 l 1
 848 617 l 1
 833 603 l 1
 737 69 l 1
 747 54 l 1
 809 48 l 1
 809 0 l 1
 539 0 l 1
 539 50 l 1
 605 55 l 1
 619 69 l 1
 715 607 l 1
 398 0 l 1
 326 0 l 1
 231 602 l 1
 127 68 l 1
 139 54 l 1
 199 49 l 1
 199 0 l 1
 -24 0 l 1
EndSplineSet
EndChar

StartChar: N
Encoding: 78 78 46
Width: 712
Flags: MW
HStem: 0 50<-26 202 -26 -26> 624 47<80 301>
VStem: -26 769<0 671 50 671>
DStem2: 53 70 127 72 0.187281 0.982306<15.8234 494.363> 301 647 217 542 0.390637 -0.920545<63.8437 526.545> 506 162 550 0 0.183309 0.983055<0 451.075>
LayerCount: 2
Fore
SplineSet
-26 0 m 1
 -26 50 l 1
 39 55 l 1
 53 70 l 1
 155 605 l 1
 144 619 l 1
 80 624 l 1
 80 671 l 1
 301 671 l 1
 301 647 l 1
 506 162 l 1
 591 605 l 1
 579 618 l 1
 514 625 l 1
 514 671 l 1
 743 671 l 1
 743 624 l 1
 679 619 l 1
 663 606 l 1
 550 0 l 1
 447 0 l 1
 217 542 l 1
 127 72 l 1
 136 55 l 1
 202 49 l 1
 202 0 l 1
 -26 0 l 1
EndSplineSet
EndChar

StartChar: O
Encoding: 79 79 47
Width: 729
Flags: HMW
HStem: -13 61<281 353.5 281 369.5> 624 60<373 447.5>
VStem: 38 138<191 302.5 191 316.5> 549 141<367.5 482.5>
LayerCount: 2
Fore
SplineSet
38 265 m 0
 38 368 70 464 130 543 c 0
 197 632 302 684 412 684 c 0
 579 684 690 573 690 408 c 0
 690 305 657 207 598 130 c 0
 527 38 426 -13 313 -13 c 0
 148 -13 38 98 38 265 c 0
176 256 m 0
 176 126 238 48 324 48 c 0
 383 48 440 86 485 161 c 0
 524 226 549 319 549 416 c 0
 549 549 492 624 403 624 c 0
 343 624 288 586 244 512 c 0
 202 443 176 349 176 256 c 0
EndSplineSet
EndChar

StartChar: P
Encoding: 80 80 48
Width: 581
Flags: MW
HStem: 0 49<-24 256 -24 -24> 248 57<271.5 316 251 374.5> 616 55<305 342 342 355.5>
VStem: 446 137<437 537.5>
DStem2: 55 68 181 70 0.185703 0.982606<25.3639 211.364 265.43 543.468>
LayerCount: 2
Fore
SplineSet
-24 0 m 1
 -24 49 l 1
 40 54 l 1
 55 68 l 1
 156 602 l 1
 146 619 l 1
 84 624 l 1
 84 671 l 1
 342 671 l 2
 396 671 444 670 491 650 c 0
 547 626 583 571 583 504 c 0
 583 356 469 248 280 248 c 0
 263 248 241 248 215 250 c 1
 181 70 l 1
 190 53 l 1
 256 49 l 1
 256 0 l 1
 -24 0 l 1
225 306 m 1
 236 305 246 305 256 305 c 0
 376 305 446 377 446 497 c 0
 446 578 402 616 309 616 c 0
 301 616 293 616 284 615 c 1
 225 306 l 1
EndSplineSet
EndChar

StartChar: Q
Encoding: 81 81 49
Width: 729
Flags: HMW
HStem: -164 73<488 615.5> -11 66<288 313.5> 617 67<373.5 440.5>
VStem: 36 142<218 291 203 318.5> 546 143<345 469.5>
LayerCount: 2
Fore
SplineSet
36 266 m 0
 36 371 75 476 143 557 c 0
 211 638 309 684 414 684 c 0
 578 684 689 572 689 409 c 0
 689 243 611 105 472 29 c 1
 512 -54 543 -91 605 -91 c 0
 626 -91 660 -85 704 -70 c 1
 704 -116 l 1
 632 -147 575 -164 529 -164 c 0
 447 -164 391 -115 343 -10 c 1
 331 -11 319 -11 308 -11 c 0
 247 -11 196 2 155 32 c 0
 79 87 36 170 36 266 c 0
178 271 m 0
 178 135 243 55 333 55 c 0
 379 55 420 79 459 125 c 0
 509 184 546 288 546 402 c 0
 546 537 484 617 397 617 c 0
 350 617 309 593 269 546 c 0
 243 515 218 468 200 407 c 0
 185 356 178 311 178 271 c 0
EndSplineSet
EndChar

StartChar: R
Encoding: 82 82 50
Width: 645
Flags: MW
HStem: 0 47 295 56<226 324 226 324> 615 56<287 291>
VStem: 448 138<475.5 547.5>
DStem2: 56 67 183 68 0.186782 0.982401<24.7037 255.74 313.792 545.619>
LayerCount: 2
Fore
SplineSet
-22 0 m 1
 -22 48 l 1
 41 54 l 1
 56 67 l 1
 158 603 l 1
 147 618 l 1
 82 623 l 1
 82 671 l 1
 372 671 l 2
 516 671 586 627 586 527 c 0
 586 424 510 347 375 326 c 1
 463 308 483 247 510 150 c 0
 531 74 544 47 619 47 c 0
 623 47 628 47 632 47 c 1
 632 1 l 1
 596 -4 565 -6 540 -6 c 0
 446 -6 406 35 379 137 c 0
 365 190 364 238 329 268 c 0
 306 287 277 295 239 295 c 0
 235 295 230 295 226 295 c 1
 183 68 l 1
 192 54 l 1
 259 49 l 1
 259 0 l 1
 -22 0 l 1
237 352 m 1
 247 351 256 351 266 351 c 0
 382 351 448 414 448 511 c 0
 448 584 404 616 309 616 c 0
 302 616 295 615 287 615 c 1
 237 352 l 1
EndSplineSet
EndChar

StartChar: S
Encoding: 83 83 51
Width: 553
Flags: MW
HStem: -7 65<197.5 256 197.5 291> 624 59<305.5 358.5>
VStem: 89 119<485 535> 354 125<154 187.5>
LayerCount: 2
Fore
SplineSet
23 45 m 1
 50 207 l 1
 116 207 l 1
 115 88 l 1
 122 78 l 1
 152 65 182 58 213 58 c 0
 299 58 354 110 354 178 c 0
 354 197 345 219 327 241 c 0
 309 264 263 284 202 320 c 0
 125 366 89 403 89 475 c 0
 89 595 191 683 347 683 c 0
 397 683 451 674 509 656 c 1
 482 487 l 1
 422 487 l 1
 424 597 l 1
 416 607 l 1
 394 619 371 624 346 624 c 0
 265 624 208 574 208 513 c 0
 208 457 255 433 334 388 c 0
 426 335 479 302 479 215 c 0
 479 93 370 -7 212 -7 c 0
 145 -7 82 10 23 45 c 1
EndSplineSet
EndChar

StartChar: T
Encoding: 84 84 52
Width: 584
Flags: MW
HStem: 0 49<90 378> 616 55<161 274 161 161 402 515 402 402>
VStem: 37 590<495 671>
DStem2: 173 70 299 69 0.185048 0.982729<22.3333 555.26>
LayerCount: 2
Fore
SplineSet
37 495 m 1
 71 671 l 1
 627 671 l 1
 594 495 l 1
 527 495 l 1
 529 603 l 1
 515 616 l 1
 402 616 l 1
 299 69 l 1
 310 55 l 1
 378 49 l 1
 378 0 l 1
 90 0 l 1
 90 50 l 1
 159 54 l 1
 173 70 l 1
 274 616 l 1
 161 616 l 1
 143 603 l 1
 107 495 l 1
 37 495 l 1
EndSplineSet
EndChar

StartChar: U
Encoding: 85 85 53
Width: 701
Flags: MW
HStem: -13 79<290 334> 623 48<76 353>
VStem: 72 129<147 176.5>
DStem2: 82 254 210 258 0.187498 0.982265<-44.4944 357.337> 516 249 588 251 0.189675 0.981847<-125.489 357.716>
LayerCount: 2
Fore
SplineSet
72 164 m 0
 72 189 75 218 82 254 c 2
 149 605 l 1
 137 618 l 1
 76 623 l 1
 76 671 l 1
 353 671 l 1
 353 624 l 1
 290 619 l 1
 276 607 l 1
 210 258 l 2
 205 230 201 206 201 185 c 0
 201 109 248 66 332 66 c 0
 444 66 492 125 516 249 c 2
 585 600 l 1
 575 617 l 1
 509 624 l 1
 509 671 l 1
 735 671 l 1
 735 624 l 1
 671 617 l 1
 656 603 l 1
 588 251 l 2
 574 177 560 116 506 62 c 0
 458 14 382 -13 286 -13 c 0
 148 -13 72 50 72 164 c 0
EndSplineSet
EndChar

StartChar: V
Encoding: 86 86 54
Width: 617
Flags: MW
HStem: -3 20 623 48<27 285 27 285>
VStem: 27 650<625 671 625 671 625 671>
DStem2: 215 603 92 603 0.161229 -0.986917<0 471.834> 289 137 288 -3 0.471549 0.88184<0 527.698>
LayerCount: 2
Fore
SplineSet
27 623 m 1
 27 671 l 1
 285 671 l 1
 285 623 l 1
 224 619 l 1
 215 603 l 1
 289 137 l 1
 531 606 l 1
 524 619 l 1
 466 623 l 1
 466 671 l 1
 677 671 l 1
 677 625 l 1
 619 616 l 1
 288 -3 l 1
 191 -3 l 1
 92 603 l 1
 83 616 l 1
 27 623 l 1
EndSplineSet
EndChar

StartChar: W
Encoding: 87 87 55
Width: 921
Flags: MW
HStem: 0 20 623 48<43 299>
VStem: 43 920<625 671 625 671 625 671>
DStem2: 227 601 108 604 0.07758 -0.996986<0 418.226> 259 184 246 0 0.419505 0.907753<0 394.855> 579 671 484 515 0.102372 -0.994746<145.455 498.615> 630 175 627 0 0.405725 0.913995<0 467.975>
LayerCount: 2
Fore
SplineSet
43 623 m 1
 43 671 l 1
 299 671 l 1
 299 624 l 1
 238 618 l 1
 227 601 l 1
 259 184 l 1
 483 671 l 1
 579 671 l 1
 630 175 l 1
 817 604 l 1
 809 618 l 1
 751 623 l 1
 751 671 l 1
 963 671 l 1
 963 625 l 1
 900 615 l 1
 627 0 l 1
 537 0 l 1
 484 515 l 1
 246 0 l 1
 155 0 l 1
 108 604 l 1
 98 616 l 1
 43 623 l 1
EndSplineSet
EndChar

StartChar: X
Encoding: 88 88 56
Width: 608
Flags: MW
HStem: 0 48<-65 174 -65 -65> 622 49<52 326>
VStem: -65 723<0 671 48 671>
DStem2: 6 63 101 67 0.666043 0.745914<66.2577 333.33 484.087 729.98> 254 603 123 609 0.406295 -0.913742<0 199.312 316.768 533.544>
LayerCount: 2
Fore
SplineSet
-65 0 m 1
 -65 48 l 1
 -7 54 l 1
 6 63 l 1
 246 332 l 1
 123 609 l 1
 115 618 l 1
 52 622 l 1
 52 671 l 1
 326 671 l 1
 326 624 l 1
 265 618 l 1
 254 603 l 1
 333 420 l 1
 495 605 l 1
 489 619 l 1
 433 624 l 1
 433 671 l 1
 658 671 l 1
 658 624 l 1
 593 618 l 1
 363 360 l 1
 495 61 l 1
 504 52 l 1
 565 47 l 1
 565 0 l 1
 288 0 l 1
 288 48 l 1
 352 53 l 1
 364 68 l 1
 278 267 l 1
 101 67 l 1
 111 53 l 1
 174 48 l 1
 174 0 l 1
 -65 0 l 1
EndSplineSet
EndChar

StartChar: Y
Encoding: 89 89 57
Width: 586
Flags: MW
HStem: 0 49<93 377 93 93> 623 48<26 299 26 299>
VStem: 26 630<624 671 624 671 624 671>
DStem2: 225 603 98 609 0.312118 -0.950043<0 273.541> 176 71 298 68 0.184289 0.982872<19.5346 194.363> 310 343 337 276 0.594528 0.804075<0 316.635>
LayerCount: 2
Fore
SplineSet
26 623 m 1
 26 671 l 1
 299 671 l 1
 299 623 l 1
 237 617 l 1
 225 603 l 1
 310 343 l 1
 495 600 l 1
 486 616 l 1
 422 622 l 1
 422 671 l 1
 656 671 l 1
 656 624 l 1
 591 615 l 1
 581 606 l 1
 337 276 l 1
 298 68 l 1
 309 55 l 1
 377 49 l 1
 377 0 l 1
 93 0 l 1
 93 49 l 1
 160 55 l 1
 176 71 l 1
 212 262 l 1
 98 609 l 1
 89 617 l 1
 26 623 l 1
EndSplineSet
EndChar

StartChar: Z
Encoding: 90 90 58
Width: 572
Flags: MW
HStem: 0 59<141 382 141 470> 612 59<208 421 208 208>
VStem: -17 597
DStem2: -14 50 141 59 0.612287 0.790636<102.02 710.682>
LayerCount: 2
Fore
SplineSet
-17 0 m 1
 -14 50 l 1
 421 612 l 1
 208 612 l 1
 190 602 l 1
 156 493 l 1
 84 493 l 1
 118 671 l 1
 580 671 l 1
 577 622 l 1
 141 59 l 1
 382 59 l 1
 398 73 l 1
 436 196 l 1
 507 196 l 1
 470 0 l 1
 -17 0 l 1
EndSplineSet
EndChar

StartChar: bracketleft
Encoding: 91 91 59
Width: 449
Flags: HMW
HStem: -132 55<176 321> 652 56<308 462 308 308>
VStem: 51 421
LayerCount: 2
Fore
SplineSet
51 -132 m 1
 203 708 l 1
 472 708 l 1
 462 652 l 1
 308 652 l 1
 176 -77 l 1
 330 -77 l 1
 321 -132 l 1
 51 -132 l 1
EndSplineSet
EndChar

StartChar: backslash
Encoding: 92 92 60
Width: 481
Flags: HMW
HStem: -93 764<21 504 21 425>
VStem: 21 483
LayerCount: 2
Fore
SplineSet
21 671 m 1
 102 671 l 1
 504 -93 l 1
 425 -93 l 1
 21 671 l 1
EndSplineSet
EndChar

StartChar: bracketright
Encoding: 93 93 61
Width: 449
Flags: HMW
HStem: -132 55<-32 122 -32 227 -42 122> 653 55<109 253 99 378>
VStem: -42 420
LayerCount: 2
Fore
SplineSet
-42 -132 m 1
 -32 -77 l 1
 122 -77 l 1
 253 653 l 1
 99 653 l 1
 109 708 l 1
 378 708 l 1
 227 -132 l 1
 -42 -132 l 1
EndSplineSet
EndChar

StartChar: asciicircum
Encoding: 94 94 62
Width: 1000
Flags: HMW
HStem: 438 276<201 552 201 552 447 797 447 746>
VStem: 201 596<438 438>
LayerCount: 2
Fore
SplineSet
201 438 m 1
 447 714 l 1
 552 714 l 1
 797 438 l 1
 746 438 l 1
 499 632 l 1
 252 438 l 1
 201 438 l 1
EndSplineSet
EndChar

StartChar: underscore
Encoding: 95 95 63
Width: 500
Flags: HMW
HStem: -236 84<0 500 0 500>
VStem: 0 500<-236 -152 -236 -152>
LayerCount: 2
Fore
SplineSet
0 -152 m 1
 500 -152 l 1
 500 -236 l 1
 0 -236 l 1
 0 -152 l 1
EndSplineSet
EndChar

StartChar: quoteleft
Encoding: 8216 8216 64
Width: 261
Flags: HMW
HStem: 395 303<127.5 265>
VStem: 76 156<455 484.5 455 515>
LayerCount: 2
Fore
SplineSet
76 474 m 0
 76 556 143 649 265 698 c 1
 281 669 l 1
 205 627 165 575 161 515 c 1
 221 515 l 1
 228 504 232 491 232 478 c 0
 232 432 197 395 150 395 c 0
 105 395 76 425 76 474 c 0
EndSplineSet
EndChar

StartChar: a
Encoding: 97 97 65
Width: 572
Flags: MW
HStem: -8 81<117 237.5> 446 48<270.5 318.5 255.5 319.5>
VStem: 18 128<150 210>
DStem2: 323 120 448 179 0.174633 0.984634<10.0348 269.136>
LayerCount: 2
Fore
SplineSet
18 174 m 0
 18 246 38 312 78 373 c 0
 128 449 211 494 300 494 c 0
 337 494 375 485 416 469 c 1
 453 493 l 1
 512 493 l 1
 506 475 493 424 478 341 c 2
 448 179 l 2
 442 146 439 122 439 109 c 0
 439 75 458 55 481 55 c 0
 501 55 523 59 547 66 c 1
 547 29 l 1
 484 6 434 -6 396 -6 c 0
 347 -6 321 19 321 67 c 0
 321 68 321 70 321 72 c 1
 265 19 211 -8 162 -8 c 0
 72 -8 18 59 18 174 c 0
146 188 m 0
 146 112 173 73 222 73 c 0
 253 73 285 89 323 120 c 1
 370 385 l 1
 330 445 l 1
 326 445 322 446 317 446 c 0
 224 446 146 340 146 188 c 0
EndSplineSet
EndChar

StartChar: b
Encoding: 98 98 66
Width: 556
Flags: MW
HStem: -9 48<210 240.5> 416 78<286 411.5> 663 35<53 53> 716 20<224 268 268 268>
VStem: 382 126<270 338>
DStem2: 27 35 151 67 0.172273 0.985049<42.6178 389.068 415.055 624.411>
LayerCount: 2
Fore
SplineSet
27 35 m 1
 135 650 l 1
 53 663 l 1
 53 698 l 1
 224 736 l 1
 268 736 l 1
 263 709 257 669 247 615 c 2
 212 424 l 1
 273 471 326 494 373 494 c 0
 450 494 508 425 508 316 c 0
 508 224 471 134 407 70 c 0
 355 18 283 -9 198 -9 c 0
 134 -9 78 6 27 35 c 1
151 67 m 1
 172 49 197 39 223 39 c 0
 300 39 382 151 382 300 c 0
 382 376 354 416 298 416 c 0
 274 416 244 404 206 381 c 1
 151 67 l 1
EndSplineSet
EndChar

StartChar: c
Encoding: 99 99 67
Width: 437
Flags: HMW
HStem: -10 80<209 216> 441 52<262 262>
VStem: 16 125<161.5 218.5>
LayerCount: 2
Fore
SplineSet
16 182 m 0
 16 255 38 321 82 381 c 0
 132 449 219 493 299 493 c 0
 370 493 409 461 409 412 c 0
 409 372 377 341 326 339 c 1
 262 441 l 1
 195 422 141 329 141 205 c 0
 141 118 178 70 240 70 c 0
 283 70 337 94 394 144 c 1
 394 85 l 1
 322 21 247 -10 185 -10 c 0
 84 -10 16 65 16 182 c 0
EndSplineSet
EndChar

StartChar: d
Encoding: 100 100 68
Width: 579
Flags: MW
HStem: -8 80<122 238.5> 451 45<273 316> 663 34<335 335> 716 20<509 551 551 551>
VStem: 21 126<151.5 211.5>
DStem2: 332 128 458 179 0.164686 0.986346<-1.86748 264.518 355.924 529.2>
LayerCount: 2
Fore
SplineSet
21 177 m 0
 21 246 40 312 76 368 c 0
 129 450 213 496 309 496 c 0
 334 496 362 490 391 479 c 1
 419 650 l 1
 335 663 l 1
 335 697 l 1
 509 736 l 1
 551 736 l 1
 458 179 l 2
 452 142 449 118 449 106 c 0
 449 75 468 55 491 55 c 0
 511 55 534 59 558 66 c 1
 558 29 l 1
 495 6 444 -6 406 -6 c 0
 350 -6 325 19 325 74 c 0
 325 75 325 76 325 77 c 1
 268 20 214 -8 163 -8 c 0
 81 -8 21 62 21 177 c 0
147 189 m 0
 147 114 177 72 223 72 c 0
 254 72 292 91 332 128 c 1
 375 389 l 1
 333 449 l 1
 326 450 319 451 313 451 c 0
 233 451 147 339 147 189 c 0
EndSplineSet
EndChar

StartChar: e
Encoding: 101 101 69
Width: 464
Flags: HMW
HStem: -9 75<212.5 226> 226 43 441 50<277 296>
VStem: 19 120<154.5 201.5 154.5 228> 330 101<361 405.5>
LayerCount: 2
Fore
SplineSet
19 181 m 0
 19 275 58 361 132 424 c 0
 183 467 247 491 307 491 c 0
 385 491 431 448 431 382 c 0
 431 287 339 226 172 226 c 0
 162 226 152 227 141 227 c 1
 140 216 139 206 139 197 c 0
 139 112 179 66 246 66 c 0
 289 66 343 89 403 136 c 1
 401 75 l 1
 328 18 256 -9 196 -9 c 0
 85 -9 19 62 19 181 c 0
149 269 m 1
 261 274 330 332 330 390 c 0
 330 421 311 441 281 441 c 0
 229 441 177 382 149 269 c 1
EndSplineSet
EndChar

StartChar: f
Encoding: 102 102 70
Width: 325
Flags: MW
HStem: -214 68<-105 -7> 408 59<225 361 225 361 216 361> 686 47<299 299>
VStem: -154 601
DStem2: 58 102 179 147 0.139156 0.99027<-114.778 309.006 384.688 490.221>
LayerCount: 2
Fore
SplineSet
-154 -152 m 0
 -154 -123 -140 -100 -114 -89 c 1
 -7 -146 l 1
 24 -105 40 -22 58 102 c 2
 101 408 l 1
 34 400 l 1
 35 444 l 1
 113 478 l 1
 141 636 246 733 350 733 c 0
 408 733 447 701 447 664 c 0
 447 634 423 607 383 598 c 1
 299 686 l 1
 270 651 245 578 225 467 c 1
 361 467 l 1
 361 408 l 1
 216 408 l 1
 179 147 l 2
 166 58 145 -15 107 -75 c 0
 50 -165 -23 -214 -85 -214 c 0
 -125 -214 -154 -187 -154 -152 c 0
EndSplineSet
EndChar

StartChar: g
Encoding: 103 103 71
Width: 517
Flags: HW
HStem: -218 50<167 240 167 250> 161 46 411 52<425 527 425 425> 448 44<240 282>
VStem: -30 107<-89.5 -53.5> 44 120<266.5 328.5 258.5 352.5> 319 116<324.5 362.5 299.5 396.5> 319 120<-101 -78>
LayerCount: 2
Fore
SplineSet
-30 -85 m 0xc9
 -30 -22 18 23 116 62 c 0
 116 63 116 65 116 66 c 0
 116 102 130 133 158 168 c 1
 84 188 44 236 44 297 c 0
 44 408 136 492 266 492 c 0x55
 308 492 349 482 390 463 c 1x22
 527 463 l 1
 527 411 l 1
 425 411 l 1
 431 390 435 371 435 354 c 0x22
 435 245 345 162 209 161 c 1
 201 148 197 136 197 123 c 0
 197 122 197 120 197 119 c 2
 348 47 l 2
 409 18 439 -12 439 -61 c 0
 439 -141 331 -218 169 -218 c 0
 46 -218 -30 -163 -30 -85 c 0xc9
77 -59 m 0
 77 -120 128 -168 206 -168 c 0
 274 -168 319 -132 319 -90 c 0
 319 -66 300 -44 261 -26 c 2
 141 29 l 1xc9
 98 6 77 -22 77 -59 c 0
164 283 m 0
 164 234 184 207 219 207 c 0
 267 207 319 278 319 371 c 0x55
 319 422 300 448 264 448 c 0
 216 448 164 374 164 283 c 0
EndSplineSet
EndChar

StartChar: h
Encoding: 104 104 72
Width: 595
Flags: MW
HStem: -6 61<382.5 504> 0 20 408 86<318.5 437> 665 32<63 64> 716 20<241 286 286 286>
VStem: 381 123<343.5 427.5>
DStem2: 20 0 144 0 0.189441 0.981892<23.4907 398.98 424.788 667.956> 336 118 463 179 0.211941 0.977283<13.597 236.551>
LayerCount: 2
Fore
SplineSet
20 0 m 1
 151 655 l 5
 64 665 l 5
 63 697 l 5
 241 736 l 5x7c
 286 736 l 5
 273 682 261 625 249 564 c 6
 215 395 l 1
 295 461 359 494 408 494 c 0
 466 494 504 457 504 398 c 0
 504 378 500 351 493 317 c 2
 463 179 l 2
 456 146 452 122 452 106 c 0
 452 75 471 55 494 55 c 0
 514 55 536 59 560 66 c 1
 560 29 l 1
 497 6 447 -6 409 -6 c 0xac
 356 -6 328 18 328 65 c 0
 328 79 331 97 336 118 c 2
 372 284 l 2
 378 313 381 336 381 351 c 0
 381 388 363 408 333 408 c 0
 304 408 260 387 206 342 c 1
 144 0 l 1
 20 0 l 1
EndSplineSet
EndChar

StartChar: j
Encoding: 106 106 74
Width: 297
Flags: HMW
HStem: -214 74<-98.5 5> 420 36<26 26> 473 20<205 249 249 249> 584 139<195 229.5>
VStem: 140 144<638 669>
LayerCount: 2
Back
SplineSet
-146 -153 m 0
 -146 -124 -134 -104 -112 -93 c 1
 5 -140 l 1
 37 -100 52 -23 69 90 c 2
 116 407 l 1
 26 420 l 1
 26 456 l 1
 205 493 l 1
 249 493 l 1
 195 155 l 2
 179 53 164 -33 96 -108 c 0
 31 -179 -30 -214 -78 -214 c 0
 -119 -214 -146 -190 -146 -153 c 0
140 648 m 0
 140 690 173 723 217 723 c 0
 259 723 284 698 284 659 c 0
 284 617 251 584 208 584 c 0
 167 584 140 611 140 648 c 0
EndSplineSet
Fore
Refer: 306 -1 N 1 0 0 1 -3 -2 2
Refer: 228 567 N 1 0 0 1 0 0 2
EndChar

StartChar: k
Encoding: 107 107 75
Width: 559
Flags: MW
HStem: -7 7 22 31 474 20<439.5 478.5> 664 33<60 60> 716 20<240 283 283 283>
VStem: 23 499<0 446>
DStem2: 23 0 142 0 0.188154 0.982139<22.3904 222.457 284.061 667.991>
LayerCount: 2
Fore
SplineSet
23 0 m 1
 149 656 l 1
 60 664 l 1
 60 697 l 1
 240 736 l 1
 283 736 l 1
 186 258 l 1
 316 395 l 2
 376 458 418 494 461 494 c 0
 496 494 522 465 522 427 c 0
 522 387 495 356 441 340 c 1
 405 398 l 1
 358 362 327 335 313 321 c 1
 390 141 422 53 492 53 c 0
 504 53 521 56 543 61 c 1
 543 22 l 1
 478 3 430 -7 401 -7 c 0
 339 -7 316 30 286 101 c 2
 223 247 l 1
 177 197 l 1
 142 0 l 1
 23 0 l 1
EndSplineSet
EndChar

StartChar: l
Encoding: 108 108 76
Width: 307
Flags: MW
HStem: -9 64<94.5 210.5> 663 35<58 58> 716 20<229 273 273 273>
VStem: 34 246<41 70 31 71.5>
DStem2: 41 118 169 179 0.183543 0.983012<10.6035 541.133>
LayerCount: 2
Fore
SplineSet
34 65 m 0
 34 78 37 95 41 118 c 2
 140 650 l 1
 58 663 l 1
 58 698 l 1
 229 736 l 1
 273 736 l 1
 169 179 l 2
 163 150 158 126 158 106 c 0
 158 75 176 55 199 55 c 0
 222 55 249 60 280 70 c 1
 280 31 l 1
 208 5 156 -9 123 -9 c 0
 66 -9 34 17 34 65 c 0
EndSplineSet
EndChar

StartChar: m
Encoding: 109 109 77
Width: 883
Flags: MW
HStem: -6 61<673.5 794> 0 20 409 84<202 354> 417 35<32 32>
VStem: 34 817<0 66>
DStem2: 34 0 156 0 0.169907 0.98546<20.7286 394.826> 323 0 446 0 0.168094 0.985771<20.6755 356.328> 627 118 754 179 0.209906 0.977722<13.4012 238.639>
LayerCount: 2
Fore
SplineSet
32 417 m 1x58
 32 452 l 1x58
 202 493 l 1
 241 493 l 1
 222 395 l 1
 297 462 364 493 415 493 c 0
 472 493 506 460 509 398 c 1
 583 463 649 493 695 493 c 0
 756 493 794 455 794 394 c 0
 794 375 791 354 786 329 c 2
 754 179 l 2
 747 147 743 123 743 106 c 0
 743 75 761 55 784 55 c 0
 804 55 827 59 851 66 c 1
 851 29 l 1
 788 6 738 -6 700 -6 c 0xa8
 647 -6 619 18 619 65 c 0
 619 79 622 96 627 118 c 2
 665 295 l 2
 670 317 673 336 673 353 c 0
 673 388 655 408 623 408 c 0
 593 408 549 388 505 346 c 1
 446 0 l 1
 323 0 l 1
 381 301 l 2
 385 322 388 338 388 351 c 0
 388 388 370 409 338 409 c 0x68
 311 409 268 389 217 347 c 1
 156 0 l 1
 34 0 l 1
 112 405 l 1
 32 417 l 1x58
EndSplineSet
EndChar

StartChar: n
Encoding: 110 110 78
Width: 600
Flags: MW
HStem: -6 61<390.5 512> 0 20 408 85<202 355> 417 33<26 26>
VStem: 26 542<28 450 28 450>
DStem2: 29 0 156 0 0.169907 0.98546<21.5782 391.79> 344 118 471 179 0.211941 0.977283<12.6198 235.574>
LayerCount: 2
Fore
SplineSet
26 417 m 1x58
 26 450 l 1x58
 202 493 l 1
 241 493 l 1
 221 394 l 1
 301 459 364 493 421 493 c 0
 473 493 512 455 512 395 c 0
 512 376 508 349 501 316 c 2
 471 179 l 2
 464 145 460 121 460 105 c 0
 460 75 479 55 502 55 c 0
 522 55 544 59 568 66 c 1
 568 28 l 1
 506 5 455 -6 417 -6 c 0
 364 -6 336 19 336 65 c 0
 336 80 340 97 344 118 c 2
 380 284 l 2
 386 313 389 335 389 350 c 0
 389 387 370 408 340 408 c 0xa8
 311 408 268 387 215 342 c 1
 156 0 l 1
 29 0 l 1
 109 406 l 1
 26 417 l 1x58
EndSplineSet
EndChar

StartChar: o
Encoding: 111 111 79
Width: 550
Flags: HMW
HStem: -11 52<205.5 259> 441 52<261.5 314>
VStem: 19 129<135 236> 372 129<246.5 346>
LayerCount: 2
Fore
SplineSet
19 197 m 0
 19 275 51 355 106 412 c 0
 156 464 225 493 298 493 c 0
 423 493 501 413 501 287 c 0
 501 206 470 127 414 69 c 0
 364 17 296 -11 222 -11 c 0
 97 -11 19 70 19 197 c 0
148 181 m 0
 148 89 178 41 233 41 c 0
 307 41 372 145 372 298 c 0
 372 394 343 441 285 441 c 0
 213 441 148 338 148 181 c 0
EndSplineSet
EndChar

StartChar: p
Encoding: 112 112 80
Width: 565
Flags: MW
HStem: -218 39<-63 216> -3 56<220 267.5> 419 37 421 73
VStem: 394 125<271.5 342.5>
DStem2: 7 -149 123 -161 0.173184 0.98489<8.27066 184.837 237.512 567.39>
LayerCount: 2
Fore
SplineSet
-63 -178 m 5xd8
 -2 -162 l 5
 7 -149 l 5
 105 411 l 1
 27 421 l 1xd8
 27 456 l 1xe8
 194 493 l 1
 238 493 l 1
 224 425 l 1
 280 471 334 494 385 494 c 0
 464 494 519 428 519 319 c 0
 519 224 490 148 428 83 c 0
 377 29 304 -3 231 -3 c 0
 205 -3 179 3 153 13 c 1
 123 -161 l 5
 216 -179 l 5
 216 -218 l 5
 -63 -218 l 5
 -63 -178 l 5xd8
162 70 m 1
 187 58 209 53 231 53 c 0
 318 53 394 158 394 306 c 0
 394 379 363 419 315 419 c 0xe8
 288 419 256 405 217 376 c 1
 162 70 l 1
EndSplineSet
EndChar

StartChar: q
Encoding: 113 113 81
Width: 562
Flags: MW
HStem: -218 40<210 491 210 210> -6 79<123.5 248.5> 449 47<295 318>
VStem: 24 123<152.5 220>
DStem2: 283 -152 401 -163 0.170458 0.985365<9.27499 221.457 250.031 546.149>
LayerCount: 2
Fore
SplineSet
24 177 m 0
 24 263 51 339 101 398 c 0
 154 461 226 496 303 496 c 0
 338 496 375 488 417 473 c 1
 462 496 l 1
 515 496 l 1
 507 453 495 389 481 306 c 2
 401 -163 l 1
 491 -180 l 1
 491 -218 l 1
 210 -218 l 1
 210 -178 l 1
 272 -166 l 1
 283 -152 l 1
 322 66 l 1
 264 18 214 -6 167 -6 c 0
 80 -6 24 61 24 177 c 0
147 191 m 0
 147 114 179 73 233 73 c 0
 264 73 295 88 332 117 c 1
 377 386 l 1
 334 448 l 1
 328 449 321 449 315 449 c 0
 275 449 240 430 209 389 c 0
 175 345 147 265 147 191 c 0
EndSplineSet
EndChar

StartChar: r
Encoding: 114 114 82
Width: 449
Flags: MW
HStem: 0 20 410 82<324 397.5> 418 34<26 26>
VStem: 29 421<0 441>
DStem2: 29 0 152 0 0.193327 0.981134<23.7792 389.522>
LayerCount: 2
Fore
SplineSet
26 418 m 1
 26 452 l 1
 198 493 l 1xb0
 233 493 l 1
 205 359 l 1
 269 448 329 492 376 492 c 0
 419 492 450 463 450 419 c 0
 450 371 412 334 353 334 c 2
 353 334 352 334 351 334 c 2
 324 410 l 1x50
 243 376 206 321 191 232 c 2
 152 0 l 1
 29 0 l 1
 109 406 l 1
 26 418 l 1
EndSplineSet
EndChar

StartChar: s
Encoding: 115 115 83
Width: 403
Flags: HMW
HStem: -9 46<142 175 142 197> 449 44<202.5 227>
VStem: 49 102<377 377.5> 228 109<111 134.5>
LayerCount: 2
Fore
SplineSet
-12 95 m 0
 -12 132 13 157 48 157 c 0
 70 157 88 149 104 134 c 1
 86 61 l 1
 109 45 131 37 153 37 c 0
 197 37 228 68 228 109 c 0
 228 160 192 179 145 211 c 0
 83 254 49 284 49 333 c 0
 49 422 133 493 247 493 c 0
 320 493 362 463 362 419 c 0
 362 384 335 359 291 357 c 1
 244 447 l 1
 237 448 230 449 224 449 c 0
 181 449 151 423 151 392 c 0
 151 362 181 338 231 302 c 0
 296 255 337 224 337 156 c 0
 337 66 254 -9 140 -9 c 0
 48 -9 -12 37 -12 95 c 0
EndSplineSet
EndChar

StartChar: t
Encoding: 116 116 84
Width: 366
Flags: MW
HStem: -8 65<112.5 241> 415 58<233 370 233 370 222 370> 581 20<191 256 256 256>
VStem: 48 123<56 127>
DStem2: 55 151 177 170 0.186086 0.982533<-8.22607 268.693>
LayerCount: 2
Fore
SplineSet
39 412 m 1
 39 448 l 1
 125 491 l 1
 191 601 l 1
 256 601 l 1
 233 473 l 1
 370 473 l 1
 370 415 l 1
 222 415 l 1
 177 170 l 2
 173 150 171 134 171 120 c 0
 171 78 191 57 230 57 c 0
 252 57 281 63 317 75 c 1
 317 35 l 1
 237 7 180 -8 144 -8 c 0
 81 -8 48 25 48 87 c 0
 48 106 50 127 55 151 c 2
 105 415 l 1
 39 412 l 1
EndSplineSet
EndChar

StartChar: u
Encoding: 117 117 85
Width: 599
Flags: MW
HStem: -10 85<123.5 240.5> 419 31<28 28> 467 20<201 239 239 239>
VStem: 53 120<60.5 135>
DStem2: 59 147 181 188 0.19043 0.981701<4.59681 264.573> 346 123 474 179 0.189675 0.981847<6.42463 358.508>
LayerCount: 2
Fore
SplineSet
28 419 m 1
 28 450 l 1
 201 487 l 1
 239 487 l 1
 181 188 l 2
 176 161 173 141 173 129 c 0
 173 93 192 75 226 75 c 0
 255 75 296 90 346 123 c 1
 414 475 l 1
 533 489 l 1
 474 179 l 2
 468 150 463 126 463 106 c 0
 463 75 482 55 505 55 c 0
 525 55 548 59 572 66 c 1
 572 29 l 1
 502 5 450 -9 415 -9 c 0
 366 -9 340 18 340 68 c 0
 340 71 340 74 340 77 c 1
 262 18 199 -10 156 -10 c 0
 91 -10 53 28 53 93 c 0
 53 108 55 126 59 147 c 2
 108 407 l 1
 28 419 l 1
EndSplineSet
EndChar

StartChar: v
Encoding: 118 118 86
Width: 492
Flags: MW
HStem: -1 20 424 32<-8 -8> 473 21
VStem: -8 480<424 446.5 389.5 456 389.5 456>
DStem2: 201 392 97 281 0.0876891 -0.996148<-30.1509 285.098>
LayerCount: 2
Fore
SplineSet
-8 424 m 1
 -8 456 l 1
 150 493 l 1
 191 481 196 450 201 392 c 2
 226 108 l 1
 287 183 334 255 366 321 c 1
 343 469 l 1
 364 486 385 494 405 494 c 0
 446 494 472 468 472 425 c 0
 472 354 383 205 194 -1 c 1
 108 -1 l 1
 115 22 119 41 119 60 c 0
 119 64 118 69 118 73 c 2
 97 281 l 2
 90 348 84 392 73 412 c 1
 -8 424 l 1
EndSplineSet
EndChar

StartChar: w
Encoding: 119 119 87
Width: 768
Flags: MW
HStem: 0 20 423 33<-2 -2> 474 20<141 187 187 187>
VStem: -2 742<423 444 382 456 382 456>
DStem2: 187 494 81 411 0.057798 -0.998328<76.7347 365.546> 207 129 188 0 0.476529 0.879159<0 269.955> 496 95 375 345 0.0571979 -0.998363<-254.819 0>
LayerCount: 2
Fore
SplineSet
-2 423 m 1
 -2 456 l 1
 141 494 l 1
 187 494 l 1
 207 129 l 1
 270 245 329 358 380 471 c 1
 474 479 l 1
 478 387 485 260 496 95 c 1
 567 189 614 263 637 317 c 1
 613 467 l 1
 630 485 651 493 675 493 c 0
 714 493 740 465 740 423 c 0
 740 341 647 208 481 0 c 1
 395 0 l 1
 375 345 l 1
 314 227 252 112 188 0 c 1
 94 0 l 1
 103 31 l 1
 81 411 l 1
 -2 423 l 1
EndSplineSet
EndChar

StartChar: x
Encoding: 120 120 88
Width: 510
Flags: HMW
HStem: -6 60<304.5 428.5> 409 85<116 169>
VStem: -38 549<46.5 441.5>
LayerCount: 2
Fore
SplineSet
-38 64 m 0
 -38 96 -14 125 26 135 c 1
 69 82 l 1
 110 110 151 160 186 230 c 1
 157 322 135 382 116 409 c 1
 25 416 l 1
 25 450 l 1
 162 494 l 2
 164 494 167 494 169 494 c 0
 225 494 243 437 274 315 c 1
 335 429 391 487 448 487 c 0
 485 487 511 460 511 423 c 0
 511 388 488 359 447 347 c 1
 408 400 l 1
 370 383 332 338 297 265 c 1
 339 120 353 54 420 54 c 0
 437 54 455 56 475 61 c 1
 475 22 l 1
 417 4 374 -6 343 -6 c 0
 266 -6 236 50 208 178 c 1
 143 59 90 -1 33 -1 c 0
 -6 -1 -38 29 -38 64 c 0
EndSplineSet
EndChar

StartChar: y
Encoding: 121 121 89
Width: 494
Flags: MW
HStem: -216 81<-18 47> 426 33<-14 -14> 474 19
VStem: -78 591<-159 467>
DStem2: 216 340 98 343 0.185973 -0.982555<-102.167 220.52>
LayerCount: 2
Fore
SplineSet
-78 -139 m 0
 -78 -105 -56 -79 -20 -72 c 1
 47 -135 l 1
 92 -131 142 -77 196 26 c 1
 158 26 l 1
 98 343 l 2
 93 371 84 397 73 418 c 1
 -14 426 l 1
 -14 459 l 1
 140 494 l 1
 183 486 201 436 216 340 c 2
 250 122 l 1
 291 225 341 349 403 493 c 1
 434 493 l 1
 513 467 l 1
 513 440 l 1
 454 407 l 1
 376 303 336 159 259 21 c 0
 171 -137 88 -216 6 -216 c 0
 -42 -216 -78 -179 -78 -139 c 0
EndSplineSet
EndChar

StartChar: z
Encoding: 122 122 90
Width: 465
Flags: MW
HStem: -2 92<233 324> 398 97<120.5 205>
VStem: -20 481<27 456>
DStem2: -20 27 130 108 0.680611 0.732645<161.436 480.451>
LayerCount: 2
Fore
SplineSet
-20 27 m 1
 307 379 l 1
 220 361 l 1
 184 386 155 398 131 398 c 0
 110 398 93 391 79 376 c 1
 137 309 l 1
 122 281 102 267 77 267 c 0
 47 267 27 292 27 331 c 0
 27 354 36 381 53 410 c 0
 86 465 133 495 181 495 c 0
 229 495 264 469 296 456 c 0
 315 448 332 444 349 444 c 0
 354 444 359 444 364 445 c 1
 387 502 l 1
 461 456 l 1
 130 108 l 1
 217 132 l 1
 255 104 286 90 313 90 c 0
 335 90 355 99 372 115 c 1
 308 187 l 1
 322 216 342 231 366 231 c 0
 398 231 424 203 424 162 c 0
 424 127 408 87 378 52 c 0
 346 15 311 -2 264 -2 c 0
 202 -2 146 39 97 39 c 0
 90 39 82 38 74 36 c 1
 50 -14 l 1
 -20 27 l 1
EndSplineSet
EndChar

StartChar: braceleft
Encoding: 123 123 91
Width: 487
Flags: HMW
HStem: -134 53<423.5 429> 263 57<47 67 47 50.5> 654 51<407 429>
VStem: 187 116<448 467 467 529 414.5 532 414.5 596.5>
LayerCount: 2
Fore
SplineSet
47 263 m 1
 47 320 l 1
 54 320 61 320 67 320 c 0
 159 320 187 354 187 448 c 2
 187 532 l 2
 187 661 249 705 407 705 c 0
 414 705 422 705 429 705 c 1
 429 654 l 1
 328 651 303 620 303 529 c 2
 303 467 l 2
 303 362 260 309 156 292 c 1
 258 276 304 221 304 119 c 2
 304 46 l 2
 304 -49 325 -80 429 -81 c 1
 429 -134 l 1
 418 -134 408 -135 398 -135 c 0
 243 -135 187 -88 187 51 c 2
 187 132 l 2
 187 229 157 263 67 263 c 0
 61 263 54 263 47 263 c 1
EndSplineSet
EndChar

StartChar: bar
Encoding: 124 124 92
Width: 500
Flags: HMW
HStem: -236 20 744 20<207 294 294 294>
VStem: 207 87<-236 764 -236 764>
LayerCount: 2
Fore
SplineSet
207 -236 m 1
 207 764 l 1
 294 764 l 1
 294 -236 l 1
 207 -236 l 1
EndSplineSet
EndChar

StartChar: braceright
Encoding: 125 125 93
Width: 487
Flags: HMW
HStem: -134 53<59 64.5> 263 56<376 421.5 373.5 424 421 421.5 373.5 441> 654 51<59 81>
VStem: 184 117<46 51 51 119 119 132 -18.5 170 467 529 529 532>
LayerCount: 2
Fore
SplineSet
59 -81 m 1
 163 -80 184 -49 184 46 c 2
 184 119 l 2
 184 221 231 276 332 292 c 1
 228 309 184 361 184 467 c 2
 184 529 l 2
 184 620 159 651 59 654 c 1
 59 705 l 1
 66 705 74 705 81 705 c 0
 239 705 301 661 301 532 c 2
 301 448 l 2
 301 355 329 319 418 319 c 0
 425 319 433 320 441 320 c 1
 441 263 l 1
 434 263 427 263 421 263 c 0
 331 263 301 229 301 132 c 2
 301 51 l 2
 301 -88 245 -135 90 -135 c 0
 80 -135 70 -134 59 -134 c 1
 59 -81 l 1
EndSplineSet
EndChar

StartChar: asciitilde
Encoding: 126 126 94
Width: 833
Flags: HW
HStem: 224 84<546.5 591> 290 83<247 304.5 247 307>
VStem: 87 660<293 293 293 303 303 303>
LayerCount: 2
Fore
SplineSet
87 212 m 1
 87 303 l 1
 156 350 218 373 276 373 c 0x60
 333 373 378 358 419 344 c 0
 468 327 513 308 562 308 c 0
 620 308 679 334 747 383 c 1
 747 293 l 1xa0
 682 248 621 224 561 224 c 0xa0
 532 224 500 230 468 241 c 0
 399 264 339 290 275 290 c 0
 217 290 158 262 87 212 c 1
EndSplineSet
EndChar

StartChar: exclamdown
Encoding: 161 161 95
Width: 340
Flags: HMW
HStem: -7 487<86 223> 533 151<205.5 232>
VStem: 143 151<594 622>
LayerCount: 2
Fore
SplineSet
43 52 m 0
 43 71 49 93 58 122 c 2
 171 480 l 1
 223 480 l 1
 202 125 l 2
 197 37 172 -7 106 -7 c 0
 66 -7 43 15 43 52 c 0
143 599 m 0
 143 645 183 684 228 684 c 0
 264 684 294 655 294 617 c 0
 294 571 254 533 210 533 c 0
 172 533 143 561 143 599 c 0
EndSplineSet
EndChar

StartChar: cent
Encoding: 162 162 96
Width: 586
Flags: HMW
HStem: -103 20 0 54<299 309> 455 54<332 341> 589 20<360 414 414 414>
VStem: 46 121<160.5 267.5 160.5 288>
LayerCount: 2
Fore
SplineSet
46 209 m 0
 46 367 162 493 341 509 c 1
 360 609 l 1
 414 609 l 1
 395 510 l 1
 459 505 506 496 535 481 c 1
 509 351 l 1
 448 351 l 1
 450 440 l 1
 430 451 408 457 385 458 c 1
 309 54 l 1
 333 55 358 60 384 71 c 1
 413 161 l 1
 477 161 l 1
 450 25 l 1
 401 9 351 1 299 0 c 1
 279 -103 l 1
 225 -103 l 1
 244 2 l 1
 119 18 46 98 46 209 c 0
167 201 m 0
 167 120 199 70 257 56 c 1
 332 455 l 1
 236 436 167 334 167 201 c 0
EndSplineSet
EndChar

StartChar: sterling
Encoding: 163 163 97
Width: 586
Flags: HMW
HStem: 0 100<122 122 225 478> 299 60<76 138 69 144 267 439> 625 51<371 416 415 422>
VStem: 144 123<359 359>
LayerCount: 2
Fore
SplineSet
-11 0 m 1
 -2 75 l 1
 92 92 123 159 138 299 c 1
 69 299 l 1
 76 359 l 1
 144 359 l 1
 158 565 259 676 413 676 c 0
 504 676 562 627 562 574 c 0
 562 535 531 508 480 508 c 0
 474 508 467 508 461 509 c 1
 422 625 l 1
 419 625 417 625 415 625 c 0
 327 625 283 538 267 359 c 1
 447 359 l 1
 439 299 l 1
 258 299 l 1
 246 207 202 143 122 100 c 1
 125 94 l 1
 167 99 201 100 225 100 c 2
 490 100 l 1
 478 0 l 1
 -11 0 l 1
EndSplineSet
EndChar

StartChar: fraction
Encoding: 8260 8260 98
Width: 167
Flags: HMW
HStem: 0 671<-190 353 -190 353>
VStem: -190 543
LayerCount: 2
Fore
SplineSet
-190 0 m 1
 283 671 l 1
 353 671 l 1
 -120 0 l 1
 -190 0 l 1
EndSplineSet
EndChar

StartChar: yen
Encoding: 165 165 99
Width: 601
Flags: HMW
HStem: 0 49<99 392 99 99> 234 49<10 219 10 220 10 219 347 556> 378 50<37 166 37 187 37 166 458 585> 619 49<49 312 49 312>
VStem: 10 641<234 668 283 668>
LayerCount: 2
Fore
SplineSet
10 234 m 1
 10 283 l 1
 219 283 l 1
 187 378 l 1
 37 378 l 1
 37 428 l 1
 166 428 l 1
 105 609 l 1
 49 619 l 1
 49 668 l 1
 312 668 l 1
 312 619 l 1
 251 613 l 1
 240 602 l 1
 325 349 l 1
 502 593 l 1
 498 609 l 1
 449 620 l 1
 449 668 l 1
 651 668 l 1
 651 619 l 1
 591 608 l 1
 458 428 l 1
 585 428 l 1
 585 378 l 1
 417 378 l 1
 347 283 l 1
 556 283 l 1
 556 234 l 1
 341 234 l 1
 312 69 l 1
 326 54 l 1
 392 49 l 1
 392 0 l 1
 99 0 l 1
 99 49 l 1
 170 54 l 1
 191 69 l 1
 220 234 l 1
 10 234 l 1
EndSplineSet
EndChar

StartChar: florin
Encoding: 402 402 100
Width: 586
Flags: HMW
HStem: -148 56<-5.5 91> 309 60<109 213 103 221 344 491> 628 55<434 526.5>
VStem: -63 648
LayerCount: 2
Fore
SplineSet
-63 -89 m 0
 -63 -58 -39 -26 5 -7 c 1
 91 -92 l 1
 139 -54 159 11 176 105 c 2
 213 309 l 1
 103 309 l 1
 109 369 l 1
 221 369 l 1
 235 441 l 2
 252 528 290 587 358 634 c 0
 403 665 462 683 501 683 c 0
 552 683 585 655 585 617 c 0
 585 584 559 555 509 533 c 1
 434 628 l 1
 389 595 374 541 360 463 c 2
 344 369 l 1
 497 369 l 1
 491 309 l 1
 334 309 l 1
 311 130 272 7 192 -69 c 0
 137 -121 74 -148 20 -148 c 0
 -31 -148 -63 -122 -63 -89 c 0
EndSplineSet
EndChar

StartChar: section
Encoding: 167 167 101
Width: 500
Flags: HMW
HStem: -141 52<139.5 187 139.5 215.5> 669 51<299.5 345>
VStem: 34 93<272.5 298.5> 356 95<294.5 316>
LayerCount: 2
Fore
SplineSet
-10 -109 m 1
 14 28 l 1
 71 28 l 1
 68 -64 l 1
 97 -81 125 -89 154 -89 c 0
 220 -89 268 -45 268 2 c 0
 268 59 211 77 127 122 c 0
 64 156 34 199 34 260 c 0
 34 337 86 405 184 443 c 1
 132 474 108 505 108 551 c 0
 108 647 197 720 342 720 c 0
 390 720 438 711 489 695 c 1
 465 559 l 1
 411 559 l 1
 416 641 l 1
 387 659 359 669 331 669 c 0
 268 669 219 625 219 579 c 0
 219 528 267 515 342 474 c 0
 416 433 451 392 451 330 c 0
 451 259 395 182 298 144 c 1
 352 112 377 80 377 36 c 0
 377 -60 287 -141 144 -141 c 0
 91 -141 40 -130 -10 -109 c 1
127 300 m 0
 127 245 169 215 254 172 c 1
 322 207 356 249 356 292 c 0
 356 340 314 378 231 416 c 1
 163 391 127 348 127 300 c 0
EndSplineSet
EndChar

StartChar: currency
Encoding: 164 164 102
Width: 606
Flags: HMW
HStem: 226 65<281 327> 574 65<280 326 280 343>
VStem: 97 65<409.5 454.5> 446 64<409.5 454.5 409.5 470.5>
LayerCount: 2
Fore
SplineSet
37 211 m 1
 136 311 l 1
 110 346 97 387 97 432 c 0
 97 477 110 518 136 553 c 1
 37 653 l 1
 82 698 l 1
 181 599 l 1
 217 626 257 639 303 639 c 0
 349 639 390 626 426 599 c 1
 525 698 l 1
 571 653 l 1
 471 553 l 1
 497 518 510 477 510 432 c 0
 510 387 497 346 471 311 c 1
 571 211 l 1
 525 166 l 1
 426 266 l 1
 389 239 350 226 304 226 c 0
 258 226 217 239 181 266 c 1
 82 166 l 1
 37 211 l 1
162 432 m 0
 162 354 225 291 304 291 c 0
 383 291 446 354 446 432 c 0
 446 509 382 574 304 574 c 0
 226 574 162 509 162 432 c 0
EndSplineSet
EndChar

StartChar: quotesingle
Encoding: 39 39 103
Width: 175
Flags: HMW
HStem: 418 296<78 78 78 97>
VStem: 41 93<658 678>
LayerCount: 2
Fore
SplineSet
41 661 m 0
 41 695 58 714 87 714 c 0
 117 714 134 696 134 661 c 0
 134 655 134 648 133 642 c 2
 97 418 l 1
 78 418 l 1
 42 642 l 2
 41 649 41 655 41 661 c 0
EndSplineSet
EndChar

StartChar: quotedblleft
Encoding: 8220 8220 104
Width: 481
Flags: HMW
HStem: 395 303<128 267 267 395.5>
VStem: 78 156<455.5 485.5 455.5 515.5> 298 157<456.5 485.5 456.5 515>
LayerCount: 2
Fore
SplineSet
78 475 m 0
 78 556 145 649 267 698 c 1
 282 668 l 1
 205 626 165 575 162 515 c 1
 223 515 l 1
 230 504 234 492 234 479 c 0
 234 432 198 395 151 395 c 0
 105 395 78 426 78 475 c 0
298 474 m 0
 298 556 365 649 487 698 c 1
 503 668 l 1
 421 622 386 570 383 515 c 1
 444 515 l 1
 451 503 455 492 455 479 c 0
 455 434 419 395 372 395 c 0
 327 395 298 426 298 474 c 0
EndSplineSet
EndChar

StartChar: guilsinglleft
Encoding: 8249 8249 106
Width: 266
Flags: HMW
HStem: 55 370<159 227>
VStem: 10 217
LayerCount: 2
Fore
SplineSet
10 198 m 1
 26 282 l 1
 227 425 l 1
 212 342 l 1
 83 240 l 1
 174 138 l 1
 159 55 l 1
 10 198 l 1
EndSplineSet
EndChar

StartChar: guilsinglright
Encoding: 8250 8250 107
Width: 266
Flags: HMW
HStem: 55 370<-13 55>
VStem: -13 217
LayerCount: 2
Fore
SplineSet
-13 55 m 1
 2 138 l 1
 131 240 l 1
 40 342 l 1
 55 425 l 1
 204 282 l 1
 188 198 l 1
 -13 55 l 1
EndSplineSet
EndChar

StartChar: fi
Encoding: 64257 64257 108
Width: 621
Flags: HW
HStem: -214 68<-104 -6> -7 66<403.5 538> 409 58<225 417> 587 134<511 543> 686 48<300 300>
VStem: -154 748
LayerCount: 2
Fore
SplineSet
-154 -152 m 0
 -154 -124 -139 -101 -113 -89 c 1
 -6 -146 l 1
 27 -100 42 -17 59 102 c 2
 102 408 l 1
 36 400 l 1
 36 444 l 1
 114 478 l 1
 142 638 247 734 352 734 c 0
 408 734 442 705 442 669 c 0
 442 642 423 616 389 602 c 1xec
 300 686 l 1
 271 651 245 577 225 467 c 1
 411 467 l 1
 506 493 l 1
 550 493 l 1
 486 155 l 2
 483 140 481 126 481 114 c 0
 481 78 498 59 530 59 c 0
 546 59 569 64 599 73 c 1
 599 32 l 1
 536 7 481 -7 428 -7 c 0
 379 -7 354 20 354 71 c 0
 354 90 358 112 363 138 c 2
 417 409 l 1
 217 410 l 1
 180 147 l 2
 167 58 146 -15 108 -75 c 0
 51 -165 -23 -214 -84 -214 c 0
 -124 -214 -154 -187 -154 -152 c 0
459 648 m 0
 459 689 491 721 531 721 c 0x14
 570 721 594 695 594 658 c 0
 594 618 563 587 523 587 c 0
 486 587 459 612 459 648 c 0
EndSplineSet
EndChar

StartChar: fl
Encoding: 64258 64258 109
Width: 629
Flags: HMW
HStem: -214 68<-105 -7> -9 63<418.5 536.5> 409 58<224 352 224 352 217 352> 686 47<300 300>
VStem: -154 750
LayerCount: 2
Fore
SplineSet
-154 -152 m 0
 -154 -124 -140 -101 -114 -89 c 1
 -7 -146 l 1
 26 -100 41 -17 58 102 c 2
 102 408 l 1
 36 400 l 1
 36 444 l 1
 114 478 l 1
 142 637 245 733 353 733 c 0
 390 733 416 723 433 703 c 1
 553 736 l 1
 596 736 l 1
 589 702 586 682 585 677 c 2
 492 187 l 2
 485 149 481 122 481 105 c 0
 481 70 497 54 530 54 c 0
 543 54 567 59 602 70 c 1
 602 31 l 1
 529 2 476 -9 449 -9 c 0
 388 -9 359 20 359 81 c 0
 359 105 365 137 373 179 c 2
 464 650 l 1
 426 653 l 1
 381 605 l 1
 300 686 l 1
 271 651 244 577 224 467 c 1
 352 467 l 1
 352 409 l 1
 217 409 l 1
 180 147 l 2
 167 57 146 -15 108 -75 c 0
 51 -165 -24 -214 -85 -214 c 0
 -125 -214 -154 -187 -154 -152 c 0
EndSplineSet
EndChar

StartChar: endash
Encoding: 8211 8211 110
Width: 500
Flags: HMW
HStem: 196 90<-9 481 -25 498>
VStem: -25 523<196 286>
LayerCount: 2
Fore
SplineSet
-25 196 m 1
 -9 286 l 1
 498 286 l 1
 481 196 l 1
 -25 196 l 1
EndSplineSet
EndChar

StartChar: dagger
Encoding: 8224 8224 111
Width: 500
Flags: HMW
HStem: -129 20 459 43<273 282 282 282> 698 20<322 322>
LayerCount: 2
Fore
SplineSet
45 483 m 1
 125 538 l 1
 261 490 l 1
 257 471 l 1
 106 428 l 1
 45 483 l 1
152 -129 m 1
 181 294 l 1
 265 459 l 1
 282 459 l 1
 303 294 l 1
 170 -129 l 1
 152 -129 l 1
252 642 m 1
 322 718 l 1
 364 642 l 1
 290 502 l 1
 273 502 l 1
 252 642 l 1
294 471 m 1
 297 490 l 1
 447 538 l 1
 510 483 l 1
 428 428 l 1
 294 471 l 1
EndSplineSet
EndChar

StartChar: daggerdbl
Encoding: 8225 8225 112
Width: 500
Flags: HW
HStem: -132 20 84 43<204 212 212 212> 460 42<275 282 282 282> 698 20<323 323>
LayerCount: 2
Fore
SplineSet
-25 106 m 1
 55 159 l 1
 191 112 l 1
 188 94 l 1
 36 52 l 1
 -25 106 l 1
45 483 m 1
 125 537 l 1
 261 490 l 1
 257 471 l 1
 106 430 l 1
 45 483 l 1
124 -56 m 1
 196 84 l 1xf0
 212 84 l 1
 230 -56 l 1
 162 -132 l 1
 124 -56 l 1
178 294 m 1
 267 460 l 1
 282 460 l 1
 305 294 l 1
 219 127 l 1
 204 127 l 1
 178 294 l 1
224 94 m 1
 228 112 l 1
 377 159 l 1
 441 106 l 1
 358 52 l 1
 224 94 l 1
256 642 m 1
 323 718 l 1
 363 642 l 1
 291 502 l 1
 275 502 l 1
 256 642 l 1
294 471 m 1
 297 490 l 1
 447 537 l 1xf0
 510 483 l 1
 428 430 l 1
 294 471 l 1
EndSplineSet
EndChar

StartChar: periodcentered
Encoding: 183 183 113
Width: 292
Flags: HMW
HStem: 259 154<125.5 167>
VStem: 71 152<313.5 356.5>
LayerCount: 2
Fore
SplineSet
71 335 m 0
 71 378 105 413 146 413 c 0
 188 413 223 379 223 335 c 0
 223 292 188 259 146 259 c 0
 105 259 71 292 71 335 c 0
EndSplineSet
EndChar

StartChar: paragraph
Encoding: 182 182 114
Width: 492
Flags: HMW
HStem: -79 20 628 43<267 466>
VStem: 19 255<395.5 537.5> 347 57<-79 618 -79 623 -79 623>
LayerCount: 2
Fore
SplineSet
19 464 m 0
 19 611 98 671 267 671 c 2
 466 671 l 1
 466 628 l 1
 404 618 l 1
 404 -79 l 1
 347 -79 l 1
 347 623 l 1
 274 623 l 1
 274 262 l 1
 269 262 264 262 259 262 c 0
 97 262 19 327 19 464 c 0
EndSplineSet
EndChar

StartChar: bullet
Encoding: 8226 8226 115
Width: 590
Flags: MW
HStem: 227 289<255 334>
VStem: 150 289<332.5 412 332.5 412>
LayerCount: 2
Fore
SplineSet
150 372 m 0
 150 452 215 516 295 516 c 0
 374 516 439 452 439 372 c 0
 439 293 374 227 294 227 c 0
 214 227 150 292 150 372 c 0
EndSplineSet
EndChar

StartChar: quotesinglbase
Encoding: 8218 8218 116
Width: 261
Flags: HMW
HStem: -174 303<-37 99.5>
VStem: -5 156<39.5 69>
LayerCount: 2
Fore
SplineSet
-54 -144 m 1
 22 -102 62 -50 66 10 c 1
 6 10 l 1
 -1 21 -5 33 -5 46 c 0
 -5 92 30 129 77 129 c 0
 122 129 151 99 151 51 c 0
 151 -32 85 -125 -37 -174 c 1
 -54 -144 l 1
EndSplineSet
EndChar

StartChar: quotedblbase
Encoding: 8222 8222 117
Width: 481
Flags: HMW
HStem: -174 303<-35 103 56.5 186>
VStem: -2 156<39.5 69> 219 156<38.5 68.5>
LayerCount: 2
Fore
SplineSet
-51 -144 m 1
 25 -102 65 -50 69 10 c 1
 9 10 l 1
 2 21 -2 33 -2 46 c 0
 -2 92 33 129 80 129 c 0
 126 129 154 99 154 51 c 0
 154 -31 87 -125 -35 -174 c 1
 -51 -144 l 1
170 -144 m 1
 247 -101 287 -50 290 10 c 1
 230 10 l 1
 222 20 219 32 219 45 c 0
 219 92 254 129 301 129 c 0
 347 129 375 99 375 51 c 0
 375 -30 308 -125 186 -174 c 1
 170 -144 l 1
EndSplineSet
EndChar

StartChar: quotedblright
Encoding: 8221 8221 118
Width: 481
Flags: HMW
HStem: 395 303<80 217.5 171.5 301>
VStem: 113 156<608.5 637.5> 334 156<608.5 638>
LayerCount: 2
Fore
SplineSet
64 425 m 1
 141 467 181 519 184 578 c 1
 124 578 l 1
 117 590 113 602 113 615 c 0
 113 660 148 698 195 698 c 0
 240 698 269 667 269 619 c 0
 269 537 202 444 80 395 c 1
 64 425 l 1
285 425 m 1
 362 467 402 519 405 578 c 1
 344 578 l 1
 337 589 334 602 334 615 c 0
 334 661 369 698 416 698 c 0
 461 698 490 668 490 619 c 0
 490 537 423 444 301 395 c 1
 285 425 l 1
EndSplineSet
EndChar

StartChar: guillemotright
Encoding: 187 187 119
Width: 450
Flags: HW
HStem: 55 370<-13 55 55 188>
VStem: -13 217 188 217<198 282>
LayerCount: 2
Fore
SplineSet
188 55 m 1
 203 138 l 1
 332 240 l 1
 241 342 l 1
 256 425 l 1xa0
 405 282 l 1
 390 198 l 1
 188 55 l 1
EndSplineSet
Refer: 107 8250 S 1 0 0 1 0 0 2
EndChar

StartChar: perthousand
Encoding: 8240 8240 121
Width: 1291
Flags: HW
HStem: -12 45<625 656 625 695 1022 1053> 263 45<180.5 222 180.5 250> 363 44<686 717 1082.5 1113> 638 45<240.5 271>
VStem: 55 93<363 421 363 487.5> 303 97<482.5 583.5> 501 93<87 145 87 212.5> 749 97<249 306.5 181 308.5> 897 94<87.5 146 87.5 212> 1146 97<249 305.5 180.5 308>
LayerCount: 2
Fore
SplineSet
55 403 m 0
 55 572 146 683 265 683 c 0
 348 683 400 626 400 543 c 0
 400 375 310 263 190 263 c 0
 108 263 55 319 55 403 c 0
142 0 m 1
 681 671 l 1
 757 671 l 1
 218 0 l 1
 142 0 l 1
148 390 m 0
 148 336 164 308 197 308 c 0
 247 308 303 409 303 556 c 0
 303 611 287 638 255 638 c 0xffc0
 226 638 202 615 183 569 c 0
 161 518 148 452 148 390 c 0
501 129 m 0
 501 296 592 407 711 407 c 0
 795 407 846 352 846 261 c 0
 846 101 754 -12 636 -12 c 0
 553 -12 501 45 501 129 c 0
594 114 m 0
 594 60 609 33 641 33 c 0
 671 33 695 56 715 102 c 0
 736 150 749 217 749 281 c 0
 749 336 733 363 701 363 c 0
 671 363 648 340 629 294 c 0
 607 241 594 176 594 114 c 0
897 128 m 0
 897 296 989 407 1108 407 c 0
 1192 407 1243 351 1243 260 c 0
 1243 101 1151 -12 1032 -12 c 0
 949 -12 897 44 897 128 c 0
991 115 m 0
 991 60 1006 33 1038 33 c 0
 1068 33 1091 56 1111 102 c 0
 1131 150 1146 217 1146 281 c 0
 1146 335 1129 363 1097 363 c 0
 1068 363 1044 340 1025 294 c 0
 1003 241 991 177 991 115 c 0
EndSplineSet
EndChar

StartChar: questiondown
Encoding: 191 191 122
Width: 492
Flags: HMW
HStem: -7 58<244 247 244 259> 531 152<304.5 344.5 304.5 345.5>
VStem: 6 130<116.5 191.5 116.5 200> 250 150<587 629 587 629>
LayerCount: 2
Fore
SplineSet
6 147 m 0
 6 253 92 341 259 392 c 1
 276 483 l 1
 341 483 l 1
 315 348 l 1
 198 310 136 236 136 147 c 0
 136 86 174 51 244 51 c 0
 245 51 246 51 247 51 c 2
 312 164 l 1
 320 165 328 166 335 166 c 0
 377 166 397 148 397 115 c 0
 397 54 320 -7 198 -7 c 0
 77 -7 6 53 6 147 c 0
250 608 m 0
 250 650 284 683 325 683 c 0
 364 683 400 650 400 608 c 0
 400 566 366 531 325 531 c 0
 283 531 250 565 250 608 c 0
EndSplineSet
EndChar

StartChar: grave
Encoding: 96 96 123
Width: 500
Flags: MW
HStem: 552 190<281 288 164 348 281 281>
VStem: 164 184
LayerCount: 2
Fore
SplineSet
164 742 m 1
 288 742 l 1
 348 552 l 1
 281 552 l 1
 164 742 l 1
EndSplineSet
EndChar

StartChar: acute
Encoding: 180 180 124
Width: 500
Flags: HMW
HStem: 552 190<248 505 248 505>
VStem: 248 257<552 742>
LayerCount: 2
Fore
SplineSet
248 552 m 1
 382 742 l 1
 505 742 l 1
 315 552 l 1
 248 552 l 1
EndSplineSet
EndChar

StartChar: circumflex
Encoding: 710 710 125
Width: 500
Flags: HMW
HStem: 552 190<138 372 138 372 369 372 285 446 369 369>
VStem: 138 308<552 552>
LayerCount: 2
Fore
SplineSet
138 552 m 1
 285 742 l 1
 372 742 l 1
 446 552 l 1
 369 552 l 1
 316 677 l 1
 216 552 l 1
 138 552 l 1
EndSplineSet
EndChar

StartChar: tilde
Encoding: 732 732 126
Width: 500
Flags: HMW
HStem: 570 152
VStem: 132 353<570 722>
LayerCount: 2
Fore
SplineSet
132 570 m 1
 144 658 187 706 245 706 c 0
 303 706 347 659 381 659 c 0
 410 659 426 680 432 722 c 1
 485 722 l 1
 472 634 430 587 373 587 c 0
 311 587 266 633 236 633 c 0
 210 633 192 611 187 570 c 1
 132 570 l 1
EndSplineSet
EndChar

StartChar: macron
Encoding: 175 175 127
Width: 500
Flags: HMW
HStem: 607 68<150 469 138 481>
VStem: 138 343<607 675>
LayerCount: 2
Fore
SplineSet
138 607 m 1
 150 675 l 1
 481 675 l 1
 469 607 l 1
 138 607 l 1
EndSplineSet
EndChar

StartChar: breve
Encoding: 728 728 128
Width: 500
Flags: HMW
HStem: 567 71<278 345 278 350.5>
VStem: 172 305<719 719>
LayerCount: 2
Fore
SplineSet
167 667 m 0
 167 680 169 698 172 719 c 1
 223 718 l 1
 222 704 222 696 222 692 c 0
 222 652 247 638 309 638 c 0
 381 638 413 656 426 718 c 1
 477 719 l 1
 458 611 405 567 296 567 c 0
 207 567 167 596 167 667 c 0
EndSplineSet
EndChar

StartChar: dotaccent
Encoding: 729 729 129
Width: 500
Flags: HMW
HStem: 576 137<285.5 321>
VStem: 237 132<625.5 663 625.5 663>
LayerCount: 2
Fore
SplineSet
237 644 m 0
 237 682 267 713 303 713 c 0
 339 713 369 682 369 644 c 0
 369 607 339 576 303 576 c 0
 268 576 237 606 237 644 c 0
EndSplineSet
EndChar

StartChar: dieresis
Encoding: 168 168 130
Width: 500
Flags: HMW
HStem: 579 131<184 218.5 390.5 425>
VStem: 138 127<626.5 662 626.5 662.5> 344 128<626 662.5>
LayerCount: 2
Fore
SplineSet
138 644 m 0
 138 681 166 710 201 710 c 0
 236 710 265 680 265 644 c 0
 265 609 236 579 201 579 c 0
 167 579 138 608 138 644 c 0
344 644 m 0
 344 681 373 710 408 710 c 0
 442 710 472 681 472 644 c 0
 472 608 443 579 408 579 c 0
 373 579 344 608 344 644 c 0
EndSplineSet
EndChar

StartChar: ring
Encoding: 730 730 131
Width: 500
Flags: HMW
HStem: 552 50<296 330.5 296 345> 729 50<296 331>
VStem: 200 50<648.5 684 648.5 698> 377 50<649 683.5>
LayerCount: 2
Fore
SplineSet
200 666 m 0
 200 730 249 779 313 779 c 0
 377 779 427 730 427 666 c 0
 427 603 377 552 313 552 c 0
 250 552 200 603 200 666 c 0
250 666 m 0
 250 631 279 602 313 602 c 0
 348 602 377 632 377 666 c 0
 377 701 349 729 313 729 c 0
 279 729 250 702 250 666 c 0
EndSplineSet
EndChar

StartChar: cedilla
Encoding: 184 184 132
Width: 500
Flags: HMW
HStem: -230 50<124 149.5 119.5 179> -110 54<153 232.5>
VStem: 196 82<-146 -128>
LayerCount: 2
Fore
SplineSet
58 -219 m 1
 67 -172 l 1
 91 -177 112 -180 127 -180 c 0
 172 -180 196 -162 196 -136 c 0
 196 -120 182 -110 156 -110 c 0
 150 -110 143 -111 135 -112 c 1
 156 0 l 1
 205 0 l 1
 194 -57 l 1
 200 -56 205 -56 210 -56 c 0
 255 -56 278 -76 278 -115 c 0
 278 -177 221 -230 137 -230 c 0
 111 -230 85 -226 58 -219 c 1
EndSplineSet
EndChar

StartChar: hungarumlaut
Encoding: 733 733 133
Width: 500
Flags: HW
HStem: 552 190<150 396 150 396 282 396 284 349>
VStem: 150 246<552 742> 282 295<552 742>
LayerCount: 2
Fore
SplineSet
150 552 m 1
 284 742 l 1xc0
 396 742 l 1
 209 552 l 1
 150 552 l 1
282 552 m 1
 450 742 l 1xa0
 577 742 l 1
 349 552 l 1
 282 552 l 1
EndSplineSet
EndChar

StartChar: ogonek
Encoding: 731 731 134
Width: 500
Flags: HMW
HStem: -224 72<143.5 213.5> -20 20<180 234 234 234>
VStem: 83 81<-179 -98>
LayerCount: 2
Fore
SplineSet
83 -159 m 0
 83 -107 116 -49 180 0 c 1
 234 0 l 1
 187 -37 164 -78 164 -118 c 0
 164 -137 181 -152 210 -152 c 0
 217 -152 228 -151 242 -149 c 1
 229 -217 l 1
 209 -222 191 -224 173 -224 c 0
 114 -224 83 -199 83 -159 c 0
EndSplineSet
EndChar

StartChar: caron
Encoding: 711 711 135
Width: 500
Flags: MW
HStem: 551 190<248 252 175 336 248 248>
VStem: 175 307<741 741>
LayerCount: 2
Fore
SplineSet
175 741 m 1
 252 741 l 1
 304 616 l 1
 405 741 l 1
 482 741 l 1
 336 551 l 1
 248 551 l 1
 175 741 l 1
EndSplineSet
EndChar

StartChar: emdash
Encoding: 8212 8212 136
Width: 1000
Flags: HMW
HStem: 196 90<-5 986 -22 1000>
VStem: -22 1022<196 286>
LayerCount: 2
Fore
SplineSet
-22 196 m 1
 -5 286 l 1
 1000 286 l 1
 986 196 l 1
 -22 196 l 1
EndSplineSet
EndChar

StartChar: AE
Encoding: 198 198 137
Width: 894
Flags: HMW
HStem: 0 58<498 718 498 801> 252 57<238 413 195 425> 318 57<557 664 547 676> 614 57<603 787 603 603>
VStem: -102 997<0 671 48 671>
LayerCount: 2
Fore
SplineSet
-102 0 m 1
 -102 48 l 1
 -36 61 l 1
 383 602 l 1
 375 616 l 1
 314 623 l 1
 314 671 l 1
 895 671 l 1
 863 514 l 1
 800 514 l 1
 798 599 l 1
 787 614 l 1
 603 614 l 1
 557 375 l 1
 676 375 l 1
 692 390 l 1
 715 462 l 1
 772 462 l 1
 728 231 l 1
 675 231 l 1
 675 304 l 1
 664 318 l 1
 547 318 l 1
 498 58 l 1
 718 58 l 1
 734 72 l 1
 770 179 l 1
 837 179 l 1
 801 0 l 1
 300 0 l 1
 300 47 l 1
 362 54 l 1
 378 70 l 1
 413 252 l 1
 195 252 l 1
 57 71 l 1
 61 56 l 1
 123 48 l 1
 123 0 l 1
 -102 0 l 1
238 309 m 1
 425 309 l 1
 484 631 l 1
 238 309 l 1
EndSplineSet
EndChar

StartChar: ordfeminine
Encoding: 170 170 138
Width: 429
Flags: HMW
HStem: 319 57<88 178.5> 637 34<203 239 191.5 240>
VStem: 14 96<430 472>
LayerCount: 2
Fore
SplineSet
14 447 m 0
 14 497 29 543 59 586 c 0
 96 639 158 671 225 671 c 0
 253 671 281 664 312 653 c 1
 340 670 l 1
 384 670 l 1
 380 657 370 622 359 564 c 2
 336 450 l 2
 332 427 329 410 329 401 c 0
 329 377 344 363 361 363 c 0
 376 363 392 366 410 371 c 1
 410 345 l 1
 363 329 326 321 297 321 c 0
 260 321 241 338 241 372 c 0
 241 373 241 374 241 375 c 1
 199 338 158 319 122 319 c 0
 54 319 14 366 14 447 c 0
110 457 m 0
 110 403 130 376 167 376 c 0
 190 376 214 387 242 409 c 1
 278 594 l 1
 248 636 l 1
 245 636 242 637 238 637 c 0
 168 637 110 563 110 457 c 0
EndSplineSet
EndChar

StartChar: Lslash
Encoding: 321 321 139
Width: 529
Flags: HMW
HStem: 0 58<178 359 178 450> 623 48<81 360>
VStem: -25 513<0 197 48 197>
LayerCount: 2
Fore
SplineSet
-25 0 m 1
 -25 48 l 1
 37 54 l 1
 53 67 l 1
 94 287 l 1
 29 250 l 1
 7 299 l 1
 107 356 l 1
 154 605 l 1
 144 619 l 1
 81 624 l 1
 81 671 l 1
 360 671 l 1
 360 623 l 1
 297 618 l 1
 280 605 l 1
 247 430 l 1
 345 485 l 1
 371 437 l 1
 235 362 l 1
 178 58 l 1
 359 58 l 1
 377 72 l 1
 416 197 l 1
 488 197 l 1
 450 0 l 1
 -25 0 l 1
EndSplineSet
EndChar

StartChar: Oslash
Encoding: 216 216 140
Width: 729
Flags: HMW
HStem: -13 58<303.5 354.5 303.5 366> 626 57<372.5 423>
VStem: 37 133<241 310.5 241 314> 556 134<360.5 441>
LayerCount: 2
Fore
SplineSet
37 256 m 0
 37 372 71 471 140 554 c 0
 208 636 308 683 417 683 c 0
 464 683 505 675 540 658 c 1
 601 750 l 1
 643 722 l 1
 584 633 l 1
 654 580 690 503 690 409 c 0
 690 302 655 199 590 120 c 0
 519 33 421 -13 311 -13 c 0
 258 -13 211 -2 171 20 c 1
 103 -81 l 1
 66 -50 l 1
 130 47 l 1
 69 103 37 176 37 256 c 0
170 263 m 0
 170 219 177 177 192 137 c 1
 496 593 l 1
 471 615 441 626 405 626 c 0
 340 626 289 593 244 524 c 0
 199 456 170 358 170 263 c 0
221 91 m 1
 249 60 283 45 324 45 c 0
 385 45 439 78 484 146 c 0
 527 211 556 308 556 413 c 0
 556 469 547 514 526 550 c 1
 221 91 l 1
EndSplineSet
EndChar

StartChar: OE
Encoding: 338 338 141
Width: 1003
Flags: HW
HStem: -12 65<278 322> 0 58<602 822 602 906> 318 57<662 766 651 778> 613 58<707 890 707 707> 619 64<372 433.5 353 444>
VStem: 38 139<191 300.5 191 322.5>
LayerCount: 2
Fore
SplineSet
38 251 m 0
 38 394 90 518 181 600 c 0
 241 654 315 683 391 683 c 0
 476 683 538 647 577 576 c 1
 594 671 l 1
 998 671 l 1
 967 515 l 1
 903 515 l 1
 902 600 l 1
 890 613 l 1
 707 613 l 1
 662 375 l 1
 778 375 l 1
 796 389 l 1
 819 462 l 1
 876 462 l 1
 832 231 l 1
 778 231 l 1
 779 305 l 1
 766 318 l 1
 651 318 l 1
 602 58 l 1
 822 58 l 1
 836 72 l 1
 875 180 l 1
 941 180 l 1
 906 0 l 1
 470 0 l 1x70
 483 73 l 1
 421 16 358 -12 286 -12 c 0
 137 -12 38 95 38 251 c 0
177 255 m 0
 177 127 235 53 321 53 c 0
 379 53 434 90 477 161 c 0
 517 227 544 322 544 418 c 0x8c
 544 546 487 619 401 619 c 0
 343 619 289 582 245 509 c 0
 203 440 177 346 177 255 c 0
EndSplineSet
EndChar

StartChar: ordmasculine
Encoding: 186 186 142
Width: 413
Flags: HMW
HStem: 317 37<154.5 194.5> 634 36<196.5 235.5>
VStem: 14 97<419.5 490> 279 97<497.5 567.5>
LayerCount: 2
Fore
SplineSet
14 463 m 0
 14 517 38 573 80 613 c 1
 117 650 169 670 224 670 c 0
 317 670 376 614 376 526 c 0
 376 469 353 414 311 373 c 0
 273 337 222 317 167 317 c 0
 73 317 14 374 14 463 c 0
111 452 m 0
 111 387 134 354 175 354 c 0
 230 354 279 426 279 534 c 0
 279 601 257 634 214 634 c 0
 160 634 111 562 111 452 c 0
EndSplineSet
EndChar

StartChar: ae
Encoding: 230 230 143
Width: 719
Flags: HW
HStem: -8 77<82.5 205.5> 224 43 238 48 443 51<537.5 546>
VStem: 5 124<110 153> 284 115<167 189> 579 105<364.5 409>
LayerCount: 2
Fore
SplineSet
5 100 m 0
 5 206 102 262 301 286 c 1xac
 311 338 l 2
 313 348 314 360 314 373 c 0
 314 416 288 440 243 440 c 0
 231 440 217 438 200 434 c 1
 181 337 l 1
 85 337 l 2
 67 337 58 342 58 355 c 0
 58 425 148 493 270 493 c 0
 332 493 372 480 403 434 c 1
 462 472 511 494 564 494 c 0
 639 494 684 451 684 385 c 0
 684 288 587 224 408 224 c 0
 406 224 403 224 400 224 c 1
 399 215 399 207 399 199 c 0
 399 113 438 68 505 68 c 0
 550 68 601 92 659 139 c 1
 659 77 l 1
 588 20 516 -9 450 -9 c 0
 386 -9 338 17 308 68 c 1x56
 241 17 181 -8 116 -8 c 0
 49 -8 5 36 5 100 c 0
129 129 m 0
 129 91 152 69 192 69 c 0
 219 69 253 81 293 106 c 1xac
 287 131 284 155 284 179 c 0
 284 199 286 218 290 238 c 1
 182 223 129 190 129 129 c 0
404 267 m 1x56
 516 277 579 335 579 394 c 0
 579 424 560 443 532 443 c 0
 483 443 429 382 404 267 c 1x56
EndSplineSet
EndChar

StartChar: dotlessi
Encoding: 305 305 144
Width: 318
Flags: HMW
HStem: -7 66<97.5 231.5> 420 36<29 29> 473 20<200 244 244 244>
DStem2: 57 138 180 155 0.186043 0.982542<-1.16416 274.35>
LayerCount: 2
Fore
SplineSet
29 420 m 1
 29 456 l 1
 200 493 l 1
 244 493 l 1
 180 155 l 2
 177 138 175 124 175 114 c 0
 175 78 192 59 224 59 c 0
 239 59 263 64 293 73 c 1
 293 32 l 1
 230 7 175 -7 122 -7 c 0
 73 -7 48 20 48 71 c 0
 48 88 52 111 57 138 c 2
 111 407 l 1
 29 420 l 1
EndSplineSet
EndChar

StartChar: lslash
Encoding: 322 322 145
Width: 307
Flags: HMW
HStem: -9 64<92 210.5> 664 33<55 55> 716 20<231 275 275 275>
VStem: 38 120<51.5 115.5>
LayerCount: 2
Fore
SplineSet
-16 316 m 1
 87 371 l 1
 142 653 l 1
 55 664 l 1
 55 697 l 1
 231 736 l 1
 275 736 l 1
 267 689 260 654 256 633 c 2
 219 440 l 1
 309 487 l 1
 331 443 l 1
 207 378 l 1
 169 179 l 2
 163 149 158 125 158 106 c 0
 158 75 176 55 199 55 c 0
 222 55 249 60 280 70 c 1
 280 31 l 1
 207 5 154 -9 119 -9 c 0
 65 -9 38 22 38 81 c 0
 38 95 39 109 42 125 c 2
 76 311 l 1
 4 271 l 1
 -16 316 l 1
EndSplineSet
EndChar

StartChar: oslash
Encoding: 248 248 146
Width: 550
Flags: HMW
HStem: -11 50<221 259> 443 50<264 300>
VStem: 19 122<176.5 236.5> 379 122<245.5 310.5>
LayerCount: 2
Fore
SplineSet
19 196 m 0
 19 277 51 356 108 414 c 0
 159 466 225 493 303 493 c 0
 333 493 358 489 381 479 c 1
 435 567 l 1
 472 542 l 1
 421 459 l 1
 473 424 501 364 501 287 c 0
 501 204 469 126 412 68 c 0
 362 17 295 -11 223 -11 c 0
 193 -11 166 -7 142 2 c 1
 87 -86 l 1
 51 -62 l 1
 101 21 l 1
 47 61 19 120 19 196 c 0
141 193 m 0
 141 160 145 129 153 103 c 1
 347 418 l 1
 331 435 312 443 288 443 c 0
 208 443 141 341 141 193 c 0
176 63 m 1
 189 47 208 39 234 39 c 0
 314 39 379 140 379 294 c 0
 379 327 376 354 368 374 c 1
 176 63 l 1
EndSplineSet
EndChar

StartChar: oe
Encoding: 339 339 147
Width: 795
Flags: HW
HStem: -10 53<206.5 242.5> -10 77<546.5 560> 226 42 442 51<608.5 622>
VStem: 20 129<136 234.5> 366 108<158 348> 654 105<364 409>
LayerCount: 2
Fore
SplineSet
20 192 m 0
 20 277 52 357 105 412 c 0
 156 464 224 494 292 494 c 0
 366 494 418 468 454 412 c 1
 511 466 575 493 642 493 c 0
 713 493 759 449 759 385 c 0
 759 290 664 226 494 226 c 0
 488 226 482 226 475 226 c 1
 474 217 474 208 474 200 c 0
 474 116 514 67 579 67 c 0x76
 623 67 676 91 735 140 c 1
 735 78 l 1
 662 19 592 -10 528 -10 c 0
 464 -10 415 17 391 64 c 1
 339 13 279 -10 206 -10 c 0
 96 -10 20 71 20 192 c 0
149 181 m 0
 149 91 181 43 232 43 c 0
 302 43 366 149 366 303 c 0
 366 393 335 442 287 442 c 0x9c
 212 442 149 337 149 181 c 0
479 268 m 1x76
 589 276 654 334 654 394 c 0
 654 424 636 442 608 442 c 0
 557 442 504 382 479 268 c 1x76
EndSplineSet
EndChar

StartChar: germandbls
Encoding: 223 223 148
Width: 622
Flags: HMW
HStem: -213 70<-109 -14> -10 52<373 409 373 434> 681 56<339.5 408.5>
VStem: 285 117<368 374> 464 108<110 133>
LayerCount: 2
Fore
SplineSet
-161 -148 m 0
 -161 -121 -147 -99 -121 -87 c 1
 -14 -143 l 1
 22 -94 39 -5 57 124 c 2
 97 407 l 2
 128 626 231 737 400 737 c 0
 503 737 565 679 565 588 c 0
 565 554 556 510 539 454 c 1
 529 455 519 455 510 455 c 0
 438 455 402 431 402 383 c 0
 402 353 425 333 463 304 c 0
 525 256 572 227 572 157 c 0
 572 63 490 -10 378 -10 c 0
 286 -10 224 40 224 91 c 0
 224 132 250 158 288 158 c 0
 307 158 324 149 340 133 c 1
 323 66 l 1
 341 50 362 42 384 42 c 0
 434 42 464 71 464 112 c 0
 464 154 434 174 387 207 c 0
 323 252 285 284 285 336 c 0
 285 412 340 470 433 484 c 1
 449 533 456 572 456 603 c 0
 456 653 431 681 386 681 c 0
 293 681 242 594 216 419 c 2
 178 159 l 2
 165 68 147 -6 109 -68 c 0
 52 -159 -28 -213 -89 -213 c 0
 -129 -213 -161 -185 -161 -148 c 0
EndSplineSet
EndChar

StartChar: Aring
Encoding: 197 197 153
Width: 634
Flags: HMW
HStem: 0 49<-68 147> 236 55<201 383 201 393 170 383> 657 20<339 442 442 442> 732 52<384.5 420 384.5 436> 919 52<385 421>
VStem: -68 353 338 130<833.5 871> 520 92
LayerCount: 2
Fore
SplineSet
-68 0 m 1
 -68 48 l 1
 -12 56 l 1
 339 677 l 1
 442 677 l 1
 545 67 l 1
 558 55 l 1
 612 49 l 1
 612 0 l 1
 349 0 l 1
 349 49 l 1
 410 55 l 1
 421 70 l 1
 393 236 l 1
 170 236 l 1
 79 68 l 1
 88 53 l 1
 147 49 l 1
 147 0 l 1
 -68 0 l 1
201 291 m 1
 383 291 l 1
 342 551 l 1
 201 291 l 1
285 852 m 0
 285 919 338 971 403 971 c 0
 469 971 520 920 520 852 c 0
 520 784 469 732 403 732 c 0
 338 732 285 785 285 852 c 0
338 852 m 0
 338 815 367 784 402 784 c 0
 438 784 468 815 468 852 c 0
 468 890 439 919 403 919 c 0
 367 919 338 890 338 852 c 0
EndSplineSet
EndChar

StartChar: aring
Encoding: 229 229 181
Width: 572
Flags: HMW
HStem: -8 81<117 237.5> 446 48<270.5 318.5 255.5 319.5> 546 50<310.5 344 310.5 358.5> 723 50<310.5 344>
VStem: 18 128<150 210> 215 51<641.5 677 641.5 692> 389 50<641.5 676.5>
LayerCount: 2
Fore
SplineSet
215 662 m 0
 215 722 265 773 327 773 c 0
 390 773 439 723 439 659 c 0
 439 595 390 546 327 546 c 0
 264 546 215 595 215 662 c 0
266 659 m 0
 266 624 294 596 327 596 c 0
 361 596 389 624 389 659 c 0
 389 694 361 723 327 723 c 0
 294 723 266 695 266 659 c 0
EndSplineSet
Refer: 65 97 S 1 0 0 1 0 0 2
EndChar

StartChar: trademark
Encoding: 8482 8482 205
Width: 817
Flags: HMW
HStem: 399 24<166 295 166 166> 637 25<158 202 158 158 259 304 259 259>
VStem: 202 57<430 637 430 637 430 637> 407 31<429 631 631 631> 636 55<429 631 429 632 429 632>
LayerCount: 2
Fore
SplineSet
114 588 m 1
 114 662 l 1
 348 662 l 1
 348 588 l 1
 319 588 l 1
 311 632 l 1
 304 637 l 1
 259 637 l 1
 259 430 l 1
 295 423 l 1
 295 399 l 1
 166 399 l 1
 166 423 l 1
 202 429 l 1
 202 637 l 1
 158 637 l 1
 150 632 l 1
 144 588 l 1
 114 588 l 1
375 399 m 1
 375 423 l 1
 407 429 l 1
 407 631 l 1
 375 637 l 1
 375 662 l 1
 489 662 l 1
 489 649 l 1
 550 478 l 1
 611 649 l 1
 611 662 l 1
 724 662 l 1
 724 637 l 1
 691 631 l 1
 691 429 l 1
 724 423 l 1
 724 399 l 1
 607 399 l 1
 607 423 l 1
 636 429 l 1
 636 632 l 1
 551 399 l 1
 521 399 l 1
 438 632 l 1
 438 429 l 1
 469 423 l 1
 469 399 l 1
 375 399 l 1
EndSplineSet
EndChar

StartChar: copyright
Encoding: 169 169 206
Width: 894
Flags: HMW
HStem: -50 46<406 498 406 500.5> 103 49<435.5 490 435.5 492> 525 49<435.5 489.5 393 492.5> 685 44<407.5 497>
VStem: 63 48<293 386 293 391.5> 216 110<281 393.5 281 407.5> 793 48<295 386>
LayerCount: 2
Fore
SplineSet
63 340 m 0
 63 443 102 539 176 614 c 0
 249 688 349 729 453 729 c 0
 555 729 657 687 730 613 c 0
 800 542 841 441 841 336 c 0
 841 237 799 137 722 61 c 0
 649 -11 554 -50 447 -50 c 0
 349 -50 251 -9 177 65 c 0
 102 139 63 235 63 340 c 0
111 340 m 0
 111 246 145 163 211 97 c 0
 278 31 360 -4 452 -4 c 0
 544 -4 628 31 692 97 c 0
 757 164 793 250 793 340 c 0
 793 432 756 521 693 584 c 0
 629 648 541 685 453 685 c 0
 362 685 275 648 211 583 c 0
 146 516 111 432 111 340 c 0
216 339 m 0
 216 476 317 574 469 574 c 0
 510 574 557 568 612 549 c 1
 612 428 l 1
 559 428 l 1
 544 507 l 1
 524 519 504 525 481 525 c 0
 390 525 326 450 326 337 c 0
 326 225 392 152 479 152 c 0
 501 152 522 158 545 168 c 1
 560 253 l 1
 612 253 l 1
 612 128 l 1
 564 111 515 103 469 103 c 0
 315 103 216 200 216 339 c 0
EndSplineSet
EndChar

StartChar: logicalnot
Encoding: 172 172 207
Width: 833
Flags: HMW
HStem: 340 81<124 628 124 709>
VStem: 628 81<176 340 340 340>
LayerCount: 2
Fore
SplineSet
124 340 m 1
 124 421 l 1
 709 421 l 1
 709 176 l 1
 628 176 l 1
 628 340 l 1
 124 340 l 1
EndSplineSet
EndChar

StartChar: registered
Encoding: 174 174 208
Width: 894
Flags: HMW
HStem: -50 46<405.5 498 405.5 500.5> 122 37<704 709> 313 41<398 455 398 455> 520 39<412.5 452.5> 685 44<408 498>
VStem: 63 48<296 388 296 391.5> 304 94<169 313 169 355 355 512 512 512> 528 103<421.5 462.5> 793 48<294.5 385>
LayerCount: 2
Fore
SplineSet
63 340 m 0
 63 443 102 539 176 614 c 0
 249 688 349 729 453 729 c 0
 555 729 657 687 730 613 c 0
 800 542 841 441 841 336 c 0
 841 237 799 137 722 61 c 0
 649 -11 554 -50 447 -50 c 0
 349 -50 251 -9 177 65 c 0
 102 139 63 235 63 340 c 0
111 344 m 0
 111 248 143 166 208 100 c 0
 276 31 359 -4 452 -4 c 0
 544 -4 627 31 692 97 c 0
 757 163 793 249 793 340 c 0
 793 430 757 518 696 581 c 0
 632 647 543 685 453 685 c 0
 363 685 276 649 211 583 c 0
 146 518 111 432 111 344 c 0
249 524 m 1
 249 559 l 1
 473 559 l 2
 578 559 631 522 631 451 c 0
 631 392 590 352 510 338 c 1
 588 323 598 277 620 219 c 0
 637 175 654 159 704 159 c 0
 706 159 707 159 709 159 c 1
 709 122 l 1
 681 118 661 116 648 116 c 0
 616 116 590 122 568 136 c 0
 528 162 524 201 509 242 c 0
 490 293 464 313 410 313 c 0
 406 313 402 313 398 313 c 1
 398 169 l 1
 456 158 l 1
 456 121 l 1
 252 121 l 1
 252 157 l 1
 304 169 l 1
 304 512 l 1
 249 524 l 1
398 355 m 1
 405 354 412 354 419 354 c 0
 491 354 528 384 528 436 c 0
 528 489 490 520 415 520 c 0
 410 520 404 519 398 519 c 1
 398 355 l 1
EndSplineSet
EndChar

StartChar: minus
Encoding: 8722 8722 209
Width: 833
Flags: HMW
HStem: 257 83<124 709 124 709>
VStem: 124 585<257 340 257 340>
LayerCount: 2
Fore
SplineSet
124 257 m 1
 124 340 l 1
 709 340 l 1
 709 257 l 1
 124 257 l 1
EndSplineSet
EndChar

StartChar: Eth
Encoding: 208 208 210
Width: 702
Flags: HMW
HStem: 0 57<181 222 222 225> 324 60<33 103 22 115 242 359> 615 56<285 285 285 339>
VStem: 520 140<370 481.5>
LayerCount: 2
Fore
SplineSet
-25 0 m 1
 -25 49 l 1
 41 54 l 1
 55 69 l 1
 103 324 l 1
 22 324 l 1
 33 384 l 1
 115 384 l 1
 156 603 l 1
 146 618 l 1
 82 623 l 1
 82 671 l 1
 352 671 l 2
 555 671 660 581 660 416 c 0
 660 299 615 188 536 108 c 0
 460 32 361 0 225 0 c 2
 -25 0 l 1
181 57 m 1
 222 57 l 2
 321 57 391 88 440 155 c 0
 488 221 520 321 520 419 c 0
 520 544 453 615 339 615 c 2
 285 615 l 1
 242 384 l 1
 371 384 l 1
 359 324 l 1
 230 324 l 1
 181 57 l 1
EndSplineSet
EndChar

StartChar: Thorn
Encoding: 222 222 211
Width: 576
Flags: HMW
HStem: 0 48<-26 251> 123 57<242.5 287 222.5 344.5> 487 56<276.5 314 314 325.5> 619 46<80 356 80 356>
VStem: 416 136<312 411>
LayerCount: 2
Fore
SplineSet
-26 0 m 1
 -26 49 l 1
 37 54 l 1
 52 67 l 1
 152 597 l 1
 142 614 l 1
 80 619 l 1
 80 665 l 1
 356 665 l 1
 356 619 l 1
 291 613 l 1
 278 600 l 1
 267 543 l 1
 314 543 l 2
 474 543 552 492 552 375 c 0
 552 231 438 123 251 123 c 0
 234 123 213 123 187 125 c 1
 177 69 l 1
 186 53 l 1
 251 48 l 1
 251 0 l 1
 -26 0 l 1
198 181 m 1
 208 180 218 180 227 180 c 0
 347 180 416 251 416 373 c 0
 416 449 371 487 280 487 c 0
 273 487 264 487 256 486 c 1
 198 181 l 1
EndSplineSet
EndChar

StartChar: brokenbar
Encoding: 166 166 213
Width: 500
Flags: HMW
HStem: -171 20 199 130<207 294 207 294> 679 20<207 294 294 294>
VStem: 207 87<-171 199 -171 199 329 699>
LayerCount: 2
Fore
SplineSet
207 -171 m 1
 207 199 l 1
 294 199 l 1
 294 -171 l 1
 207 -171 l 1
207 329 m 1
 207 699 l 1
 294 699 l 1
 294 329 l 1
 207 329 l 1
EndSplineSet
EndChar

StartChar: degree
Encoding: 176 176 214
Width: 329
Flags: HMW
HStem: 424 54<140 190.5 140 204.5> 659 54<140 190>
VStem: 21 53<544 594 544 608.5> 255 54<544.5 594>
LayerCount: 2
Fore
SplineSet
21 568 m 0
 21 649 85 713 165 713 c 0
 245 713 309 648 309 568 c 0
 309 490 245 424 164 424 c 0
 84 424 21 487 21 568 c 0
74 569 m 0
 74 519 115 478 165 478 c 0
 216 478 255 520 255 569 c 0
 255 619 215 659 165 659 c 0
 115 659 74 619 74 569 c 0
EndSplineSet
EndChar

StartChar: divide
Encoding: 247 247 215
Width: 833
Flags: HMW
HStem: 46 133<399 435.5 399 436> 258 81<124 709 124 709> 417 134<399 435.5 399 436>
VStem: 350 134<94 130.5 94 130.5 465 501.5>
LayerCount: 2
Fore
SplineSet
124 258 m 1
 124 339 l 1
 709 339 l 1
 709 258 l 1
 124 258 l 1
350 112 m 0
 350 149 381 179 417 179 c 0
 454 179 484 149 484 112 c 0
 484 76 455 46 417 46 c 0
 379 46 350 75 350 112 c 0
350 483 m 0
 350 520 381 551 417 551 c 0
 454 551 484 520 484 483 c 0
 484 447 455 417 417 417 c 0
 379 417 350 446 350 483 c 0
EndSplineSet
EndChar

StartChar: eth
Encoding: 240 240 216
Width: 561
Flags: HMW
HStem: -11 53<212.5 283 212.5 302> 435 47<269 308.5 265.5 325> 720 20<336 336>
VStem: 26 129<133.5 234.5> 382 124<225.5 332>
LayerCount: 2
Fore
SplineSet
26 194 m 0
 26 275 58 352 116 409 c 0
 165 457 229 482 302 482 c 0
 315 482 333 480 355 478 c 1
 342 511 328 543 312 574 c 1
 180 523 l 1
 164 565 l 1
 287 612 l 1
 257 659 l 1
 176 675 l 1
 179 709 l 1
 336 740 l 1
 390 654 l 1
 507 699 l 1
 523 657 l 1
 415 614 l 1
 475 508 506 411 506 314 c 0
 506 118 386 -11 218 -11 c 0
 104 -11 26 71 26 194 c 0
155 179 m 0
 155 88 184 42 241 42 c 0
 325 42 382 137 382 314 c 0
 382 350 376 389 366 428 c 1
 347 433 331 435 319 435 c 0
 219 435 155 337 155 179 c 0
EndSplineSet
EndChar

StartChar: micro
Encoding: 181 181 217
Width: 578
Flags: HMW
HStem: -205 20 -12 81<175 223> 412 20<86 187 187 187 355 457 457 457>
VStem: -53 598<-171.5 154>
LayerCount: 2
Fore
SplineSet
-53 -156 m 0
 -53 -104 -5 4 33 182 c 2
 86 432 l 1
 187 432 l 1
 138 204 l 2
 131 172 128 149 128 136 c 0
 128 94 154 69 196 69 c 0
 253 69 285 103 301 177 c 2
 355 432 l 1
 457 432 l 1
 402 172 l 2
 398 153 393 133 393 111 c 0
 393 83 409 67 435 67 c 0
 462 67 481 81 498 111 c 0
 513 138 516 164 534 164 c 0
 542 164 545 159 545 149 c 0
 545 135 535 91 517 58 c 0
 491 12 456 -12 410 -12 c 0
 356 -12 325 24 324 91 c 1
 296 23 252 -12 194 -12 c 0
 130 -12 91 26 84 98 c 1
 46 -107 61 -205 -5 -205 c 0
 -35 -205 -53 -187 -53 -156 c 0
EndSplineSet
EndChar

StartChar: multiply
Encoding: 215 215 218
Width: 833
Flags: HMW
HStem: 16 564<197 197 197 646>
VStem: 140 563<74 74 74 523>
LayerCount: 2
Fore
SplineSet
140 74 m 1
 364 298 l 1
 140 523 l 1
 197 580 l 1
 421 356 l 1
 646 580 l 1
 703 523 l 1
 479 298 l 1
 703 74 l 1
 646 16 l 1
 421 241 l 1
 197 16 l 1
 140 74 l 1
EndSplineSet
EndChar

StartChar: onesuperior
Encoding: 185 185 221
Width: 387
Flags: MW
HStem: 268 30<52 280> 605 29<94 94> 665 12
VStem: 52 228<268 298 268 299 268 299>
DStem2: 132 313 212 311 0.203313 0.979114<14.3068 305.564>
LayerCount: 2
Fore
SplineSet
52 268 m 1
 52 299 l 1
 122 303 l 1
 132 313 l 1
 195 612 l 1
 187 615 l 1
 94 605 l 1
 94 634 l 1
 249 677 l 1
 288 677 l 1
 212 311 l 1
 219 302 l 1
 280 298 l 1
 280 268 l 1
 52 268 l 1
EndSplineSet
EndChar

StartChar: plusminus
Encoding: 177 177 222
Width: 833
Flags: HMW
HStem: 7 82<124 709 124 709> 345 81<124 375 124 375 458 709>
VStem: 375 83<182 345 182 345 426 589>
LayerCount: 2
Fore
SplineSet
124 7 m 1
 124 89 l 1
 709 89 l 1
 709 7 l 1
 124 7 l 1
124 345 m 1
 124 426 l 1
 375 426 l 1
 375 589 l 1
 458 589 l 1
 458 426 l 1
 709 426 l 1
 709 345 l 1
 458 345 l 1
 458 182 l 1
 375 182 l 1
 375 345 l 1
 124 345 l 1
EndSplineSet
EndChar

StartChar: thorn
Encoding: 254 254 223
Width: 565
Flags: HMW
HStem: -218 39<-63 216> -3 56<220 267.5> 419 75<301.5 424.5> 664 33<61 61> 716 20<237 280 280 280>
VStem: 394 125<271.5 342.5>
LayerCount: 2
Fore
SplineSet
-63 -178 m 1
 -2 -162 l 1
 7 -149 l 1
 148 653 l 1
 61 664 l 1
 61 697 l 1
 237 736 l 1
 280 736 l 1
 272 692 265 655 260 626 c 2
 224 425 l 1
 280 471 334 494 385 494 c 0
 464 494 519 428 519 319 c 0
 519 224 490 148 428 83 c 0
 377 29 304 -3 231 -3 c 0
 205 -3 179 3 153 13 c 1
 123 -161 l 1
 216 -179 l 1
 216 -218 l 1
 -63 -218 l 1
 -63 -178 l 1
162 70 m 1
 187 58 209 53 231 53 c 0
 318 53 394 158 394 306 c 0
 394 379 363 419 315 419 c 0
 288 419 256 405 217 376 c 1
 162 70 l 1
EndSplineSet
EndChar

StartChar: threesuperior
Encoding: 179 179 225
Width: 387
Flags: HW
HStem: 261 35<125.5 159.5> 641 37<189 216.5>
VStem: 242 91<380.5 413> 265 91<565.5 599.5>
LayerCount: 2
Fore
SplineSet
8 333 m 0
 8 358 28 377 55 377 c 0
 63 377 73 375 85 371 c 1
 93 306 l 1
 108 300 120 296 131 296 c 0
 197 296 242 336 242 393 c 0xa0
 242 433 215 456 164 456 c 0
 152 456 139 455 123 452 c 1
 131 496 l 1
 137 495 143 495 148 495 c 0
 221 495 265 531 265 582 c 0
 265 617 238 641 195 641 c 0
 183 641 170 638 157 633 c 1
 144 563 l 1
 129 557 118 554 108 554 c 0
 84 554 68 569 68 590 c 0
 68 632 133 678 230 678 c 0
 309 678 356 639 356 590 c 0
 356 541 309 498 224 482 c 1x50
 297 478 333 450 333 397 c 0
 333 364 312 329 273 302 c 0
 236 276 186 261 133 261 c 0
 56 261 8 296 8 333 c 0
EndSplineSet
EndChar

StartChar: twosuperior
Encoding: 178 178 226
Width: 387
Flags: HMW
HStem: 268 61<87 271 87 314> 639 38<195.5 216.5>
VStem: 265 85<536.5 595.5>
LayerCount: 2
Fore
SplineSet
-2 268 m 1
 2 313 l 1
 173 420 265 492 265 576 c 0
 265 615 238 639 195 639 c 0
 184 639 171 637 157 633 c 1
 141 552 l 1
 128 546 115 543 102 543 c 0
 77 543 62 557 62 579 c 0
 62 596 71 614 89 630 c 0
 121 659 170 677 221 677 c 0
 300 677 350 636 350 576 c 0
 350 497 262 420 87 329 c 1
 271 329 l 1
 293 383 l 1
 337 383 l 1
 314 268 l 1
 -2 268 l 1
EndSplineSet
EndChar

StartChar: uni0237
Encoding: 567 567 228
Width: 297
Flags: HMW
HStem: -214 74<-98.5 5> 420 36<26 26> 473 20<205 249 249 249>
DStem2: 69 90 195 155 0.157763 0.987477<-117.609 320.445>
LayerCount: 2
Fore
SplineSet
-146 -153 m 0
 -146 -124 -134 -104 -112 -93 c 1
 5 -140 l 1
 37 -100 52 -23 69 90 c 2
 116 407 l 1
 26 420 l 1
 26 456 l 1
 205 493 l 1
 249 493 l 1
 195 155 l 2
 179 53 164 -33 96 -108 c 0
 31 -179 -30 -214 -78 -214 c 0
 -119 -214 -146 -190 -146 -153 c 0
EndSplineSet
EndChar

StartChar: afii10033
Encoding: 1055 1055 259
Width: 745
Flags: W
HStem: 0 49<-25 39 192 256 381 444 594 658> 611 60<283 561> 622 49<84 146 699 765>
DStem2: 41.3934 0 167.393 0 0.190809 0.981627<95.3521 613.789> 446.393 0 571.393 0 0.190809 0.981627<95.1613 621.642>
LayerCount: 2
Back
SplineSet
-25 0 m 1
 -25 49 l 1
 39 54 l 1
 55 70 l 1
 156 603 l 1
 146 618 l 1
 84 622 l 1
 84 671 l 1
 360 671 l 1
 360 623 l 5
 295 618 l 5
 282 605 l 5
 240 381 l 1
 520 381 l 1
 562 603 l 5
 549 618 l 5
 489 624 l 5
 489 671 l 1
 767 671 l 1
 767 623 l 1
 701 618 l 1
 688 605 l 1
 587 70 l 1
 596 55 l 1
 660 48 l 1
 660 0 l 1
 383 0 l 1
 383 49 l 1
 446 55 l 1
 462 70 l 1
 508 321 l 1
 228 321 l 1
 181 70 l 1
 192 53 l 1
 256 49 l 1
 256 0 l 1
 -25 0 l 1
EndSplineSet
Fore
SplineSet
-25 0 m 1xc0
 -25 49 l 1
 39 54 l 1
 55 70 l 1
 156 603 l 1
 146 618 l 1
 84 622 l 1
 84 671 l 1
 765 671 l 1xa0
 765 623 l 1
 699 618 l 1
 686 605 l 1
 585 70 l 1
 594 55 l 1
 658 48 l 1
 658 0 l 1
 381 0 l 1
 381 49 l 1
 444 55 l 1
 460 70 l 1
 561 611 l 1
 283 611 l 1
 181 70 l 1
 192 53 l 1
 256 49 l 1
 256 0 l 1
 -25 0 l 1xc0
EndSplineSet
EndChar

StartChar: afii10020
Encoding: 1043 1043 260
Width: 522
Flags: W
HStem: 0 48<-24 42 193 256> 491 21G<462 528.889> 614 57<284 450> 623 48<82 147>
VStem: 462 63<491 527>
DStem2: 41.5878 0 167.393 0 0.190809 0.981627<95.315 615.906>
LayerCount: 2
Back
SplineSet
-23 0 m 1
 -23 48 l 1
 43 55 l 1
 56 69 l 1
 158 605 l 1
 148 618 l 1
 83 623 l 1
 83 671 l 1
 569 671 l 1
 536 503 l 1
 473 503 l 1
 471 601 l 1
 461 614 l 1
 285 614 l 1
 237 364 l 1
 356 364 l 1
 374 376 l 1
 400 451 l 1
 457 451 l 1
 412 216 l 1
 357 216 l 1
 359 294 l 1
 345 306 l 1
 227 306 l 1
 182 70 l 1
 194 55 l 1
 261 50 l 1
 257 0 l 1
 -23 0 l 1
EndSplineSet
Fore
SplineSet
-24 0 m 1xe8
 -24 48 l 1
 42 55 l 1
 55 69 l 1
 157 605 l 1
 147 618 l 1
 82 623 l 1
 82 671 l 1
 560 671 l 1xd8
 525 491 l 1
 462 491 l 1
 462 599 l 1
 450 614 l 1
 284 614 l 1
 181 70 l 1
 193 55 l 1
 260 50 l 1
 256 0 l 1
 -24 0 l 1xe8
EndSplineSet
EndChar

StartChar: afii10040
Encoding: 1062 1062 261
Width: 748
Flags: W
HStem: -170 21G<550 625.578> 0 59<179 451> 0 49<-25 39 588 652> 623 48<84 146 295 360 481 541 693 759>
VStem: 550 72<-170 -130.872>
DStem2: 8.34872 -170 134.487 -170 0.190809 0.981627<257.354 786.971> 406.487 -170 532.349 -170 0.190809 0.981627<268.508 786.945>
LayerCount: 2
Back
SplineSet
-25 0 m 1
 -25 49 l 1
 39 54 l 1
 55 70 l 1
 156 603 l 1
 146 618 l 1
 84 622 l 1
 84 671 l 1
 360 671 l 1
 360 623 l 1
 295 618 l 1
 282 605 l 1
 240 381 l 1
 520 381 l 1
 562 603 l 1
 549 618 l 1
 489 624 l 1
 489 671 l 1
 767 671 l 1
 767 623 l 1
 701 618 l 1
 688 605 l 1
 587 70 l 1
 596 55 l 1
 660 48 l 1
 660 0 l 1
 383 0 l 1
 383 49 l 1
 446 55 l 1
 462 70 l 1
 508 321 l 1
 228 321 l 1
 181 70 l 1
 192 53 l 1
 256 49 l 1
 256 0 l 1
 -25 0 l 1
EndSplineSet
Fore
SplineSet
588 55 m 1xb8
 661 48 l 1
 622 -170 l 1
 550 -170 l 1
 550 -19 l 1
 529 0 l 1
 588 55 l 1xb8
-25 0 m 1
 -25 49 l 1xb8
 39 54 l 1
 55 70 l 1
 156 603 l 1
 146 618 l 1
 84 622 l 1
 84 671 l 1
 360 671 l 1
 360 623 l 1
 295 618 l 1
 282 605 l 1
 179 59 l 1
 451 59 l 1xd8
 554 603 l 1
 541 618 l 1
 481 624 l 1
 481 671 l 1
 759 671 l 1
 759 623 l 1
 693 618 l 1
 680 605 l 1
 579 70 l 1
 588 55 l 1
 652 48 l 1
 652 0 l 1
 -25 0 l 1
EndSplineSet
EndChar

StartChar: afii10046
Encoding: 1068 1068 262
Width: 616
Flags: W
HStem: 0 58<181.891 335.146> 0 49<-23 41> 326 57<240 374.919> 624 47<82 146 295 360>
VStem: 412 138<131.143 290.046>
DStem2: 42.5878 0 169.143 0 0.190809 0.981627<86.2896 359.413 410.686 615.715>
LayerCount: 2
Back
SplineSet
-23 0 m 5
 -23 49 l 5
 41 54 l 5
 56 69 l 5
 157 605 l 5
 146 619 l 5
 82 624 l 5
 82 671 l 5xf0
 382 671 l 6
 514 671 579 630 579 544 c 4x68
 579 455 520 388 406 358 c 5
 508 353 561 305 561 220 c 4
 561 82 462 0 275 0 c 6
 -23 0 l 5
180 56 m 5xf0
 199 54 218 53 235 53 c 4
 360 53 423 108 423 217 c 4
 423 288 377 321 283 321 c 4
 266 321 249 320 230 318 c 5
 180 56 l 5xf0
239 375 m 5xf8
 252 374 264 373 275 373 c 4
 383 373 443 431 443 528 c 4
 443 590 403 620 322 620 c 4
 310 620 298 619 284 618 c 5
 239 375 l 5xf8
EndSplineSet
Fore
SplineSet
-23 0 m 1x78
 -23 49 l 1x78
 41 54 l 1
 56 69 l 1
 157 605 l 1
 146 619 l 1
 82 624 l 1
 82 671 l 1
 360 671 l 1
 360 623 l 1
 295 618 l 1
 282 605 l 1
 240 380 l 1
 268 382 285 383 304 383 c 0
 490 383 550 306 550 224 c 0
 550 76 455 0 270 0 c 2xb8
 -23 0 l 1x78
181 61 m 1
 200 59 219 58 236 58 c 0xb8
 356 58 412 118 412 220 c 0
 412 284 379 326 291 326 c 0
 270 326 253 326 231 322 c 1
 181 61 l 1
EndSplineSet
EndChar

StartChar: afii10018
Encoding: 1041 1041 263
Width: 621
Flags: W
HStem: 0 58<181.894 344.915> 0 49<-23 41> 335 57<241 382.013> 496 21G<469 534.886> 614 57<284 457> 623 48<82 147>
VStem: 423 138<131.972 295.086> 469 62<496 532.029>
DStem2: 42.5878 0 169.143 0 0.190809 0.981627<86.2896 368.43 419.712 615.715>
LayerCount: 2
Back
SplineSet
-23 0 m 5
 -23 49 l 5
 41 54 l 5
 56 69 l 5
 157 605 l 5
 146 619 l 5
 82 624 l 5
 82 671 l 5xf0
 382 671 l 6
 514 671 579 630 579 544 c 4x68
 579 455 520 388 406 358 c 5
 508 353 561 305 561 220 c 4
 561 82 462 0 275 0 c 6
 -23 0 l 5
180 56 m 5xf0
 199 54 218 53 235 53 c 4
 360 53 423 108 423 217 c 4
 423 288 377 321 283 321 c 4
 266 321 249 320 230 318 c 5
 180 56 l 5xf0
239 375 m 5xf8
 252 374 264 373 275 373 c 4
 383 373 443 431 443 528 c 4
 443 590 403 620 322 620 c 4
 310 620 298 619 284 618 c 5
 239 375 l 5xf8
EndSplineSet
Fore
SplineSet
-23 0 m 1x72
 -23 49 l 1
 41 54 l 1
 56 69 l 1
 157 605 l 1
 147 618 l 1
 82 623 l 1
 82 671 l 1
 565 671 l 1
 531 496 l 1
 469 496 l 1
 469 599 l 1x75
 457 614 l 1
 284 614 l 1
 241 389 l 1
 273 391 291 392 310 392 c 0
 496 392 561 316 561 228 c 0
 561 74 458 0 273 0 c 2xba
 -23 0 l 1x72
181 61 m 1
 200 59 224 58 241 58 c 0
 363 58 423 117 423 224 c 0xb2
 423 293 385 335 297 335 c 0
 276 335 260 335 232 331 c 1
 181 61 l 1
EndSplineSet
EndChar

StartChar: afii10044
Encoding: 1066 1066 264
Width: 774
Flags: W
HStem: 0 58<339.891 493.146> 0 49<135 199> 326 57<398 532.919> 614 57<179 317> 623 48<453 518>
VStem: 52 70<486 507.553> 570 138<131.143 290.046>
DStem2: 200.588 0 327.143 0 0.190809 0.981627<86.2896 359.413 410.686 624.932>
LayerCount: 2
Fore
SplineSet
52 486 m 1x76
 87 671 l 1
 518 671 l 1
 518 623 l 1
 453 618 l 1
 440 605 l 1
 398 380 l 1
 426 382 443 383 462 383 c 0
 648 383 708 306 708 224 c 0
 708 76 613 0 428 0 c 2xae
 135 0 l 1
 135 49 l 1
 199 54 l 1
 214 69 l 1
 317 614 l 1
 179 614 l 1
 160 603 l 1
 122 486 l 1
 52 486 l 1x76
339 61 m 1
 358 59 377 58 394 58 c 0
 514 58 570 118 570 220 c 0
 570 284 537 326 449 326 c 0
 428 326 411 326 389 322 c 1
 339 61 l 1
EndSplineSet
EndChar

StartChar: afii10026
Encoding: 1048 1048 265
Width: 756
Flags: HW
HStem: 0 48<-24 41 192 254 391 456 607 669> 623 48<83 145 296 361 498 560 711 776>
DStem2: 41.7821 0 166.782 0 0.190809 0.981627<93.1239 147.058 254.927 613.906> 210 227 190 121 0.731537 0.681801<0 395.644> 456.782 0 581.782 0 0.190809 0.981627<93.1239 458.183 566.052 613.906>
LayerCount: 2
Back
SplineSet
626.544 528.017 m 1
 173.104 105.177 l 1
 129.456 151.983 l 1
 582.896 574.823 l 1
 626.544 528.017 l 1
391 0 m 1
 391 48 l 1
 456 53 l 1
 470 68 l 1
 572 603 l 1
 560 618 l 1
 498 623 l 1
 498 671 l 1
 776 671 l 1
 776 623 l 1
 711 618 l 1
 697 603 l 1
 595 68 l 1
 607 53 l 1
 669 48 l 1
 669 0 l 1
 391 0 l 1
-24 0 m 5
 -24 48 l 5
 41 53 l 5
 55 68 l 5
 157 603 l 5
 145 618 l 5
 83 623 l 5
 83 671 l 5
 361 671 l 5
 361 623 l 5
 296 618 l 5
 282 603 l 5
 180 68 l 5
 192 53 l 5
 254 48 l 5
 254 0 l 5
 -24 0 l 5
EndSplineSet
Fore
SplineSet
-24 0 m 1
 -24 48 l 1
 41 53 l 1
 55 68 l 1
 157 603 l 1
 145 618 l 1
 83 623 l 1
 83 671 l 1
 361 671 l 1
 361 623 l 1
 296 618 l 1
 282 603 l 1
 210 227 l 1
 563 556 l 1
 572 603 l 1
 560 618 l 1
 498 623 l 1
 498 671 l 1
 776 671 l 1
 776 623 l 1
 711 618 l 1
 697 603 l 1
 595 68 l 1
 607 53 l 1
 669 48 l 1
 669 0 l 1
 391 0 l 1
 391 48 l 1
 456 53 l 1
 470 68 l 1
 543 450 l 1
 190 121 l 1
 180 68 l 1
 192 53 l 1
 254 48 l 1
 254 0 l 1
 -24 0 l 1
EndSplineSet
EndChar

StartChar: afii10042
Encoding: 1064 1064 266
Width: 1019
VWidth: 0
Flags: HW
HStem: 0 59<178 392 517 731> 0 48<-24 41 870 932> 623 48<83 145 296 353 430 484 635 692 769 823 974 1039>
DStem2: 41.7821 0 166.532 0 0.190809 0.981627<83.9076 613.906> 380.532 0 505.532 0 0.190809 0.981627<83.9554 613.954> 719.532 0 844.782 0 0.190809 0.981627<93.1717 613.954>
LayerCount: 2
Back
SplineSet
179 59 m 1
 761 59 l 1
654 0 m 1
 654 48 l 1
 719 53 l 1
 733 68 l 1
 835 603 l 1
 823 618 l 1
 761 623 l 1
 761 671 l 1
 1039 671 l 1
 1039 623 l 1
 974 618 l 1
 960 603 l 1
 858 68 l 1
 870 53 l 1
 932 48 l 1
 932 0 l 1
 654 0 l 1
315 0 m 5
 315 48 l 5
 380 53 l 5
 394 68 l 5
 496 603 l 5
 484 618 l 5
 422 623 l 5
 422 671 l 5
 700 671 l 5
 700 623 l 5
 635 618 l 5
 621 603 l 5
 519 68 l 5
 531 53 l 5
 593 48 l 5
 593 0 l 5
 315 0 l 5
-24 0 m 5
 -24 48 l 5
 41 53 l 5
 55 68 l 5
 157 603 l 5
 145 618 l 5
 83 623 l 5
 83 671 l 5
 361 671 l 5
 361 623 l 5
 296 618 l 5
 282 603 l 5
 180 68 l 5
 192 53 l 5
 254 48 l 5
 254 0 l 5
 -24 0 l 5
EndSplineSet
Fore
SplineSet
-24 0 m 1x60
 -24 48 l 1x60
 41 53 l 1
 55 68 l 1
 157 603 l 1
 145 618 l 1
 83 623 l 1
 83 671 l 1
 353 671 l 1
 353 623 l 1
 296 618 l 1
 282 603 l 1
 178 59 l 1
 392 59 l 1
 496 603 l 1
 484 618 l 1
 430 623 l 1
 430 671 l 1
 692 671 l 1
 692 623 l 1
 635 618 l 1
 621 603 l 1
 517 59 l 1
 731 59 l 1xa0
 835 603 l 1
 823 618 l 1
 769 623 l 1
 769 671 l 1
 1039 671 l 1
 1039 623 l 1
 974 618 l 1
 960 603 l 1
 858 68 l 1
 870 53 l 1
 932 48 l 1
 932 0 l 1
 -24 0 l 1x60
EndSplineSet
EndChar

StartChar: afii10043
Encoding: 1065 1065 267
Width: 1032
VWidth: 0
Flags: HW
HStem: 0 48<-24 41 870 932> 0 59<178 392 517 731> 623 48<83 145 296 353 430 484 635 692 769 823 974 1039>
VStem: 834 72<-170 -130.872>
DStem2: 41.7821 0 166.532 0 0.190809 0.981627<83.9076 613.906> 380.532 0 505.532 0 0.190809 0.981627<83.9554 613.954> 719.532 0 844.782 0 0.190809 0.981627<93.1717 613.954>
LayerCount: 2
Fore
SplineSet
870 53 m 1x70
 945 48 l 1xb0
 906 -170 l 1
 834 -170 l 1
 834 -19 l 1
 813 0 l 1
 870 53 l 1x70
EndSplineSet
Refer: 266 1064 N 1 0 0 1 0 0 2
EndChar

StartChar: afii10037
Encoding: 1059 1059 268
Width: 634
Flags: W
HStem: -13 69<159 218.521> 623 48<48 89.4286 248 302 474 530 639.429 678>
DStem2: 239 603 115 603 0.26295 -0.964809<0 367.927> 332 247 400 226 0.498053 0.867146<0 413.406>
LayerCount: 2
Back
SplineSet
541 619 m 1
 260 130 l 1
354 158 m 1
 232 619 l 1
623 619 m 1
 342 130 l 1
 232 158 l 1
 107 619 l 1
EndSplineSet
Fore
SplineSet
38 72 m 0
 38 120 75 153 126 143 c 1
 159 56 l 1
 204 58 218 71 248 115 c 1
 115 603 l 1
 106 616 l 1
 48 623 l 1
 48 671 l 1
 302 671 l 1
 302 623 l 1
 248 619 l 1
 239 603 l 1
 332 247 l 1
 537 606 l 1
 530 619 l 1
 474 623 l 1
 474 671 l 1
 678 671 l 1
 678 625 l 1
 624 616 l 1
 400 226 l 2
 300 53 253 -13 141 -13 c 0
 73 -13 38 33 38 72 c 0
EndSplineSet
EndChar

StartChar: afii10041
Encoding: 1063 1063 269
Width: 691
VWidth: 0
Flags: W
HStem: 0 48<326 391 542 604> 251 82<248.948 370.181> 623 48<78 140 291 348 441 495 646 711>
DStem2: 33.8356 0 159.222 0 0.190809 0.981627<386.01 614.468> 391.782 0 516.782 0 0.190809 0.981627<93.1239 320.703 373.116 613.906>
LayerCount: 2
Back
SplineSet
326 0 m 1
 326 48 l 1
 391 53 l 1
 405 68 l 1
 507 603 l 1
 495 618 l 1
 433 623 l 1
 433 671 l 1
 711 671 l 1
 711 623 l 1
 646 618 l 1
 632 603 l 1
 530 68 l 1
 542 53 l 1
 604 48 l 1
 604 0 l 1
 326 0 l 1
-24 0 m 1
 -24 48 l 1
 36 53 l 1
 50 68 l 1
 152 603 l 1
 140 618 l 1
 78 623 l 1
 78 671 l 1
 356 671 l 1
 356 623 l 1
 291 618 l 1
 277 603 l 1
 175 68 l 1
 187 53 l 1
 249 48 l 1
 249 0 l 1
 -24 0 l 1
EndSplineSet
Fore
SplineSet
78 623 m 1
 78 671 l 1
 348 671 l 1
 348 623 l 1
 291 618 l 1
 277 603 l 1
 243 431 l 2
 225 339 264 333 307 333 c 0
 346 333 412 351 465 383 c 1
 507 603 l 1
 495 618 l 1
 441 623 l 1
 441 671 l 1
 711 671 l 1
 711 623 l 1
 646 618 l 1
 632 603 l 1
 530 68 l 1
 542 53 l 1
 604 48 l 1
 604 0 l 1
 326 0 l 1
 326 48 l 1
 391 53 l 1
 405 68 l 1
 452 315 l 1
 392 276 322 251 272 251 c 0
 158 251 94 318 125 469 c 2
 152 603 l 1
 140 618 l 1
 78 623 l 1
EndSplineSet
EndChar

StartChar: afii10038
Encoding: 1060 1060 270
Width: 807
Flags: W
HStem: -4 49<205 271 423 488> 518 57<507 585.326> 632 48<315 380 531 597>
VStem: 30 138<215.297 402.929> 635 138<283.071 470.703>
DStem2: 272.588 -4 397.977 -4 0.190809 0.981627<92.1793 629.049>
LayerCount: 2
Fore
SplineSet
384 575 m 9
 373 518 l 17
 233 518 168 416 168 291 c 0
 168 222 193 168 307 168 c 9
 296 111 l 17
 63 111 30 233 30 305 c 0
 30 435 131 575 384 575 c 9
419 111 m 9
 430 168 l 17
 570 168 635 270 635 395 c 0
 635 464 610 518 496 518 c 9
 507 575 l 17
 740 575 773 453 773 381 c 0
 773 251 672 111 419 111 c 9
205 -4 m 1
 205 45 l 1
 271 50 l 1
 286 65 l 1
 390 614 l 1
 380 628 l 1
 315 632 l 1
 315 680 l 1
 597 680 l 1
 597 632 l 1
 531 628 l 1
 515 614 l 1
 411 63 l 1
 423 49 l 1
 488 45 l 1
 488 -4 l 1
 205 -4 l 1
EndSplineSet
EndChar

StartChar: afii10029
Encoding: 1051 1051 271
Width: 742
Flags: MW
HStem: -13 81<78.0139 110.968> 0 49<428 492 638 692> 623 48<307 374>
DStem2: 229 278 314 290 0.438369 0.898795<-185.612 314.609> 527 671 430 530 0.163868 -0.986482<123.199 590.093>
LayerCount: 2
Back
SplineSet
405 671 m 1
 508 52 l 1
253 165 m 1
 515 700 l 1
173 165 m 2
 435 700 l 1
527 671 m 1
 630 52 l 1
EndSplineSet
Fore
SplineSet
-43 70 m 0xa0
 -43 121 -3 152 41 140 c 1
 82 68 l 1xa0
 133 92 171.198 159.488 229 278 c 2
 388 604 l 1
 374 618 l 1
 307 623 l 1
 307 671 l 1
 527 671 l 1
 627 69 l 1
 638 56 l 1
 692 49 l 1
 692 0 l 1
 428 0 l 1
 428 49 l 1x60
 492 55 l 1
 504 69 l 1
 430 530 l 1
 314 290 l 2
 213.365 81.7901 146 -13 53 -13 c 0
 -9 -13 -43 32 -43 70 c 0xa0
EndSplineSet
EndChar

StartChar: afii10021
Encoding: 1044 1044 272
Width: 698
Flags: HMW
HStem: -170 21G<-77 1.54967 527 601.578> 0 59<121 432> 623 48<231 300>
VStem: -77 71<-170 -170> 527 71<-170 -130.872>
DStem2: 43 61 121 59 0.447872 0.894098<33.1458 559.964> 454 671 357 530 0.163868 -0.986482<123.199 600.122>
LayerCount: 2
Back
SplineSet
331 671 m 1
 434 52 l 1
179 165 m 1
 441 700 l 1
99 165 m 2
 361 700 l 1
453 671 m 1
 556 52 l 1
EndSplineSet
Fore
SplineSet
-77 -170 m 1
 -33 48 l 1
 43 61 l 9
 315 604 l 1
 300 618 l 1
 231 623 l 1
 231 671 l 1
 454 671 l 1
 554 69 l 1
 565 56 l 1
 637 48 l 1
 598 -170 l 1
 527 -170 l 1
 527 -19 l 1
 506 0 l 1
 87 0 l 1
 58 -19 l 1
 -6 -170 l 1
 -77 -170 l 1
121 59 m 17
 432 59 l 1
 357 530 l 1
 121 59 l 17
EndSplineSet
EndChar

StartChar: afii10047
Encoding: 1069 1069 273
Width: 633
Flags: W
HStem: -13 60<99.8446 294.554> 288 87<296.893 399.384> 324 87<174.072 277.166> 624 60<189.912 382.812>
VStem: 25 63<152.75 186> 455 139<309.405 520.055>
LayerCount: 2
Back
SplineSet
-23.5498 24 m 1
 6.77344 180 l 1
 76.7734 180 l 1
 78.3643 75 l 1
 89.4482 60 l 1
 112.282 54 140.699 51 157.699 51 c 0
 337.699 51 408.357 183 439.847 345 c 1
 444.374 358 l 1
 439.102 375.25 504.62 618 280.912 618 c 0
 254.912 618 218.94 613 189.997 603 c 1
 174.692 586 l 1
 139.227 491 l 1
 67.2266 491 l 1
 97.3555 646 l 1
 169.021 670 239.547 683 308.547 683 c 0
 546.547 683 622.029 526 584.902 335 c 0
 549.72 154 415.453 -12 179.453 -12 c 0
 106.453 -12 38.7852 0 -23.5498 24 c 1
103.069 341 m 1xbc
 152.428 384 204.676 411 238.676 411 c 0xbc
 285.676 411 324.678 375 369.678 375 c 0
 399.678 375 440.066 377 455.146 434 c 1
 451.54 364 l 1
 393.849 309 358.767 288 313.767 288 c 0xdc
 271.767 288 226.765 324 191.765 324 c 0
 170.765 324 159.57 323 124.294 301 c 1
 103.069 341 l 1xbc
EndSplineSet
Fore
SplineSet
-7 34 m 1x9c
 25 186 l 1
 88 186 l 1
 88 83 l 1
 101 64 l 1
 121 53 158 47 197 47 c 0
 382 47 440 231 448 345 c 1
 450 358 l 1
 448 362 452 408 455 434 c 1
 455 490 441 624 300 624 c 0
 256 624 217 619 189 605 c 1
 172 586 l 1
 134 487 l 1
 69 487 l 1
 99 639 l 1
 173 673 238 684 316 684 c 0
 504 684 594 552 594 401 c 0
 594 200 470 -13 200 -13 c 0
 124 -13 55 0 -7 34 c 1x9c
112 341 m 1
 153 384 206 411 240 411 c 0xbc
 287 411 324 375 369 375 c 0
 399 375 444 379 455 434 c 1
 456 364 l 1
 409 309 377 288 332 288 c 0xdc
 290 288 246 324 211 324 c 0xbc
 190 324 167 323 136 301 c 1
 112 341 l 1
EndSplineSet
EndChar

StartChar: afii10025
Encoding: 1047 1047 274
Width: 573
Flags: W
HStem: -13 60<101.223 290.935> 324 62<166.645 324.186> 488 21G<69 141.735> 624 60<187.691 352.538>
VStem: 26 62<154.533 190> 368 138<121.544 283.034> 386 136<457.986 592.295>
LayerCount: 2
Back
SplineSet
-82 0 m 1
 -82 49 l 1
 -18 54 l 1
 -3 69 l 1
 98 605 l 1
 87 619 l 1
 23 624 l 1
 23 671 l 1xf0
 323 671 l 2
 455 671 520 630 520 544 c 0x68
 520 455 461 388 347 358 c 1
 449 353 502 305 502 220 c 0
 502 82 403 0 216 0 c 2
 -82 0 l 1
121 56 m 1xf0
 140 54 159 53 176 53 c 0
 301 53 364 108 364 217 c 0
 364 288 318 321 224 321 c 0
 207 321 190 320 171 318 c 1
 121 56 l 1xf0
180 375 m 1xf8
 193 374 205 373 216 373 c 0
 324 373 384 431 384 528 c 0
 384 590 344 620 263 620 c 0
 251 620 239 619 225 618 c 1
 180 375 l 1xf8
EndSplineSet
Fore
SplineSet
-4 38 m 1xfc
 26 190 l 1
 88 190 l 1
 88 84 l 1
 98 70 l 1
 121 54 161 47 195 47 c 0
 314 47 368 116 368 206 c 0xfc
 368 293 319 327 216 327 c 1
 156 324 l 1
 168 386 l 1
 227 383 l 1
 348 383 386 457 386 528 c 0
 386 595 345 624 273 624 c 0
 234 624 218 619 188 603 c 1
 168 586 l 1
 135 488 l 1
 69 488 l 1
 98 636 l 1
 159 673 224 684 283 684 c 0
 438 684 522 647 522 544 c 0xfa
 522 438 446 384 353 358 c 1
 482 344 506 279 506 221 c 0
 506 64 386 -13 187 -13 c 0
 103 -13 55 0 -4 38 c 1xfc
EndSplineSet
EndChar

StartChar: afii10028
Encoding: 1050 1050 275
Width: 704
Flags: W
HStem: -13 59<538.362 636.338> 0 48<-24 41 192 254 618.332 637> 322 60<238 307.938> 602 82<546.229 628.877> 623 48<83 145 296 361>
VStem: 635 54<538 577.333>
DStem2: 39.2552 -13 164.255 -13 0.190809 0.981627<106.367 627.149>
LayerCount: 2
Back
SplineSet
-42 0 m 1x66
 -33 49 l 1
 26 54 l 1
 45 70 l 1
 149 601 l 1
 136 617 l 1
 79 622 l 1
 88 671 l 1
 371 671 l 1
 362 622 l 1x6e
 301 617 l 1
 282 601 l 1
 239 382 l 1
 259 382 l 2
 335 382 394 450 433 522 c 0
 486 621 540 683 647 683 c 0
 675 683 709 668 719 656 c 1
 696 538 l 1
 622 538 l 1
 623 580 617 596 595 596 c 0
 569 596 545 592 500 508 c 0
 461 436 415 380 368 360 c 1
 437 338 488 301 509 177 c 0
 527 65 542 49 621 49 c 0
 628 49 640 50 640 50 c 1
 631 1 l 1
 601 -7 574 -11 544 -11 c 0xb6
 439 -11 390 36 370 140 c 0
 352 233 334 322 254 322 c 2
 227 322 l 1
 178 70 l 1
 191 54 l 1
 250 49 l 1
 241 0 l 1
 -42 0 l 1x66
EndSplineSet
Fore
SplineSet
238 382 m 1xb4
 252 382 l 2
 317 382 376 456 415 522 c 4
 475 623 526 684 623 684 c 4
 651 684 695 674 710 656 c 5
 689 538 l 5
 635 538 l 5
 635 586 623 602 596 602 c 4
 564 602 528 577 489 508 c 4
 452 442 411 380 359 360 c 1
 423 344 478 307 499 182 c 0
 519 63 540 46 618 46 c 0
 625 46 637 47 637 47 c 1
 637 -1 l 1
 609 -9 578 -13 548 -13 c 0
 443 -13 391 37 375 145 c 0
 361 240 330 322 245 322 c 2
 226 322 l 1
 238 382 l 1xb4
-24 0 m 1x6c
 -24 48 l 1
 41 53 l 1
 55 68 l 1
 157 603 l 1
 145 618 l 1
 83 623 l 1
 83 671 l 1
 361 671 l 1
 361 623 l 1
 296 618 l 1
 282 603 l 1
 180 68 l 1
 192 53 l 1
 254 48 l 1
 254 0 l 1
 -24 0 l 1x6c
EndSplineSet
EndChar

StartChar: afii10024
Encoding: 1046 1046 276
Width: 1041
Flags: W
HStem: -13 61<-45.4342 52.9062 879.654 973.341> 0 49<-46 -27.3317 328 394 546 611 959.329 974> 322 60<391.935 453 593 657.49> 602 82<173.071 250.341 885.057 963.96> 623 48<435 500 651 717>
VStem: 89 59<538 573.913> 970 54<538 577.333>
DStem2: 393.061 -13 518.45 -13 0.190809 0.981627<105.423 628.959>
LayerCount: 2
Back
SplineSet
-60 1 m 1
 -51 50 l 1
 -51 50 -39 49 -32 49 c 0
 47 49 64 65 126 177 c 0
 195 301 261 337 337 360 c 1
 298 380 273 436 263 508 c 0
 252 593 234 596 208 596 c 0
 186 596 172 580 157 538 c 1
 83 538 l 1
 106 656 l 1
 120 668 160 683 188 683 c 0
 295 683 321 622 336 522 c 0
 347 450 376 382 452 382 c 2
 466 382 l 1xb7
 454 322 l 1
 433 322 l 2
 357 322 305 233 251 140 c 0
 191 35 128 -11 23 -11 c 0
 -7 -11 -34 -7 -60 1 c 1
316 0 m 1x6f
 325 49 l 1
 386 54 l 1
 405 70 l 1
 509 601 l 1
 496 617 l 1
 437 622 l 1
 446 671 l 1
 723 671 l 1
 714 622 l 1
 653 617 l 1
 634 601 l 1
 530 70 l 1
 543 54 l 1
 602 49 l 1
 593 0 l 1
 316 0 l 1x6f
579 322 m 1
 591 382 l 1
 605 382 l 2
 681 382 736 450 775 522 c 0
 828 622 878 683 985 683 c 0
 1013 683 1047 668 1057 656 c 1
 1034 538 l 1
 960 538 l 1
 961 580 955 596 933 596 c 0
 907 596 887 593 842 508 c 0
 804 436 759 380 712 360 c 1
 780 337 830 301 851 177 c 0
 869 65 880 49 959 49 c 0
 966 49 978 50 978 50 c 1
 969 1 l 1
 939 -7 912 -11 882 -11 c 0
 777 -11 732 35 712 140 c 0
 694 233 676 322 600 322 c 2
 579 322 l 1
EndSplineSet
Fore
SplineSet
-46 1 m 1xb6
 -46 49 l 1x66
 -46 49 -34 48 -27 48 c 0
 52 48 83 81 139 196 c 0
 195 312 272 337 348 360 c 1
 309 380 280 436 270 508 c 0
 259 593 238 602 212 602 c 0
 190 602 164 580 148 538 c 1
 89 538 l 1
 112 656 l 1
 126 668 162 684 190 684 c 0
 297 684 325 622 340 522 c 0
 351 450 377 382 453 382 c 2
 469 382 l 1
 457 322 l 1
 444 322 l 2
 368 322 299 240 254 140 c 0
 204 30 134 -13 29 -13 c 0
 -1 -13 -22 -7 -46 1 c 1xb6
592 382 m 1
 601 382 l 2
 662 382 728 458 764 522 c 0
 822 624 865 684 962 684 c 0
 996 684 1027 673 1045 656 c 1
 1024 538 l 1
 970 538 l 1
 970 586 958 602 931 602 c 0
 906 602 870 580 836 508 c 0
 804 440 758 380 706 360 c 1
 770 344 827 306 843 182 c 0
 858 62 888 46 959 46 c 0
 966 46 974 47 974 47 c 1
 974 -1 l 1
 946 -9 919 -13 889 -13 c 0xb6
 784 -13 731 36 719 145 c 0
 709 238 683 322 593 322 c 2
 580 322 l 1
 592 382 l 1
328 0 m 1x6e
 328 49 l 1
 394 54 l 1
 409 69 l 1
 510 605 l 1
 500 619 l 1
 435 623 l 1
 435 671 l 1
 717 671 l 1
 717 623 l 1
 651 619 l 1
 635 605 l 1
 534 67 l 1
 546 53 l 1
 611 49 l 1
 611 0 l 1
 328 0 l 1x6e
EndSplineSet
EndChar

StartChar: afii10049
Encoding: 1071 1071 277
Width: 696
Flags: W
HStem: -11 59<-36.7863 59.6404> 0 48<-38 31.7863 331 396 547 609> 288 56<336.806 451> 614 57<353.765 514> 623 48<651 716>
VStem: 138 137<391.137 545.038>
DStem2: 394.644 -11 519.644 -11 0.190809 0.981627<104.33 302.297 357.616 636.291>
LayerCount: 2
Back
SplineSet
-50 1 m 1xa6
 -41 49 l 1x66
 -31 49 l 2
 71 49 91 90 125 168 c 0
 148 222 189 294 282 321 c 1
 175 347 117 393 136 489 c 0
 159 605 250 671 408 671 c 2xb6
 739 671 l 1
 730 622 l 1
 671 617 l 1
 652 603 l 1
 548 70 l 1
 561 54 l 1
 618 49 l 1
 609 0 l 1
 326 0 l 1
 335 49 l 1x6e
 397 54 l 1
 416 70 l 1
 458 286 l 1
 451 287 418 287 404 287 c 0
 318 287 276 193 251 138 c 0
 230 91 181 -10 33 -10 c 0
 8 -10 -15 -6 -50 1 c 1xa6
273 487 m 0
 256 402 310 344 411 344 c 0
 427 344 457 344 470 345 c 1
 522 614 l 1
 450 614 l 2x36
 353 614 289 569 273 487 c 0
EndSplineSet
Fore
SplineSet
-38 0 m 1x64
 -38 48 l 1x64
 -28 48 l 2
 76 48 94 89 125 168 c 0
 152 238 202 296 282 321 c 1
 180 350 138 386 138 472 c 0
 138 604 252 671 422 671 c 2xb4
 716 671 l 1
 716 623 l 1
 651 618 l 1
 637 603 l 1
 535 68 l 1
 547 53 l 1
 609 48 l 1
 609 0 l 1
 331 0 l 1
 331 48 l 1x6c
 396 53 l 1
 410 68 l 1
 451 286 l 1
 440 288 418 288 404 288 c 0
 318 288 281 210 252 138 c 0
 233 90 181 -11 33 -11 c 0xa4
 7 -11 -12 -8 -38 0 c 1x64
275 472 m 0
 275 396 308 344 411 344 c 0
 427 344 450 344 463 345 c 1
 514 614 l 1
 450 614 l 2x34
 356 614 275 564 275 472 c 0
EndSplineSet
EndChar

StartChar: afii10048
Encoding: 1070 1070 278
Width: 1025
Flags: W
HStem: -13 61<577 649.5 577 665.5> 0 48<-24 41 192 254> 321 60<239 418> 623 48<83 145 296 361> 624 60<669 743.5>
VStem: 334 138<191 302.5 191 316.5> 845 141<367.5 482.5>
DStem2: 39.2552 -13 164.255 -13 0.190809 0.981627<106.367 627.149>
LayerCount: 2
Fore
SplineSet
418 321 m 1x26
 227 321 l 1
 239 381 l 1
 430 381 l 1
 418 321 l 1x26
-24 0 m 1x76
 -24 48 l 1
 41 53 l 1
 55 68 l 1
 157 603 l 1
 145 618 l 1
 83 623 l 1
 83 671 l 1
 361 671 l 1
 361 623 l 1
 296 618 l 1
 282 603 l 1
 180 68 l 1
 192 53 l 1
 254 48 l 1
 254 0 l 1
 -24 0 l 1x76
EndSplineSet
Refer: 47 79 N 1 0 0 1 296 0 2
EndChar

StartChar: afii10079
Encoding: 1085 1085 280
Width: 600
Flags: MW
HStem: -6 61<414.685 531.034> 229 56<133 428> 417 33<26 55.1395> 470 23G<121.744 246 412 527.141>
VStem: 29 124<0 124> 336 124<60.6141 189.422>
DStem2: 29 0 153 0 0.185372 0.982669<22.9861 243.568 299.339 413.793> 346 131 471 179 0.188424 0.982088<-4.29246 116.783 166.692 350.274>
LayerCount: 2
Back
SplineSet
28 419 m 1
 28 450 l 1
 201 487 l 1
 239 487 l 1
 181 188 l 2
 176 161 173 141 173 129 c 0
 173 93 192 75 226 75 c 0
 255 75 296 90 346 123 c 1
 414 475 l 1
 533 489 l 1
 474 179 l 2
 468 150 463 126 463 106 c 0
 463 75 482 55 505 55 c 0
 525 55 548 59 572 66 c 1
 572 29 l 1
 502 5 450 -9 415 -9 c 0
 366 -9 340 18 340 68 c 0
 340 71 340 74 340 77 c 1
 262 18 199 -10 156 -10 c 0
 91 -10 53 28 53 93 c 0
 53 108 55 126 59 147 c 2
 108 407 l 1
 28 419 l 1
26 417 m 1
 26 450 l 1x58
 202 493 l 1xa8
 241 493 l 1
 221 394 l 1
 301 459 364 493 421 493 c 0
 473 493 512 455 512 395 c 0
 512 376 508 349 501 316 c 2
 471 179 l 2
 464 145 460 121 460 105 c 0
 460 75 479 55 502 55 c 0
 522 55 544 59 568 66 c 1
 568 28 l 1
 506 5 455 -6 417 -6 c 0
 364 -6 336 19 336 65 c 0
 336 80 340 97 344 118 c 2
 380 284 l 2
 386 313 389 335 389 350 c 0
 389 387 370 408 340 408 c 0xa8
 311 408 268 387 215 342 c 1
 156 0 l 1
 29 0 l 1
 109 406 l 1
 26 417 l 1
EndSplineSet
Fore
SplineSet
129 229 m 5
 133 285 l 5
 428 285 l 5
 455 229 l 5
 129 229 l 5
531 490 m 9
 471 179 l 2
 464 145 460 120 460 104 c 0
 460 74 478 55 501 55 c 0
 521 55 543 59 567 66 c 1
 567 28 l 1
 505 5 454 -6 416 -6 c 0
 363 -6 336 18 336 63 c 0
 336 78 342 110 346 131 c 2
 412 475 l 17
 531 490 l 9
153 0 m 5
 29 0 l 5
 109 406 l 5
 26 417 l 5
 26 450 l 5
 205 493 l 5
 246 493 l 5
 153 0 l 5
EndSplineSet
EndChar

StartChar: afii10066
Encoding: 1073 1073 281
Width: 556
Flags: MW
HStem: -11 52<186.279 293.874> 436 52<230.507 344.834>
VStem: 22 129<105.314 324.095> 378 129<176.432 389.26> 525 46<759 759>
LayerCount: 2
Back
SplineSet
22 197 m 0
 22 275 54 355 109 412 c 0
 159 464 228 493 301 493 c 0
 426 493 504 413 504 287 c 0
 504 206 473 127 417 69 c 0
 367 17 299 -11 225 -11 c 0
 100 -11 22 70 22 197 c 0
151 181 m 0
 151 89 181 41 236 41 c 0
 310 41 375 145 375 298 c 0
 375 394 346 441 288 441 c 0
 216 441 151 338 151 181 c 0
EndSplineSet
Fore
SplineSet
22 217 m 0
 22 328 71 490 142 560 c 0
 209 625 282 666 348 682 c 0
 438 704 504 724 525 759 c 1
 571 759 l 1
 532 662 488 622 394 598 c 0
 315 578 258 563 185 511 c 0
 134 475 103 382 97 350 c 1
 100 350 l 1
 137 421 211 488 305 488 c 0
 430 488 507 413 507 287 c 0
 507 136 397 -11 226 -11 c 0
 102 -11 22 76 22 217 c 0
151 184 m 0
 151 92 182 41 237 41 c 0
 311 41 378 145 378 298 c 0
 378 394 346 436 288 436 c 0
 216 436 151 341 151 184 c 0
EndSplineSet
EndChar

StartChar: afii10094
Encoding: 1100 1100 282
Width: 527
Flags: W
HStem: -9 50<192.67 308.679> 263 53<234.738 338.967> 420 33<26 56.975> 473 20G<114.5 241>
VStem: 355 120<102.544 247.613>
DStem2: 28.1239 -9 141.712 -9 0.190809 0.981627<117.375 259.316 295.708 423.598>
LayerCount: 2
Back
SplineSet
28 419 m 5
 28 450 l 5
 201 487 l 5
 239 487 l 5
 181 188 l 6
 176 161 173 141 173 129 c 4
 173 93 192 75 226 75 c 4
 255 75 296 90 346 123 c 5
 414 475 l 5
 533 489 l 5
 474 179 l 6
 468 150 463 126 463 106 c 4
 463 75 482 55 505 55 c 4
 525 55 548 59 572 66 c 5
 572 29 l 5
 502 5 450 -9 415 -9 c 4
 366 -9 340 18 340 68 c 4
 340 71 340 74 340 77 c 5
 262 18 199 -10 156 -10 c 4
 91 -10 53 28 53 93 c 4
 53 108 55 126 59 147 c 6
 108 407 l 5
 28 419 l 5
EndSplineSet
Fore
SplineSet
26 420 m 1
 26 453 l 1
 203 493 l 1
 241 493 l 1
 194 260 l 17
 226 302 277 316 332 316 c 0
 409 316 475 274 475 187 c 0
 475 81 383 -9 240 -9 c 0
 88 -9 46 77 67 191 c 2
 108 407 l 1
 26 420 l 1
180 182 m 1
 165 107 172 41 245 41 c 0
 305 41 355 87 355 175 c 0
 355 237 335 263 285 263 c 0
 256 263 204 230 180 182 c 1
EndSplineSet
EndChar

StartChar: afii10067
Encoding: 1074 1074 283
Width: 530
Flags: W
HStem: -9 47<161.229 296.292> 448 45<239.832 359.468>
VStem: 349 120<91.4002 207.168> 372 106<330.702 434.447>
DStem2: 3.48229 -9 116.789 -9 0.190809 0.981627<107.065 253.953 290.159 423.049>
LayerCount: 2
Back
SplineSet
-2 420 m 1
 -2 453 l 1
 175 493 l 1
 213 493 l 1
 166 260 l 17
 198 302 249 316 304 316 c 0
 381 316 447 274 447 187 c 0
 447 81 355 -9 212 -9 c 0
 60 -9 18 77 39 191 c 2
 80 407 l 1
 -2 420 l 1
152 182 m 1
 137 107 144 41 217 41 c 0
 277 41 327 87 327 175 c 0
 327 237 307 263 257 263 c 0
 228 263 176 230 152 182 c 1
EndSplineSet
Fore
SplineSet
166 255 m 1xd0
 276 279 372 305 372 387 c 0
 372 434 339 448 302 448 c 0
 252 448 198 413 178 315 c 2
 166 255 l 1xd0
34 148 m 2
 61 310 l 2
 80 423 196 493 319 493 c 0
 421 493 478 444 478 391 c 0xd0
 478 318 397 275 341 267 c 1
 425 259 469 225 469 158 c 0xe0
 469 64 349 -9 227 -9 c 0
 105 -9 14 31 34 148 c 2
233 38 m 0
 292 38 349 92 349 147 c 0xe0
 349 208 309 230 264 230 c 0
 235 230 194 219 160 209 c 1
 151 167 l 2
 124 43 184 38 233 38 c 0
EndSplineSet
EndChar

StartChar: afii10068
Encoding: 1075 1075 284
Width: 414
VWidth: 2048
Flags: W
HStem: -9 63<141.701 264.185> 374 56<55 111> 441 52<122.319 258.657>
VStem: 9 120<67.0567 167.029> 276 101<324.671 423.589>
LayerCount: 2
Fore
SplineSet
9 98 m 256
 9 199 121 239 209 288 c 256
 248 309 276 342 276 380 c 256
 276 423 235 441 195 441 c 256
 155 441 109 421 55 374 c 1
 55 430 l 1
 122 483 177 493 233 493 c 256
 324 493 377 443 377 384 c 256
 377 299 307 275 204 216 c 256
 149 185 129 156 129 111 c 256
 129 74 156 54 194 54 c 256
 230 54 280 69 352 122 c 1
 352 70 l 1
 287 12 224 -9 153 -9 c 256
 44 -9 9 44 9 98 c 256
EndSplineSet
EndChar

StartChar: afii10069
Encoding: 1076 1076 285
Width: 568
Flags: W
HStem: -11 52<175.945 282.236> 438 51<233.079 349.118> 628 53<157 210> 684 52<211.896 376.807>
VStem: 19 129<91.7053 310.607> 390 155<289.306 518> 424 121<378.5 578.633>
LayerCount: 2
Back
SplineSet
19 197 m 4
 19 275 51 355 106 412 c 4
 156 464 225 493 298 493 c 4
 423 493 501 413 501 287 c 4
 501 206 470 127 414 69 c 4
 364 17 296 -11 222 -11 c 4
 97 -11 19 70 19 197 c 4
148 181 m 4
 148 89 178 41 233 41 c 4
 307 41 372 145 372 298 c 4
 372 394 343 441 285 441 c 4
 213 441 148 338 148 181 c 4
EndSplineSet
Fore
SplineSet
19 197 m 0xfc
 19 344 122 489 297 489 c 0
 347 489 388 469 413 440 c 1
 420 468 424 498 424 536 c 0xfa
 424 589 404 684 314 684 c 0
 262 684 218 676 157 628 c 9
 157 681 l 17
 214 728 276 736 325 736 c 0
 472 736 545 605 545 431 c 0
 545 326 481 -11 222 -11 c 0
 92 -11 19 70 19 197 c 0xfc
148 181 m 0
 148 89 168 41 233 41 c 0
 346 41 390 282 390 344 c 1xfc
 371 404 342 438 289 438 c 0
 212 438 148 338 148 181 c 0
EndSplineSet
EndChar

StartChar: afii10072
Encoding: 1078 1078 286
Width: 934
Flags: W
HStem: -9 142<23.1373 82> -9 73<704 828.399> 0 21G<357 484.885> 229 56<306 631> 351 142<850 908.863> 420 73<103.601 228>
VStem: 216 125<231.539 384.644> 357 124<0 124> 591 125<99.3561 263.206>
DStem2: 355.251 -9 479.251 -9 0.190809 0.981627<32.8288 492.996>
LayerCount: 2
Back
SplineSet
341 317 m 0x9780
 341 103 202 -9 93 -9 c 0x5780
 43 -9 0 15 0 65 c 0
 0 109 34 133 82 133 c 1
 112 43 l 1
 153 57 216 130 216 281 c 0
 216 357 192 420 147 420 c 0
 116 420 86 409 33 362 c 1
 33 422 l 1
 79 468 148 493 202 493 c 0
 254 493 341 429 341 317 c 0x9780
302 229 m 1
 306 285 l 1
 631 285 l 1
 658 229 l 1
 302 229 l 1
357 0 m 1x3380
 449 475 l 1
 576 489 l 1
 481 0 l 1
 357 0 l 1x3380
591 167 m 0
 591 381 730 493 839 493 c 0x5780
 889 493 932 469 932 419 c 0
 932 375 898 351 850 351 c 1
 820 441 l 1
 779 427 716 354 716 203 c 0
 716 127 740 64 785 64 c 0
 816 64 846 75 899 122 c 1
 899 62 l 1
 853 16 784 -9 730 -9 c 0x5b80
 678 -9 591 55 591 167 c 0
EndSplineSet
Fore
SplineSet
341 317 m 0x9780
 341 103 202 -9 93 -9 c 0x5780
 43 -9 0 15 0 65 c 0
 0 109 34 133 82 133 c 1
 112 43 l 1
 153 57 216 130 216 281 c 0
 216 357 192 420 147 420 c 0
 116 420 85 407 37 362 c 1
 37 421 l 1
 81 469 137 493 202 493 c 0
 254 493 341 429 341 317 c 0x9780
302 229 m 1
 306 285 l 1
 631 285 l 1
 658 229 l 1
 302 229 l 1
357 0 m 1x3380
 449 475 l 1
 576 489 l 1
 481 0 l 1
 357 0 l 1x3380
591 167 m 0
 591 381 730 493 839 493 c 0x5780
 889 493 932 469 932 419 c 0
 932 375 898 351 850 351 c 1
 820 441 l 1
 779 427 716 354 716 203 c 0
 716 127 740 64 785 64 c 0
 816 64 847 77 895 122 c 1
 895 63 l 1
 851 15 795 -9 730 -9 c 0x5b80
 678 -9 591 55 591 167 c 0
EndSplineSet
EndChar

StartChar: cyrbreve
Encoding: 63188 63188 287
Width: 599
Flags: W
HStem: 545 52<308.116 415.092>
VStem: 203 115<638.818 704.846> 490 49<676.734 722>
LayerCount: 2
Fore
SplineSet
203 649 m 0
 203 697 227 717 257 717 c 0
 286 717 307 703 318 677 c 1
 307 617 l 1
 319 602 334 597 352 597 c 0
 416 597 470 661 490 722 c 1
 539 722 l 1
 512 619 431 545 342 545 c 0
 259 545 203 597 203 649 c 0
EndSplineSet
EndChar

StartChar: afii10077
Encoding: 1083 1083 290
Width: 630
Flags: W
HStem: -6 61<421.5 564.942> -4 140<6.39482 59> 414 79<353.4 464.5>
VStem: 366 122<37.9059 188.727> 418 117<242.883 411.841>
DStem2: 348.897 -6 464.04 -6 0.190809 0.981627<131.118 375.674>
LayerCount: 2
Back
SplineSet
449 493 m 0
 501 493 540 455 540 395 c 0
 540 376 536 349 529 316 c 2
 499 179 l 2
 492 145 488 121 488 105 c 0
 488 75 507 55 530 55 c 0
 550 55 572 59 596 66 c 1
 596 28 l 1
 534 5 483 -6 445 -6 c 0
 392 -6 364 19 364 65 c 0
 364 80 368 97 372 118 c 2
 408 284 l 2
 414 313 417 335 417 350 c 0
 417 387 398 408 368 408 c 0
EndSplineSet
Fore
SplineSet
-12 65 m 0x68
 -12 102 10 138 59 136 c 1
 99 77 l 1
 168 111 201 187 253 310 c 0
 303 429 331 493 427 493 c 0
 502 493 535 444 535 384 c 0x68
 535 365 533 337 526 304 c 2
 500 179 l 2
 493 145 488 111 488 100 c 0
 488 70 510 55 533 55 c 0
 553 55 577 59 601 66 c 1
 601 28 l 1
 539 5 486 -6 448 -6 c 0
 395 -6 366 15 366 61 c 0xb0
 366 76 369 97 373 118 c 2
 406 274 l 2
 412 303 418 349 418 364 c 0
 418 380 417 414 387 414 c 0
 359 414 352 404 301 281 c 0
 252 162 179 -4 63 -4 c 0
 9 -4 -12 32 -12 65 c 0x68
EndSplineSet
EndChar

StartChar: afii10086
Encoding: 1092 1092 291
Width: 704
Flags: MW
HStem: -218 40<112 142.375 371.706 401> -6 52<346 357> 437 52<431 442> 655 31<267 298.846>
VStem: 19 129<100.664 300.425> 526 129<182.575 382.336>
DStem2: 188.588 -218 306.92 -218 0.190809 0.981627<80.6458 878.297>
LayerCount: 2
Fore
SplineSet
328 489 m 1
 317 437 l 1
 194 419 148 289 148 183 c 0
 148 111 172 57 243 46 c 1
 232 -6 l 1
 94 1 19 85 19 193 c 0
 19 356 158 483 328 489 c 1
346 -6 m 1
 357 46 l 1
 480 64 526 194 526 300 c 0
 526 372 502 426 431 437 c 1
 442 489 l 1
 580 482 655 398 655 290 c 0
 655 127 516 0 346 -6 c 1
318 -161 m 1
 401 -179 l 1
 401 -218 l 1
 112 -218 l 1
 112 -178 l 1
 193 -162 l 1
 202 -149 l 1
 357 644 l 1
 267 655 l 1
 266 686 l 1
 449 725 l 1
 494 725 l 1
 481 671 469 614 457 553 c 2
 318 -161 l 1
EndSplineSet
EndChar

StartChar: afii10076
Encoding: 1082 1082 292
Width: 550
Flags: W
HStem: -7 52<382 514.681> 0 21G<29 156.773> 230 54<209 249.942> 417 33<26 55.1395> 473 20G<121.744 246 435.5 491>
VStem: 29 124<0 124>
DStem2: 27.6393 -7 151.639 -7 0.190809 0.981627<30.7913 420.936>
LayerCount: 2
Fore
SplineSet
193 230 m 1xbc
 204 284 l 1
 214 284 l 2
 256 284 302 333 332 390 c 4
 364 451 411 493 460 493 c 4
 522 493 541 453 541 425 c 4
 541 377 506 364 471 367 c 13
 440 418 l 21
 416 412 396 404 374 361 c 4
 355 324 330 277 286 264 c 1
 351 246 389 200 405 126 c 0
 418 64 434 45 472 45 c 0
 483 45 503 50 525 59 c 1
 525 20 l 1
 507 7 436 -7 398 -7 c 0
 366 -7 314 13 297 90 c 0
 277 178 252 230 209 230 c 2
 193 230 l 1xbc
153 0 m 1x7c
 29 0 l 1
 109 406 l 1
 26 417 l 1
 26 450 l 1
 205 493 l 1
 246 493 l 1
 153 0 l 1x7c
EndSplineSet
EndChar

StartChar: afii61352
Encoding: 8470 8470 293
Width: 1032
Flags: W
HStem: -8 54<-49.3881 65.9239> 0 49<-50 9.0625 676 904> 117 42<786.428 858.032> 377 42<816.111 889.157> 624 47<117 181 776.24 800> 625 54<684.076 799.388>
VStem: 702 73<166.441 326.558> 900 73<209.442 369.214>
DStem2: 74.679 -8 147.848 -8 0.190809 0.981627<74.3355 561.95> 330 647 252 530 0.351511 -0.936184<82.1157 505.266> 469.817 -8 545.445 -8 0.190809 0.981627<184.388 643.315>
LayerCount: 2
Back
SplineSet
704 268 m 0
 725 378 802 419 867 419 c 0
 932 419 991 378 970 268 c 0
 949 158 873 117 808 117 c 0
 743 117 683 158 704 268 c 0
664 0 m 1x73c0
 674 49 l 1
 916 49 l 1
 906 0 l 1
 664 0 l 1x73c0
781 268 m 0
 769 208 776 159 816 159 c 0
 856 159 881 208 893 268 c 0
 905 328 899 377 859 377 c 0
 819 377 793 328 781 268 c 0
509 170 m 1
 310 700 l 1
451 0 m 1
 252 530 l 1
11 0 m 1
 11 50 l 1
 76 55 l 1
 90 70 l 1
 192 605 l 1
 181 619 l 1
 117 624 l 1
 117 671 l 1
 338 671 l 1
 338 647 l 1
 503 162 l 1
 588 605 l 1
 576 618 l 1
 511 625 l 1
 511 671 l 1
 740 671 l 1
 740 624 l 1
 676 619 l 1
 660 606 l 1
 547 0 l 1
 444 0 l 1
 254 542 l 1
 164 72 l 1
 173 55 l 1
 239 49 l 1
 239 0 l 1
 11 0 l 1
EndSplineSet
Fore
SplineSet
702 241 m 0x33
 702 341 781 419 861 419 c 0
 916 419 973 385 973 295 c 0
 973 195 893 117 813 117 c 0
 758 117 702 151 702 241 c 0x33
775 233 m 0
 775 178 794 159 819 159 c 0
 874 159 900 253 900 303 c 0
 900 358 880 377 855 377 c 0
 800 377 775 283 775 233 c 0
666 0 m 1x73
 676 49 l 1
 914 49 l 1
 904 0 l 1
 666 0 l 1x73
-50 0 m 1
 -50 48 l 1
 -44 47 -31 46 -26 46 c 0
 82 46 93 81 112 184 c 2
 192 605 l 1
 181 619 l 1
 117 624 l 1
 117 671 l 1
 330 671 l 1xbb
 330 647 l 1
 505 173 l 1
 559 457 l 2
 590 616 618 679 740 679 c 0x37
 760 679 780 675 800 671 c 1x3b
 800 623 l 1
 794 624 781 625 776 625 c 0
 668 625 657 590 638 487 c 2
 547 0 l 1
 451 0 l 1x77
 252 530 l 1
 191 214 l 2
 160 55 132 -8 10 -8 c 0xb3
 -10 -8 -30 -4 -50 0 c 1
EndSplineSet
EndChar

StartChar: afii10097
Encoding: 1103 1103 294
Width: 588
Flags: W
HStem: -6 61<377.5 519.034> 205 52<254.287 349> 430 53<277.266 390.344>
VStem: 105 125<281.726 388.259> 324 124<60.6141 189.234>
DStem2: 307.37 -6 423.04 -6 0.190809 0.981627<135.556 215.067 267.829 441.002>
LayerCount: 2
Back
SplineSet
519 490 m 9
 459 179 l 2
 452 145 448 120 448 104 c 0
 448 74 466 55 489 55 c 0
 509 55 531 59 555 66 c 1
 555 28 l 1
 493 5 442 -6 404 -6 c 0
 351 -6 324 18 324 63 c 0
 324 78 330 110 334 131 c 2
 400 475 l 17
 519 490 l 9
EndSplineSet
Fore
SplineSet
-16 54 m 0
 -16 98 12 120 51 124 c 1
 87 70 l 1
 118 79 131 102 144 137 c 0
 160 179 188 215 229 228 c 1
 174 235 105 272 105 330 c 0
 105 402 159 483 339 483 c 2
 518 483 l 9
 459 179 l 2
 452 145 448 120 448 104 c 0
 448 74 466 55 489 55 c 0
 509 55 531 59 555 66 c 1
 555 28 l 1
 493 5 442 -6 404 -6 c 0
 351 -6 324 18 324 63 c 0
 324 78 330 110 334 131 c 2
 349 205 l 1
 312 205 l 2
 259 205 213 164 194 113 c 0
 159 18 108 -6 56 -6 c 0
 11 -6 -16 18 -16 54 c 0
230 328 m 0
 230 302 251 257 322 257 c 2
 358 257 l 1
 391 427 l 1
 377 429 364 430 354 430 c 0
 261 430 230 370 230 328 c 0
EndSplineSet
EndChar

StartChar: afii10095
Encoding: 1101 1101 295
Width: 483
Flags: W
HStem: -10 52<109.503 223.212> 207 61<184.697 275.757> 235 61<97.5712 190.452> 349 56<64 120> 441 52<152.216 274.445>
VStem: -10 115<52.0156 142.56>
LayerCount: 2
Back
SplineSet
-48 197 m 0
 -48 275 -16 355 39 412 c 0
 89 464 158 493 231 493 c 0
 356 493 434 413 434 287 c 0
 434 206 403 127 347 69 c 0
 297 17 229 -11 155 -11 c 0
 30 -11 -48 70 -48 197 c 0
81 181 m 0
 81 89 111 41 166 41 c 0
 240 41 305 145 305 298 c 0
 305 394 276 441 218 441 c 0
 146 441 81 338 81 181 c 0
EndSplineSet
Fore
SplineSet
61 244 m 1xbc
 96 277 124 296 153 296 c 0xbc
 190 296 216 268 242 268 c 0
 251 268 293 268 309 310 c 1
 316 286 l 1
 309 267 l 1
 287 228 249 207 222 207 c 0xdc
 185 207 160 235 131 235 c 0
 119 235 103 234 81 216 c 1
 61 244 l 1xbc
-10 88 m 0
 -10 129 12 156 51 156 c 0
 77 156 91 145 105 130 c 1
 105 67 l 1
 120 55 137 42 168 42 c 0
 240 42 309 153 309 278 c 0
 309 373 290 441 228 441 c 0
 185 441 130 417 64 349 c 1
 64 405 l 1
 137 475 181 493 243 493 c 0
 352 493 434 417 434 287 c 0
 434 127 333 -10 151 -10 c 0
 70 -10 -10 39 -10 88 c 0
EndSplineSet
EndChar

StartChar: afii10073
Encoding: 1079 1079 296
Width: 470
Flags: W
HStem: -9 51<109.939 240.227> 229 54<139 254.799> 346 56<64 120> 441 51<161.752 297.496>
VStem: -10 115<50.7245 146.792> 289 120<89.5705 205.171> 311 105<335.982 425.557>
LayerCount: 2
Back
SplineSet
106 255 m 1xd0
 216 279 312 305 312 387 c 0
 312 434 279 448 242 448 c 0
 192 448 138 413 118 315 c 2
 106 255 l 1xd0
-26 148 m 2
 1 310 l 2
 20 423 136 493 259 493 c 0
 361 493 418 444 418 391 c 0xd0
 418 318 337 275 281 267 c 1
 365 259 409 225 409 158 c 0xe0
 409 64 289 -9 167 -9 c 0
 45 -9 -46 31 -26 148 c 2
173 38 m 0
 232 38 289 92 289 147 c 0xe0
 289 208 249 230 204 230 c 0
 175 230 134 219 100 209 c 1
 91 167 l 2
 64 43 124 38 173 38 c 0
228 441 m 0
 185 441 130 417 64 349 c 1
 64 405 l 1
 137 475 181 493 243 493 c 0
151 -10 m 0
 70 -10 -10 39 -10 88 c 0
 -10 129 12 156 51 156 c 0
 77 156 91 145 105 130 c 1
 105 67 l 1
 120 55 137 42 168 42 c 0
EndSplineSet
Fore
SplineSet
-10 91 m 0xfc
 -10 132 12 161 51 161 c 0
 77 161 91 150 105 135 c 1
 105 68 l 1
 120 53 131 42 173 42 c 0
 224 42 289 81 289 150 c 0xfc
 289 195 267 229 178 229 c 1
 127 227 l 1
 139 285 l 1
 187 283 l 1
 252 283 311 342 311 386 c 0
 311 422 276 441 233 441 c 0
 198 441 130 414 64 346 c 1
 64 402 l 1
 137 472 193 492 254 492 c 0
 352 492 416 456 416 392 c 0xfa
 416 331 361 279 287 262 c 1
 352 252 409 227 409 155 c 0
 409 60 286 -9 156 -9 c 0
 53 -9 -10 42 -10 91 c 0xfc
EndSplineSet
EndChar

StartChar: afii10078
Encoding: 1084 1084 297
Width: 766
Flags: W
HStem: -6 61<580.685 697.034> 425 31<161 196> 470 20G<231.824 385 574 693.141>
VStem: 283 102<246.1 363> 295 100<148 211.333> 502 124<60.6141 193.367>
DStem2: 395 148 362 -1 0.483395 0.875402<0 269.422> 485.37 -6 601.04 -6 0.190809 0.981627<135.556 374.901>
LayerCount: 2
Back
SplineSet
585 493 m 1
 384 129 l 1
397 119 m 1
 385 483 l 17
563 363 m 1
 362 -1 l 1
 295 -1 l 1
 283 363 l 17
EndSplineSet
Fore
SplineSet
-12 65 m 0xf4
 -12 107 25 140 61 126 c 1
 92 80 l 1
 161 107 198 186 241 409 c 1
 161 425 l 1
 161 456 l 1
 333 490 l 1
 385 475 l 1xf4
 395 148 l 1
 574 475 l 1
 697 490 l 9
 637 179 l 2
 630 145 626 120 626 104 c 0
 626 74 644 55 667 55 c 0
 687 55 709 59 733 66 c 1
 733 28 l 1
 671 5 620 -6 582 -6 c 0
 529 -6 502 18 502 63 c 0
 502 78 508 110 512 131 c 2
 541 284 l 18
 544 298 549 319 563 363 c 1
 362 -1 l 1
 295 -1 l 1xec
 283 363 l 17
 234 86 156 -4 66 -4 c 0
 9 -4 -12 32 -12 65 c 0xf4
EndSplineSet
EndChar

StartChar: afii10092
Encoding: 1098 1098 298
Width: 612
Flags: W
HStem: -9 50<278.523 393.679> 263 53<320.665 423.967> 471 20G<329 419>
VStem: 139 120<61.0768 205.469> 440 120<102.544 247.613>
LayerCount: 2
Back
SplineSet
111 420 m 1
 111 453 l 1
 288 493 l 1
 326 493 l 1
 279 260 l 17
 311 302 362 316 417 316 c 0
 494 316 560 274 560 187 c 0
 560 81 468 -9 325 -9 c 0
 173 -9 131 77 152 191 c 2
 193 407 l 1
 111 420 l 1
265 182 m 1
 250 107 257 41 330 41 c 0
 390 41 440 87 440 175 c 0
 440 237 420 263 370 263 c 0
 341 263 289 230 265 182 c 1
EndSplineSet
Fore
SplineSet
19 329 m 1
 50 484 l 1
 111 484 l 1
 184 462 285 475 373 491 c 1
 419 491 l 1
 367 432 302 338 276 257 c 1
 308 299 362 316 417 316 c 0
 494 316 560 274 560 187 c 0
 560 81 468 -9 325 -9 c 0
 197 -9 139 60 139 131 c 0
 139 210 186 302 320 438 c 1
 245 413 172 390 118 404 c 1
 103 394 l 1
 81 329 l 1
 19 329 l 1
265 182 m 1
 261 162 259 143 259 125 c 0
 259 77 277 41 330 41 c 0
 390 41 440 87 440 175 c 0
 440 237 420 263 370 263 c 0
 341 263 289 230 265 182 c 1
EndSplineSet
EndChar

StartChar: afii10090
Encoding: 1096 1096 299
Width: 884
Flags: MW
HStem: -10 85<136.191 229.632 419.001 512.529> -9 64<696.833 801.701> 419 31<28 60.7297> 467 20G<107.486 240 404 519.156 693 808.194>
DStem2: 29.1216 -10 143.513 -10 0.190809 0.981627<164.786 424.389> 311.426 -10 426.679 -10 0.190809 0.981627<167.769 493.753> 599.62 -10 716.262 -10 0.190809 0.981627<140.979 493.907>
LayerCount: 2
Back
SplineSet
815 66 m 1
 815 31 l 1x58
 645 -10 l 1xa8
 606 -10 l 1
 625 88 l 1
 550 21 483 -10 432 -10 c 0
 375 -10 341 23 338 85 c 1
 264 20 198 -10 152 -10 c 0
 91 -10 53 28 53 89 c 0
 53 108 56 129 61 154 c 2
 93 304 l 2
 100 336 104 360 104 377 c 0
 104 408 86 428 63 428 c 0
 43 428 20 424 -4 417 c 1
 -4 454 l 1
 59 477 109 489 147 489 c 0xa8
 200 489 228 465 228 418 c 0
 228 404 225 387 220 365 c 2
 182 188 l 2
 177 166 174 147 174 130 c 0
 174 95 192 75 224 75 c 0
 254 75 298 95 342 137 c 1
 401 483 l 1
 524 483 l 1
 466 182 l 2
 462 161 459 145 459 132 c 0
 459 95 477 74 509 74 c 0x60
 536 74 579 94 630 136 c 1
 691 483 l 1
 813 483 l 1
 735 78 l 1
 815 66 l 1
EndSplineSet
Fore
SplineSet
28 419 m 1xb0
 28 450 l 1
 201 487 l 1
 240 487 l 1
 182 188 l 2
 178 166 174 144 174 129 c 0
 174 94 192 75 224 75 c 0xb0
 252 75 296 95 340 137 c 1
 404 475 l 1
 523 489 l 1
 464 182 l 2
 460 161 457 145 457 132 c 0
 457 95 475 74 507 74 c 0
 534 74 577 94 628 136 c 1
 693 475 l 1
 812 489 l 1
 753 179 l 2
 747 150 742 125 742 105 c 0
 742 74 761 55 784 55 c 0
 804 55 827 59 851 66 c 1
 851 29 l 1
 781 5 729 -9 694 -9 c 0x70
 645 -9 623 29 623 79 c 0
 623 82 623 85 623 88 c 1
 548 21 481 -10 430 -10 c 0
 373 -10 339 23 336 85 c 1
 262 20 196 -10 152 -10 c 0
 91 -10 53 28 53 89 c 0
 53 108 56 129 61 154 c 2
 108 407 l 1
 28 419 l 1xb0
EndSplineSet
EndChar

StartChar: afii10089
Encoding: 1095 1095 300
Width: 582
Flags: W
HStem: -6 61<371.5 513.034> 182 72<149 285.573> 417 32<20 48.1591> 470 23G<116.545 238 394 509.141>
VStem: 318 122<60.1232 189.422>
DStem2: 301.37 -6 417.04 -6 0.190809 0.981627<129.289 489.837>
LayerCount: 2
Back
SplineSet
513 490 m 9
 453 179 l 2
 446 145 442 120 442 104 c 0
 442 74 460 55 483 55 c 0
 503 55 525 59 549 66 c 1
 549 28 l 1
 487 5 436 -6 398 -6 c 0
 345 -6 318 18 318 63 c 0
 318 78 324 110 328 131 c 2
 394 475 l 17
 513 490 l 9
145 0 m 1
 21 0 l 1
 101 406 l 1
 18 417 l 1
 18 450 l 1
 197 493 l 1
 238 493 l 1
 145 0 l 1
EndSplineSet
Fore
SplineSet
513 490 m 9
 453 179 l 2
 446 145 440 114 440 98 c 0
 440 68 460 55 483 55 c 0
 503 55 525 59 549 66 c 1
 549 28 l 1
 487 5 436 -6 398 -6 c 0
 345 -6 318 18 318 63 c 0
 318 78 324 110 328 131 c 2
 394 475 l 17
 513 490 l 9
20 417 m 1
 20 449 l 1
 197 493 l 1
 238 493 l 1
 206 335 l 2
 191 264 221 254 250 254 c 0
 286 254 324 266 359 282 c 1
 351 237 l 1
 298 207 250 182 189 182 c 0
 109 182 64 237 84 328 c 2
 101 406 l 1
 20 417 l 1
EndSplineSet
EndChar

StartChar: afii10088
Encoding: 1094 1094 301
Width: 607
Flags: MW
HStem: -190 21G<469 567> -10 85<123.5 235.409> -9 64<380 522.895> 419 31<28 60.7297> 467 20G<107.486 239 414 529.194>
VStem: 53 120<83.3161 229.148> 340 122<60.1514 77> 469 92<-190 -139.412>
DStem2: -6.50617 -190 107.524 -190 0.190809 0.981627<347.949 607.88> 285.159 -190 402.274 -190 0.190809 0.981627<319.343 677.366>
LayerCount: 2
Back
SplineSet
28 419 m 1
 28 450 l 1
 201 487 l 1
 239 487 l 1
 181 188 l 2
 176 161 173 141 173 129 c 0
 173 93 192 75 226 75 c 0
 255 75 296 90 346 123 c 1
 414 475 l 1
 533 489 l 1
 474 179 l 2
 468 150 463 126 463 106 c 0
 463 75 482 55 505 55 c 0
 525 55 548 59 572 66 c 5
 572 29 l 1
 502 5 450 -9 415 -9 c 0
 366 -9 340 18 340 68 c 0
 340 71 340 74 340 77 c 1
 262 18 199 -10 156 -10 c 0
 91 -10 53 28 53 93 c 0
 53 108 55 126 59 147 c 2
 108 407 l 1
 28 419 l 1
EndSplineSet
Fore
SplineSet
28 419 m 1xdd
 28 450 l 1
 201 487 l 1
 239 487 l 1
 181 188 l 2
 176 161 173 141 173 129 c 0
 173 93 192 75 226 75 c 0xdd
 255 75 296 90 346 123 c 1
 414 475 l 1
 533 489 l 1
 474 179 l 2
 468 150 462 120 462 100 c 0
 462 69 482 55 505 55 c 0
 525 55 551 61 583 70 c 1
 583 31 l 2
 583 -37 573 -121 561 -190 c 1
 469 -190 l 1
 501 -119 522 -51 530 15 c 1
 490 3 449 -9 417 -9 c 0xbd
 343 -9 340 53 340 77 c 1
 262 18 199 -10 156 -10 c 0
 91 -10 53 28 53 93 c 0
 53 108 55 126 59 147 c 2
 108 407 l 1
 28 419 l 1xdd
EndSplineSet
EndChar

StartChar: afii10091
Encoding: 1097 1097 302
Width: 886
Flags: MW
HStem: -190 21G<748 846> -10 85<136.191 229.632 419.001 512.529> -9 64<694.316 802.552> 419 31<28 60.7297> 467 20G<107.486 240 404 519.156 693 808.194>
VStem: 53 121<82.7857 227.242> 336 121<85 132> 623 119<59.628 88> 748 92<-190 -139.412>
DStem2: -5.86683 -190 108.524 -190 0.190809 0.981627<348.155 607.758> 276.438 -190 391.691 -190 0.190809 0.981627<351.138 677.122> 564.632 -190 681.274 -190 0.190809 0.981627<319.443 677.276>
LayerCount: 2
Back
SplineSet
28 419 m 5xb0
 28 450 l 5
 201 487 l 5
 240 487 l 5
 182 188 l 6
 178 166 174 144 174 129 c 4
 174 94 192 75 224 75 c 4xb0
 252 75 296 95 340 137 c 5
 404 475 l 5
 523 489 l 5
 464 182 l 6
 460 161 457 145 457 132 c 4
 457 95 475 74 507 74 c 4
 534 74 577 94 628 136 c 5
 693 475 l 5
 812 489 l 5
 753 179 l 6
 747 150 742 125 742 105 c 4
 742 74 761 55 784 55 c 4
 804 55 827 59 851 66 c 5
 851 29 l 5
 781 5 729 -9 694 -9 c 4x70
 645 -9 623 29 623 79 c 4
 623 82 623 85 623 88 c 5
 548 21 481 -10 430 -10 c 4
 373 -10 339 23 336 85 c 5
 262 20 196 -10 152 -10 c 4
 91 -10 53 28 53 89 c 4
 53 108 56 129 61 154 c 6
 108 407 l 5
 28 419 l 5xb0
EndSplineSet
Fore
SplineSet
28 419 m 1xdc80
 28 450 l 1
 201 487 l 1
 240 487 l 1
 182 188 l 2
 178 166 174 144 174 129 c 0
 174 94 192 75 224 75 c 0xdc80
 252 75 296 95 340 137 c 1
 404 475 l 1
 523 489 l 1
 464 182 l 2
 460 161 457 145 457 132 c 0
 457 95 475 74 507 74 c 0
 534 74 577 94 628 136 c 1
 693 475 l 1
 812 489 l 1
 753 179 l 2
 747 150 742 120 742 100 c 0
 742 69 761 55 784 55 c 0
 810 55 840 63 862 70 c 1
 862 31 l 2
 862 -37 852 -121 840 -190 c 1
 748 -190 l 1
 780 -119 801 -51 809 15 c 1
 782 6 735 -9 696 -9 c 0xbc80
 642 -9 623 35 623 88 c 1
 548 21 481 -10 430 -10 c 0
 373 -10 339 23 336 85 c 1
 262 20 196 -10 152 -10 c 0
 91 -10 53 28 53 89 c 0
 53 108 56 129 61 154 c 2
 108 407 l 1
 28 419 l 1xdc80
EndSplineSet
EndChar

StartChar: afii10096
Encoding: 1102 1102 303
Width: 807
Flags: MW
HStem: -11 52<462.5 516> 0 21G<29 156.773> 229 56<133 348> 417 33<26 55.1395> 441 52<518.5 571> 473 20G<121.744 246>
VStem: 29 124<0 124> 276 129<135 236> 629 129<246.5 346>
DStem2: 29 0 153 0 0.185372 0.982669<22.9861 243.568 299.339 413.793>
LayerCount: 2
Fore
SplineSet
129 229 m 1x2380
 133 285 l 1
 348 285 l 1
 375 229 l 1
 129 229 l 1x2380
153 0 m 1x7780
 29 0 l 1
 109 406 l 1
 26 417 l 1
 26 450 l 1
 205 493 l 1
 246 493 l 1
 153 0 l 1x7780
EndSplineSet
Refer: 79 111 N 1 0 0 1 257 0 2
EndChar

StartChar: .notdef
Encoding: 0 0 305
Width: 670
VWidth: 0
Flags: W
HStem: 0 81<153 517> 100 107<269.475 353.324> 543 41<298 360.294> 619 81<153 517>
VStem: 70 83<81 619> 259 105<110.846 196.391> 287 46<240 311.83> 389 91<388.159 516.265> 517 83<81 619>
LayerCount: 2
Fore
SplineSet
70 0 m 1xf980
 70 700 l 1
 600 700 l 1
 600 0 l 1
 70 0 l 1xf980
153 81 m 1
 517 81 l 1
 517 619 l 1
 153 619 l 1
 153 81 l 1
198 506 m 0
 198 548 246 584 322 584 c 0
 418 584 480 531 480 455 c 0
 480 386 430 336 333 304 c 1
 333 240 l 1
 287 240 l 1
 287 335 l 1xfb80
 353 358 389 399 389 455 c 0
 389 510 355 543 298 543 c 9
 264 465 l 1
 260 464 255 463 250 463 c 0
 217 463 198 479 198 506 c 0
259 154 m 0xfd80
 259 183 282 207 311 207 c 0
 340 207 364 184 364 152 c 0
 364 124 340 100 310 100 c 0
 283 100 259 122 259 154 c 0xfd80
EndSplineSet
EndChar

StartChar: dotaccent.i
Encoding: 65536 -1 306
Width: 318
Flags: W
HStem: 586 139<165.099 264.693>
VStem: 143 144<608.01 702.218>
LayerCount: 2
Fore
SplineSet
143 649 m 4
 143 693 176 725 220 725 c 4
 262 725 287 700 287 661 c 4
 287 619 254 586 211 586 c 4
 170 586 143 612 143 649 c 4
EndSplineSet
EndChar

StartChar: ring.cap
Encoding: 61427 61427 313
Width: 500
Flags: W
HStem: 732 52<303.469 396.368> 919 52<301.681 397.137>
VStem: 232 53<802.082 901.733> 415 52<801.867 901.948>
LayerCount: 2
Fore
SplineSet
232 852 m 0
 232 919 285 971 350 971 c 0
 416 971 467 920 467 852 c 0
 467 784 416 732 350 732 c 0
 285 732 232 785 232 852 c 0
285 852 m 0
 285 815 314 784 349 784 c 0
 385 784 415 815 415 852 c 0
 415 890 386 919 350 919 c 0
 314 919 285 890 285 852 c 0
EndSplineSet
EndChar

StartChar: afii10146
Encoding: 1122 1122 316
Width: 730
Flags: MW
HStem: 0 49<91 155> 0 58<295.891 449.146> 326 57<354 488.919> 432 159<71 106 496 560> 534 57<157 483> 624 47<196 260 409 474>
VStem: 41 65<432 432> 496 64<432 469.1> 526 138<131.143 290.046>
DStem2: 156.588 0 283.143 0 0.190809 0.981627<86.2896 359.413 410.686 615.715>
LayerCount: 2
Fore
SplineSet
257 534 m 1x2d
 157 534 l 1x2d
 139 521 l 1
 106 432 l 1
 41 432 l 1
 71 591 l 1x35
 590 591 l 1x2d
 560 432 l 1
 496 432 l 1x35
 496 521 l 1
 483 534 l 1
 383 534 l 1
 257 534 l 1x2d
EndSplineSet
Refer: 262 1068 N 1 0 0 1 114 0 2
EndChar

StartChar: afii10147
Encoding: 1138 1138 317
Width: 729
Flags: MW
HStem: -13 61<254.278 397.335> 276 87<371.377 488.47> 312 87<238.73 354.623> 624 60<329.288 474.096>
VStem: 38 138<148.428 404.711> 549 141<268.246 521.955>
LayerCount: 2
Back
SplineSet
38 265 m 4
 38 368 70 464 130 543 c 4
 197 632 302 684 412 684 c 4
 579 684 690 573 690 408 c 4
 690 305 657 207 598 130 c 4
 527 38 426 -13 313 -13 c 4
 148 -13 38 98 38 265 c 4
176 256 m 4
 176 126 238 48 324 48 c 4
 383 48 440 86 485 161 c 4
 524 226 549 319 549 416 c 4
 549 549 492 624 403 624 c 4
 343 624 288 586 244 512 c 4
 202 443 176 349 176 256 c 4
EndSplineSet
Fore
SplineSet
312 399 m 0xbc
 347 399 413 363 458 363 c 0
 478 363 531 366 550 424 c 1
 550 352 l 1
 495 297 469 276 414 276 c 0xdc
 379 276 313 312 268 312 c 0
 248 312 196 308 175 250 c 1
 177 323 l 1
 232 378 257 399 312 399 c 0xbc
38 265 m 0
 38 368 70 464 130 543 c 0
 197 632 302 684 412 684 c 0
 579 684 690 573 690 408 c 0
 690 305 657 207 598 130 c 0
 527 38 426 -13 313 -13 c 0
 148 -13 38 98 38 265 c 0
176 256 m 0
 176 126 238 48 324 48 c 0
 383 48 440 86 485 161 c 0
 524 226 549 319 549 416 c 0
 549 549 492 624 403 624 c 0
 343 624 288 586 244 512 c 0
 202 443 176 349 176 256 c 0
EndSplineSet
EndChar

StartChar: afii10195
Encoding: 1139 1139 318
Width: 550
Flags: MW
HStem: -11 52<181.5 289.133> 199 62<254.679 342.29> 227 62<177.71 265.321> 441 52<230.693 338.491>
VStem: 19 129<93.0248 307.089> 372 129<174.497 389.4>
LayerCount: 2
Back
SplineSet
19 197 m 4
 19 275 51 355 106 412 c 4
 156 464 225 493 298 493 c 4
 423 493 501 413 501 287 c 4
 501 206 470 127 414 69 c 4
 364 17 296 -11 222 -11 c 4
 97 -11 19 70 19 197 c 4
148 181 m 4
 148 89 178 41 233 41 c 4
 307 41 372 145 372 298 c 4
 372 394 343 441 285 441 c 4
 213 441 148 338 148 181 c 4
EndSplineSet
Fore
SplineSet
226 289 m 0xb8
 259 289 283 261 313 261 c 0
 324 261 352 261 372 303 c 1
 380 281 l 1
 369 256 l 1
 345 219 327 199 294 199 c 0xd8
 261 199 237 227 207 227 c 0
 196 227 168 227 148 185 c 1
 140 207 l 1
 151 232 l 1
 175 269 193 289 226 289 c 0xb8
19 197 m 0
 19 275 51 355 106 412 c 0
 156 464 225 493 298 493 c 0
 423 493 501 413 501 287 c 0
 501 206 470 127 414 69 c 0
 364 17 296 -11 222 -11 c 0
 97 -11 19 70 19 197 c 0
148 181 m 0
 148 89 178 41 233 41 c 0
 307 41 372 145 372 298 c 0
 372 394 343 441 285 441 c 0
 213 441 148 338 148 181 c 0
EndSplineSet
EndChar

StartChar: afii10148
Encoding: 1140 1140 319
Width: 742
Flags: HW
HStem: -3 21G<187.733 298.691> 602 82<620.727 695.407> 623 48<27 83 224 285>
VStem: 704 55<518 553.778>
DStem2: 215 603 92 603 0.161229 -0.986917<0 471.834> 289 137 288 -3 0.471425 0.881906<0 554.722>
LayerCount: 2
Back
SplineSet
27 623 m 5
 27 671 l 5
 285 671 l 5
 285 623 l 5
 224 619 l 5
 215 603 l 5
 289 137 l 5
 531 606 l 5
 524 619 l 5
 466 623 l 5
 466 671 l 5
 677 671 l 5
 677 625 l 5
 619 616 l 5
 288 -3 l 5
 191 -3 l 5
 92 603 l 5
 83 616 l 5
 27 623 l 5
EndSplineSet
Fore
SplineSet
27 623 m 1xb0
 27 671 l 1
 285 671 l 1
 285 623 l 1xb0
 224 619 l 1
 215 603 l 1
 289 137 l 1
 477 503 l 2
 531 607 588 684 692 684 c 0
 725 684 769 670 786 656 c 1
 759 518 l 1
 704 518 l 1
 704 577 693 602 666 602 c 0xd0
 633 602 588 559 551 489 c 2
 288 -3 l 1
 191 -3 l 1
 92 603 l 1
 83 616 l 1
 27 623 l 1xb0
EndSplineSet
EndChar

StartChar: afii10196
Encoding: 1141 1141 320
Width: 550
Flags: HW
HStem: 0 21G<158.099 251.595> 424 32<-8 21.8919> 473 20G<64.5946 167.5 474.5 525>
DStem2: 201 392 107 282 0.191429 -0.981507<-43.097 276.158> 249 120 242 0 0.432548 0.901611<0 355.861>
LayerCount: 2
Fore
SplineSet
-8 424 m 1
 -8 456 l 1
 150 493 l 1
 185 471 192 443 201 392 c 2
 249 120 l 1
 352 356 l 2
 396 456 454 493 495 493 c 0
 555 493 570 456 570 434 c 0
 570 391 547 365 511 365 c 9
 476 418 l 17
 456 414 426 383 396 321 c 2
 242 0 l 1
 162 0 l 1
 107 282 l 2
 94 348 84 392 73 412 c 1
 -8 424 l 1
EndSplineSet
EndChar

StartChar: afii10194
Encoding: 1123 1123 321
Width: 821
Flags: W
HStem: -9 50<486.67 602.679> 0 21G<34 159.704> 263 53<528.738 632.967> 409 84<341.028 439.5> 417 35<32 61.0244>
VStem: 34 122<0 122> 388 121<240.414 404.974> 649 120<102.544 247.613>
DStem2: 32.2506 -9 154.251 -9 0.190809 0.981627<32.4471 318.711 340.975 340.975> 320.463 -9 435.712 -9 0.190809 0.981627<117.692 259.633 296.025 365.84>
LayerCount: 2
Back
SplineSet
535 493 m 1
 488 260 l 17
 520 302 571 316 626 316 c 0
 703 316 769 274 769 187 c 0
 769 81 677 -9 534 -9 c 0
 382 -9 340 77 361 191 c 2
 402 407 l 1
474 182 m 1
 459 107 466 41 539 41 c 0
 599 41 649 87 649 175 c 0
 649 237 629 263 579 263 c 0
 550 263 498 230 474 182 c 1
505 346 m 1
 446 0 l 1
 323 0 l 1
 381 301 l 2
 385 322 388 338 388 351 c 0
 388 388 370 409 338 409 c 0
 311 409 268 389 217 347 c 1
 156 0 l 1
 34 0 l 1
 112 405 l 1
 32 417 l 1
 32 452 l 1
 202 493 l 1
 241 493 l 1
 222 395 l 1
 297 462 364 493 415 493 c 0
 472 493 506 460 509 398 c 1
EndSplineSet
Fore
SplineSet
32 417 m 1x6f
 32 452 l 1x6f
 202 493 l 1
 241 493 l 1
 209 304 l 1
 286 451 349 493 415 493 c 0
 464 493 509 460 509 389 c 0
 509 381 506 363 503 345 c 2
 488 260 l 17
 520 302 571 316 626 316 c 0
 703 316 769 274 769 187 c 0
 769 81 677 -9 534 -9 c 0
 382 -9 340 77 361 191 c 2
 378 287 l 2
 382 309 388 342 388 351 c 0
 388 387 376 409 350 409 c 0xb7
 320 409 266 346 196 216 c 1
 156 0 l 1
 34 0 l 1
 112 405 l 1
 32 417 l 1x6f
474 182 m 1
 459 107 466 41 539 41 c 0xa7
 599 41 649 87 649 175 c 0
 649 237 629 263 579 263 c 0
 550 263 498 230 474 182 c 1
EndSplineSet
EndChar

StartChar: Euro
Encoding: 8364 8364 322
Width: 581
Flags: W
HStem: -12 57<256.562 407.344> 262 50<20 400> 378 50<42 422> 626 57<372.953 511.783>
VStem: 88 128<124.471 308.315> 522 63<507 543>
LayerCount: 2
Back
SplineSet
32 378 m 1
 42 428 l 1
 432 428 l 1
 422 378 l 1
 32 378 l 1
10 262 m 1
 20 312 l 1
 410 312 l 1
 400 262 l 1
 10 262 l 1
98 336 m 0
 140 554 291 683 457 683 c 0
 489 683 570 678 615 651 c 1
 587 507 l 1
 521 507 l 1
 523 592 l 1
 513 611 l 1
 488 624 462 626 439 626 c 0
 346 626 275 546 234 336 c 0
 194 130 233 45 320 45 c 0
 346 45 369 48 396 54 c 1
 415 67 l 1
 455 168 l 1
 521 168 l 1
 492 21 l 1
 433 -6 353 -12 306 -12 c 0
 170 -12 51 92 98 336 c 0
EndSplineSet
Fore
SplineSet
32 378 m 1
 42 428 l 1
 432 428 l 1
 422 378 l 1
 32 378 l 1
10 262 m 1
 20 312 l 1
 410 312 l 1
 400 262 l 1
 10 262 l 1
88 239 m 0
 88 507 260 683 444 683 c 0
 479 683 568 678 613 651 c 1
 585 507 l 1
 522 507 l 1
 522 592 l 1
 512 611 l 1
 487 624 462 626 439 626 c 0
 384 626 333 587 297 520 c 0
 254 439 216 304 216 196 c 0
 216 91 252 45 320 45 c 0
 346 45 372 48 399 54 c 1
 418 67 l 1
 455 168 l 1
 521 168 l 1
 492 21 l 1
 433 -6 364 -12 312 -12 c 0
 194 -12 88 74 88 239 c 0
EndSplineSet
EndChar

StartChar: space_uni030F
Encoding: 61861 61861 323
Width: 500
Flags: HMW
HStem: 552 190<234 235>
VStem: 112 344<552 742>
LayerCount: 2
Fore
SplineSet
112 742 m 1
 235 742 l 1
 325 552 l 1
 259 552 l 1
 112 742 l 1
290 742 m 1
 399 742 l 1
 456 552 l 1
 398 552 l 1
 290 742 l 1
EndSplineSet
EndChar

StartChar: uni2070
Encoding: 8304 8304 324
Width: 386
VWidth: 868
Flags: W
HStem: 261 35<121.374 204.089> 643 35<182.7 266.068>
VStem: 19 85<318.193 515.528> 282 84<420.173 621.601>
LayerCount: 2
Fore
SplineSet
19 397 m 0
 19 471 40 540 77 593 c 0
 115 648 173 678 232 678 c 0
 316 678 366 624 366 534 c 0
 366 463 346 398 311 347 c 0
 271 290 217 261 150 261 c 0
 73 261 19 316 19 397 c 0
104 374 m 0
 104 322 124 296 161 296 c 0
 195 296 220 320 242 369 c 0
 266 424 282 496 282 567 c 0
 282 617 264 643 228 643 c 0
 192 643 167 619 145 569 c 0
 121 514 104 441 104 374 c 0
EndSplineSet
EndChar

StartChar: uni2074
Encoding: 8308 8308 325
Width: 386
VWidth: 868
Flags: W
HStem: 376 47<71 204 290 354> 654 20G<255.645 342>
VStem: 178 75<249 324>
DStem2: 9 423 71 423 0.729877 0.683579<45.2524 293.522> 178 249 253 249 0.190809 0.981627<14.3107 129.628 192.174 352.59>
LayerCount: 2
Fore
SplineSet
-1 376 m 1
 9 423 l 1
 277 674 l 1
 342 674 l 1
 290 423 l 1
 363 423 l 1
 354 376 l 1
 280 376 l 1
 253 249 l 1
 178 249 l 1
 204 376 l 1
 -1 376 l 1
71 423 m 1
 214 423 l 1
 251 594 l 1
 71 423 l 1
EndSplineSet
EndChar

StartChar: uni2075
Encoding: 8309 8309 326
Width: 386
VWidth: 868
Flags: W
HStem: 262 34<97.0919 192.59> 474 46<126.238 220.244> 610 61<148 351>
VStem: 246 87<349.809 448.364>
DStem2: 25.9577 262 77.1824 262 0.190809 0.981627<260.378 364.893>
LayerCount: 2
Fore
SplineSet
13 330 m 0
 13 353 33 372 61 372 c 0
 70 372 78 370 87 366 c 1
 97 302 l 1
 106 298 116 296 129 296 c 0
 199 296 246 343 246 399 c 0
 246 445 209 474 143 474 c 0
 119 474 94 471 66 468 c 1
 110 671 l 1
 364 671 l 1
 351 610 l 1
 148 610 l 1
 125 508 l 1
 158 516 185 520 205 520 c 0
 285 520 333 481 333 422 c 0
 333 334 246 262 128 262 c 0
 57 262 13 293 13 330 c 0
EndSplineSet
EndChar

StartChar: uni2076
Encoding: 8310 8310 327
Width: 386
VWidth: 868
Flags: W
HStem: 261 38<131.289 223.976> 494 48<145.93 243.846> 662 37<260.202 336.135>
VStem: 20 86<321.251 477.839> 265 85<352.636 473.984>
LayerCount: 2
Fore
SplineSet
20 404 m 0
 20 491 65 574 143 631 c 0
 194 669 258 691 335 699 c 1
 341 662 l 1
 236 653 157 597 128 511 c 1
 163 531 198 542 233 542 c 0
 304 542 350 499 350 429 c 0
 350 339 268 261 162 261 c 0
 76 261 20 313 20 404 c 0
106 396 m 0
 106 333 134 299 176 299 c 0
 223 299 265 346 265 411 c 0
 265 466 238 494 185 494 c 0
 163 494 141 488 119 477 c 1
 111 452 106 425 106 396 c 0
EndSplineSet
EndChar

StartChar: uni2077
Encoding: 8311 8311 328
Width: 386
VWidth: 868
Flags: W
HStem: 606 65<130 319>
DStem2: 49 248 122 264 0.596524 0.802595<56.3878 448.391>
LayerCount: 2
Fore
SplineSet
49 248 m 1
 319 606 l 1
 130 606 l 1
 108 546 l 1
 64 546 l 1
 90 671 l 1
 404 671 l 1
 397 634 l 1
 122 264 l 1
 121 248 l 1
 49 248 l 1
EndSplineSet
EndChar

StartChar: uni2078
Encoding: 8312 8312 329
Width: 386
VWidth: 868
Flags: W
HStem: 257 37<120.915 233.335> 645 35<174.637 270.152>
VStem: 16 79<315.794 418.197> 67 82<530.891 616.701> 262 84<326.916 410.172> 288 74<531.659 632.282>
DStem2: 234 495 125 471 0.89899 -0.437969<-66.1709 11.3217 31.3263 72.6068>
LayerCount: 2
Fore
SplineSet
16 361 m 0xe8
 16 408 54 449 125 471 c 1
 86 490 67 517 67 553 c 0
 67 623 137 680 234 680 c 0
 315 680 362 643 362 590 c 0xd4
 362 543 328 505 263 483 c 1
 319 458 346 432 346 392 c 0
 346 318 272 257 163 257 c 0
 69 257 16 299 16 361 c 0xe8
95 368 m 0xe8
 95 323 127 294 176 294 c 0
 226 294 262 325 262 369 c 0
 262 408 225 425 152 456 c 1
 114 433 95 404 95 368 c 0xe8
149 574 m 0xd4
 149 540 177 520 234 495 c 1
 269 515 288 549 288 584 c 0
 288 621 263 645 226 645 c 0
 181 645 149 615 149 574 c 0xd4
EndSplineSet
EndChar

StartChar: uni2079
Encoding: 8313 8313 330
Width: 386
VWidth: 868
Flags: W
HStem: 233 34<45.7353 85.3767> 402 45<140.3 239.914> 642 36<164.123 255.926>
VStem: 32 87<468.939 585.45> 282 86<467.711 619.136>
LayerCount: 2
Fore
SplineSet
32 512 m 0
 32 562 61 613 111 645 c 0
 145 667 181 678 223 678 c 0
 315 678 368 629 368 546 c 0
 368 412 253 286 48 233 c 1
 37 267 l 1
 139 295 211 350 255 430 c 1
 213 411 180 402 154 402 c 0
 81 402 32 446 32 512 c 0
119 528 m 0
 119 477 149 447 197 447 c 0
 220 447 244 454 269 468 c 1
 278 501 282 528 282 548 c 0
 282 609 253 642 212 642 c 0
 166 642 119 593 119 528 c 0
EndSplineSet
EndChar

StartChar: zero.denominator
Encoding: 63061 63061 331
Width: 369
VWidth: 560
Flags: W
HStem: -7 33<116.262 195.176> 350 32<175.267 254.433>
VStem: 18 81<45.459 233.58> 270 80<140.776 330.788>
LayerCount: 2
Fore
SplineSet
18 120 m 0
 18 189 39 254 74 303 c 0
 111 355 165 382 222 382 c 0
 302 382 350 333 350 249 c 0
 350 183 330 121 297 73 c 1
 259 20 208 -7 144 -7 c 0
 70 -7 18 44 18 120 c 0
99 99 m 0
 99 51 119 26 154 26 c 0
 186 26 210 49 231 94 c 1
 254 146 270 213 270 279 c 0
 270 326 252 350 218 350 c 0
 184 350 159 327 138 281 c 0
 115 229 99 161 99 99 c 0
EndSplineSet
EndChar

StartChar: one.denominator
Encoding: 63062 63062 332
Width: 369
VWidth: 560
Flags: W
HStem: 0 29<50 116 209 268> 314 28<89 115.564>
VStem: 50 225
DStem2: 118.836 0 195.225 0 0.190809 0.981627<55.3243 327.918>
LayerCount: 2
Back
SplineSet
50 0 m 1
 50 29 l 1
 117 32 l 1
 127 42 l 1
 186 321 l 1
 179 324 l 1
 89 314 l 1
 89 342 l 1
 238 381 l 1
 275 381 l 1
 203 40 l 1
 209 31 l 1
 268 28 l 1
 268 0 l 1
 50 0 l 1
EndSplineSet
Fore
SplineSet
50 0 m 1
 50 29 l 1
 116 32 l 1
 127 42 l 1
 186 321 l 1
 179 324 l 1
 89 314 l 1
 89 342 l 1
 237 381 l 1
 275 381 l 1
 203 40 l 1
 209 31 l 1
 268 28 l 1
 268 0 l 1
 50 0 l 1
EndSplineSet
EndChar

StartChar: two.denominator
Encoding: 63063 63063 333
Width: 369
VWidth: 560
Flags: W
HStem: 0 57<83 259> 346 36<148.982 235.95>
VStem: 59 75<258.832 298.25> 253 82<224.076 332.452>
LayerCount: 2
Back
SplineSet
-2 0 m 1
 2 42 l 1
 165 142 253 209 253 287 c 0
 253 323 227 346 186 346 c 0
 175 346 163 344 150 341 c 1
 134 265 l 1
 122 259 110 256 98 256 c 0
 73 256 59 270 59 291 c 0
 59 306 68 323 85 338 c 0
 116 365 162 382 211 382 c 0
 287 382 335 343 335 287 c 0
 335 214 250 143 83 57 c 1
 259 57 l 1
 280 107 l 1
 321 107 l 1
 299 0 l 1
 -2 0 l 1
EndSplineSet
Fore
SplineSet
-2 0 m 1
 2 42 l 1
 165 142 253 209 253 287 c 0
 253 324 227 346 186 346 c 0
 176 346 163 344 150 341 c 1
 134 265 l 1
 122 259 110 256 98 256 c 0
 73 256 59 270 59 291 c 0
 59 306 68 323 85 338 c 0
 116 365 162 382 211 382 c 0
 287 382 335 343 335 287 c 0
 335 214 250 142 83 57 c 1
 259 57 l 1
 280 107 l 1
 321 107 l 1
 299 0 l 1
 -2 0 l 1
EndSplineSet
EndChar

StartChar: three.denominator
Encoding: 63064 63064 334
Width: 369
VWidth: 560
Flags: W
HStem: -6 32<89.2826 186.613> 175 37<123.8 215.357> 348 34<149.907 236.616>
VStem: 8 73<42.625 96.5493> 65 72<269.815 310.538> 231 87<64.4965 161.605> 253 87<249.44 335.175>
LayerCount: 2
Back
SplineSet
8 60 m 0xf4
 8 84 27 102 52 102 c 0
 60 102 70 100 81 96 c 1
 89 35 l 1
 103 29 115 26 125 26 c 0
 188 26 231 64 231 117 c 0xf4
 231 154 205 175 157 175 c 0
 146 175 132 174 117 172 c 1
 125 213 l 1
 131 212 136 212 141 212 c 0
 211 212 253 245 253 293 c 0
 253 325 226 348 186 348 c 0
 175 348 163 345 150 341 c 1
 137 275 l 1
 123 270 112 267 103 267 c 0
 80 267 65 280 65 300 c 0
 65 340 127 382 219 382 c 0
 295 382 340 347 340 301 c 0xea
 340 255 295 215 214 200 c 1
 284 196 318 169 318 120 c 0
 318 89 298 56 261 31 c 0
 226 7 177 -6 127 -6 c 0
 53 -6 8 26 8 60 c 0xf4
EndSplineSet
Fore
SplineSet
8 60 m 0xf4
 8 84 27 102 52 102 c 0
 60 102 70 100 81 96 c 1
 89 35 l 1
 103 30 115 26 125 26 c 0
 188 26 231 64 231 117 c 0xf4
 231 154 205 175 157 175 c 0
 146 175 132 174 117 172 c 1
 125 213 l 1
 130 212 136 212 141 212 c 0
 211 212 253 246 253 293 c 0
 253 326 227 348 186 348 c 0
 175 348 163 346 150 341 c 1
 137 275 l 1
 123 270 113 267 103 267 c 0
 81 267 65 281 65 300 c 0
 65 340 127 382 219 382 c 0
 295 382 340 347 340 301 c 0xea
 340 255 295 214 214 200 c 1
 283 196 318 170 318 120 c 0
 318 90 298 57 261 31 c 1
 226 8 178 -6 127 -6 c 0
 54 -6 8 26 8 60 c 0xf4
EndSplineSet
EndChar

StartChar: four.denominator
Encoding: 63065 63065 335
Width: 369
VWidth: 560
Flags: W
HStem: 101 44<67 195 277 338>
VStem: 170 72<-18 54>
DStem2: 9 145 67 145 0.738111 0.674679<42.8104 277.778> 170 -18 242 -18 0.190809 0.981627<13.7382 121.584 180.422 180.422>
LayerCount: 2
Back
SplineSet
-1 101 m 1
 9 145 l 1
 265 379 l 1
 326 379 l 1
 277 145 l 1
 346 145 l 1
 338 101 l 1
 268 101 l 1
 242 -18 l 1
 170 -18 l 1
 195 101 l 1
 -1 101 l 1
67 145 m 1
 205 145 l 1
 240 304 l 1
 67 145 l 1
EndSplineSet
Fore
SplineSet
-1 101 m 1
 9 145 l 1
 265 379 l 1
 326 379 l 1
 277 145 l 1
 346 145 l 1
 338 101 l 1
 268 101 l 1
 242 -18 l 1
 170 -18 l 1
 195 101 l 1
 -1 101 l 1
67 145 m 1
 205 145 l 1
 240 304 l 1
 67 145 l 1
EndSplineSet
EndChar

StartChar: five.denominator
Encoding: 63066 63066 336
Width: 369
VWidth: 560
Flags: W
HStem: -6 32<92.9558 186.172> 192 43<119.942 212.461> 319 57<141 335>
VStem: 235 83<74.7597 169.621>
DStem2: 25.4846 -6 74.2925 -6 0.190809 0.981627<243.618 341.07>
LayerCount: 2
Fore
SplineSet
13 58 m 0
 13 80 31 97 58 97 c 0
 67 97 75 95 83 92 c 1
 93 31 l 1
 102 28 111 26 123 26 c 0
 190 26 235 69 235 122 c 0
 235 165 200 192 137 192 c 0
 114 192 89 190 63 187 c 1
 105 376 l 1
 347 376 l 1
 335 319 l 1
 141 319 l 1
 119 224 l 1
 151 232 175 235 195 235 c 0
 271 235 318 198 318 143 c 0
 318 61 235 -6 122 -6 c 0
 55 -6 13 24 13 58 c 0
EndSplineSet
EndChar

StartChar: six.denominator
Encoding: 63067 63067 337
Width: 369
VWidth: 560
Flags: W
HStem: -7 36<124.418 213.561> 211 44<134.045 234.644> 367 36<247.047 320.972>
VStem: 20 81<48.8634 195.846> 253 82<76.088 193.845>
LayerCount: 2
Fore
SplineSet
20 127 m 0
 20 208 63 286 137 339 c 0
 186 374 246 396 320 403 c 1
 325 367 l 1
 225 359 150 307 122 227 c 1
 155 246 189 255 222 255 c 0
 290 255 335 215 335 150 c 0
 335 66 255 -7 154 -7 c 0
 72 -7 20 42 20 127 c 0
101 119 m 0
 101 60 128 29 168 29 c 0
 213 29 253 73 253 133 c 0
 253 185 227 211 176 211 c 0
 155 211 134 206 113 195 c 1
 105 172 101 146 101 119 c 0
EndSplineSet
EndChar

StartChar: seven.denominator
Encoding: 63068 63068 338
Width: 369
VWidth: 560
Flags: W
HStem: 315 61<124 304>
DStem2: 47 -19 117 -4 0.60368 0.797227<54.216 421.419>
LayerCount: 2
Fore
SplineSet
47 -19 m 1
 304 315 l 1
 124 315 l 1
 103 260 l 1
 61 260 l 1
 86 376 l 1
 386 376 l 1
 379 342 l 1
 117 -4 l 1
 115 -19 l 1
 47 -19 l 1
EndSplineSet
EndChar

StartChar: eight.denominator
Encoding: 63069 63069 339
Width: 369
VWidth: 560
Flags: W
HStem: -10 34<115.583 220.94> 352 32<166.918 258.163>
VStem: 15 76<42.8831 140.657> 64 78<245.123 325.622> 250 81<52.9586 134.393> 275 71<244.599 340.379>
DStem2: 223 212 119 189 0.899235 -0.437466<-65.0367 11.4082 30.4282 72.245>
LayerCount: 2
Fore
SplineSet
15 87 m 0xe8
 15 131 52 169 119 189 c 1
 82 207 64 232 64 266 c 0
 64 331 131 384 224 384 c 0
 301 384 346 350 346 300 c 0xd4
 346 256 313 221 251 200 c 1
 305 176 331 152 331 115 c 0
 331 46 260 -10 156 -10 c 0
 66 -10 15 29 15 87 c 0xe8
91 93 m 0xe8
 91 51 121 24 168 24 c 0
 216 24 250 54 250 95 c 0
 250 131 215 146 145 175 c 1
 108 153 91 127 91 93 c 0xe8
142 286 m 0xd4
 142 255 168 236 223 212 c 1
 256 231 275 263 275 295 c 0
 275 330 251 352 216 352 c 0
 173 352 142 325 142 286 c 0xd4
EndSplineSet
EndChar

StartChar: nine.denominator
Encoding: 63070 63070 340
Width: 369
VWidth: 560
Flags: W
HStem: -32 31<42.7419 78.8211> 125 42<133.7 231.337> 349 34<156.405 244.821>
VStem: 30 83<185.774 298.715> 269 82<186.381 328.893>
LayerCount: 2
Fore
SplineSet
30 228 m 0
 30 275 58 322 106 352 c 0
 138 372 173 383 213 383 c 0
 301 383 351 338 351 260 c 0
 351 135 240 18 45 -32 c 1
 35 -1 l 1
 133 25 202 76 244 151 c 1
 204 134 172 125 147 125 c 0
 77 125 30 166 30 228 c 0
113 243 m 0
 113 195 142 167 188 167 c 0
 210 167 233 173 257 186 c 1
 266 217 269 243 269 262 c 0
 269 319 241 349 202 349 c 0
 158 349 113 304 113 243 c 0
EndSplineSet
EndChar

StartChar: uni207A
Encoding: 8314 8314 367
Width: 549
VWidth: 868
Flags: W
HStem: 423 48<82 248 302 468>
VStem: 248 54<268 423 471 626>
LayerCount: 2
Fore
SplineSet
82 423 m 1
 82 471 l 1
 248 471 l 1
 248 626 l 1
 302 626 l 1
 302 471 l 1
 468 471 l 1
 468 423 l 1
 302 423 l 1
 302 268 l 1
 248 268 l 1
 248 423 l 1
 82 423 l 1
EndSplineSet
EndChar

StartChar: uni207B
Encoding: 8315 8315 368
Width: 549
VWidth: 868
Flags: W
HStem: 422 50<82 468>
LayerCount: 2
Fore
SplineSet
82 422 m 5
 82 472 l 5
 468 472 l 5
 468 422 l 5
 82 422 l 5
EndSplineSet
EndChar

StartChar: uni207C
Encoding: 8316 8316 369
Width: 549
VWidth: 868
Flags: W
HStem: 362 49<82 468> 483 49<82 468>
LayerCount: 2
Fore
SplineSet
82 362 m 5
 82 411 l 5
 468 411 l 5
 468 362 l 5
 82 362 l 5
82 483 m 5
 82 532 l 5
 468 532 l 5
 468 483 l 5
 82 483 l 5
EndSplineSet
EndChar

StartChar: uni207D
Encoding: 8317 8317 370
Width: 277
VWidth: 868
Flags: HW
LayerCount: 2
Fore
SplineSet
44 356 m 4
 44 406 55 465 79 528 c 4
 97 575 125 614 163 646 c 4
 202 680 249 698 302 699 c 5
 296 668 l 5
 262 665 231 648 207 620 c 4
 183 591 164 557 151 516 c 4
 127 440 118 379 118 336 c 4
 118 260 149 217 202 213 c 5
 195 183 l 5
 100 184 44 247 44 356 c 4
EndSplineSet
EndChar

StartChar: uni207E
Encoding: 8318 8318 371
Width: 277
VWidth: 868
Flags: HW
LayerCount: 2
Fore
SplineSet
-40 183 m 5
 -34 213 l 5
 0 215 31 232 55 261 c 4
 81 291 100 328 113 371 c 4
 135 447 144 508 144 548 c 4
 144 622 113 664 60 668 c 5
 67 699 l 5
 161 697 218 635 218 528 c 4
 218 479 207 422 185 360 c 4
 167 311 139 270 99 236 c 4
 59 202 13 184 -40 183 c 5
EndSplineSet
EndChar

StartChar: zero.taboldstyle
Encoding: 63043 63043 377
Width: 586
Flags: HW
HStem: -10 52<189.823 298.872> 448 52<261.26 365.879>
VStem: 32 125<90.5148 298.193> 399 125<190.987 398.76>
LayerCount: 2
Back
SplineSet
31 245 m 0
 62 407 193 500 324 500 c 0
 455 500 550 407 519 245 c 0
 488 83 356 -10 225 -10 c 0
 94 -10 0 83 31 245 c 0
165 245 m 0
 142 125 166 42 235 42 c 0
 304 42 362 125 385 245 c 0
 408 365 383 448 314 448 c 0
 245 448 188 365 165 245 c 0
EndSplineSet
Fore
SplineSet
32 188 m 0
 32 385 180 500 323 500 c 0
 437 500 524 426 524 301 c 0
 524 104 375 -10 232 -10 c 0
 118 -10 32 63 32 188 c 0
157 164 m 0
 157 89 190 42 242 42 c 0
 327 42 399 183 399 325 c 0
 399 400 369 448 317 448 c 0
 232 448 157 306 157 164 c 0
EndSplineSet
EndChar

StartChar: one.taboldstyle
Encoding: 63044 63044 378
Width: 586
Flags: HW
HStem: 0 48<80 169 309 405> 442 48<143 237 379 468>
DStem2: 169.005 0 285.782 0 0.190809 0.981627<91.5549 425.584>
LayerCount: 2
Back
SplineSet
58 0 m 1
 67 50 l 1
 166 56 l 1
 182 74 l 1
 245 416 l 1
 236 434 l 1
 140 440 l 1
 149 490 l 1
 487 490 l 1
 478 440 l 1
 377 436 l 1
 364 420 l 1
 299 70 l 1
 306 54 l 1
 405 50 l 1
 396 0 l 1
 58 0 l 1
EndSplineSet
Fore
SplineSet
80 0 m 1
 80 48 l 1
 169 54 l 1
 183 72 l 1
 249 418 l 1
 237 436 l 1
 143 442 l 1
 143 490 l 1
 468 490 l 1
 468 442 l 1
 379 436 l 1
 367 420 l 1
 299 68 l 1
 309 52 l 1
 405 48 l 1
 405 0 l 1
 80 0 l 1
EndSplineSet
EndChar

StartChar: two.taboldstyle
Encoding: 63045 63045 379
Width: 586
Flags: HW
HStem: 0 89<157 462> 441 59<219.34 354.327>
VStem: 374 125<305.027 421.238>
LayerCount: 2
Back
SplineSet
-4 0 m 1
 8 65 l 1
 277 230 362 274 376 349 c 0
 387 410 357 439 286 439 c 0
 268 439 240 435 219 427 c 1
 199 318 l 1
 128 318 l 2
 93 318 71 319 77 352 c 0
 93 440 199 500 327 500 c 0
 451 500 526 456 509 365 c 0
 487 248 375 212 156 92 c 1
 476 92 l 1
 459 0 l 1
 -4 0 l 1
EndSplineSet
Fore
SplineSet
10 0 m 1
 16 66 l 1
 278 231 374 278 374 372 c 0
 374 414 347 441 286 441 c 0
 268 441 240 437 219 429 c 1
 199 318 l 1
 120 318 l 2
 89 318 81 324 81 347 c 0
 81 444 195 500 318 500 c 0
 430 500 499 456 499 376 c 0
 499 258 365 201 157 89 c 1
 479 89 l 1
 462 0 l 1
 10 0 l 1
EndSplineSet
EndChar

StartChar: three.taboldstyle
Encoding: 63046 63046 380
Width: 586
Flags: HW
HStem: -160 56<106.358 252.505> 146 60<168.8 286.171> 441 60<201.816 337.875>
VStem: 336 133<-22.2579 111.961> 366 130<281.08 413.769>
LayerCount: 2
Back
SplineSet
-20 -39 m 0xf4
 -13 0 19 26 62 26 c 0
 74 26 85 23 99 18 c 1
 111 -87 l 1
 135 -97 158 -102 178 -102 c 0
 247 -102 320 -44 334 31 c 0xf4
 346 98 301 145 218 145 c 0
 204 145 185 144 157 140 c 1
 170 208 l 1
 180 207 191 207 200 207 c 0
 296 207 352 256 364 323 c 0
 376 386 341 439 268 439 c 0
 251 439 226 435 205 427 c 1
 184 313 l 1
 166 303 150 299 129 299 c 0
 86 299 64 328 71 368 c 0
 84 438 187 501 318 501 c 0
 447 501 513 424 497 337 c 0xf8
 484 266 423 211 310 186 c 1
 430 177 485 122 469 37 c 0
 450 -68 322 -160 158 -160 c 0
 40 -160 -32 -105 -20 -39 c 0xf4
EndSplineSet
Fore
SplineSet
-13 -53 m 0xf0
 -13 -4 11 26 57 26 c 0
 69 26 80 23 94 18 c 1
 106 -89 l 1
 130 -99 158 -104 178 -104 c 0
 249 -104 336 -39 336 50 c 0xf0
 336 114 292 146 218 146 c 0
 204 146 185 145 157 141 c 1
 170 207 l 1
 180 206 188 206 197 206 c 0
 286 206 366 262 366 347 c 0
 366 410 332 441 268 441 c 0
 251 441 223 437 202 429 c 1
 181 313 l 1
 163 303 152 299 131 299 c 0
 93 299 74 332 74 359 c 0
 74 448 186 501 311 501 c 0
 422 501 496 442 496 355 c 0xe8
 496 268 424 212 310 186 c 1
 406 182 469 128 469 56 c 0
 469 -62 326 -160 164 -160 c 0
 62 -160 -13 -113 -13 -53 c 0xf0
EndSplineSet
EndChar

StartChar: four.taboldstyle
Encoding: 63047 63047 381
Width: 586
VWidth: 0
Flags: HW
HStem: -170 21G<242 359.882> 0 72<74 275 403 498> 473 20G<368.766 485>
VStem: 242 114<-170 -56>
DStem2: -14 75 74 72 0.693178 0.720767<58.8373 449.972> 242 -170 356 -170 0.190809 0.981627<21.7522 173.173 268.274 534.817>
LayerCount: 2
Fore
SplineSet
-29 0 m 1
 -14 75 l 1
 388 493 l 1
 485 493 l 1
 403 72 l 1
 512 72 l 1
 498 0 l 1
 389 0 l 1
 356 -170 l 1
 242 -170 l 1
 275 0 l 1
 -29 0 l 1
74 72 m 1
 289 72 l 1
 344 355 l 1
 74 72 l 1
EndSplineSet
EndChar

StartChar: five.taboldstyle
Encoding: 63048 63048 382
Width: 586
Flags: HW
HStem: -160 56<119.872 254.67> 175 74<160.324 290.441> 394 96<191 498>
VStem: 337 126<-10.2657 133.467>
DStem2: 4.60392 -160 82.9973 -160 0.190809 0.981627<413.276 579.388>
LayerCount: 2
Back
SplineSet
-16 -44 m 0
 -9 -10 26 19 71 19 c 0
 82 19 94 16 107 12 c 1
 120 -99 l 1
 135 -103 150 -104 166 -104 c 0
 252 -104 317 -47 332 31 c 0
 349 119 298 175 188 175 c 0
 147 175 108 170 67 161 c 1
 131 490 l 1
 518 490 l 1
 500 394 l 1
 191 394 l 1
 159 231 l 1
 206 246 247 251 283 251 c 0
 413 251 489 170 467 58 c 0
 443 -66 313 -160 148 -160 c 0
 35 -160 -28 -106 -16 -44 c 0
EndSplineSet
Fore
SplineSet
-7 -59 m 0
 -7 -14 22 19 71 19 c 0
 82 19 94 16 107 12 c 1
 120 -99 l 1
 135 -103 150 -104 166 -104 c 0
 259 -104 337 -48 337 66 c 0
 337 140 288 175 188 175 c 0
 147 175 108 170 67 161 c 1
 131 490 l 1
 516 490 l 1
 498 394 l 1
 191 394 l 1
 159 231 l 1
 206 246 247 249 283 249 c 0
 394 249 463 176 463 85 c 0
 463 -72 320 -160 155 -160 c 0
 54 -160 -7 -115 -7 -59 c 0
EndSplineSet
EndChar

StartChar: six.taboldstyle
Encoding: 63049 63049 383
Width: 586
Flags: HW
HStem: -10 56<203.413 323.354> 361 75<251.155 401.577> 623 61<389.675 501>
VStem: 35 126<103.762 326.872> 399 125<143.771 316.868>
LayerCount: 2
Back
SplineSet
37 276 m 0
 72 522 258 682 511 682 c 1
 502 620 l 1
 460 618 l 1
 327 608 236 532 190 384 c 1
 245 417 299 433 355 433 c 0
 469 433 546 346 529 224 c 0
 509 84 391 -10 244 -10 c 0
 95 -10 11 94 37 276 c 0
166 270 m 0
 146 128 184 46 263 46 c 0
 326 46 384 110 397 205 c 0
 410 300 367 358 286 358 c 0
 248 358 211 347 176 330 c 1
 170 302 167 279 166 270 c 0
EndSplineSet
Fore
SplineSet
35 213 m 0
 35 390 115 510 223 588 c 0
 302 645 380 666 501 684 c 1
 504 623 l 1
 338 612 254 548 190 384 c 1
 245 417 299 436 355 436 c 0
 448 436 524 352 524 257 c 0
 524 86 402 -10 244 -10 c 0
 122 -10 35 70 35 213 c 0
161 200 m 0
 161 101 192 46 263 46 c 0
 338 46 399 128 399 237 c 0
 399 313 357 361 286 361 c 0
 248 361 211 345 176 328 c 1
 164 274 161 250 161 200 c 0
EndSplineSet
EndChar

StartChar: seven.taboldstyle
Encoding: 63050 63050 384
Width: 586
Flags: HW
HStem: -170 21G<53 163.571> 390 100<166 452>
DStem2: 53 -170 165 -142 0.578412 0.815745<87.623 687.603>
LayerCount: 2
Fore
SplineSet
53 -170 m 1
 452 390 l 1
 166 390 l 1
 133 302 l 1
 70 302 l 1
 106 490 l 1
 580 490 l 1
 572 432 l 1
 165 -142 l 1
 160 -170 l 1
 53 -170 l 1
EndSplineSet
EndChar

StartChar: eight.taboldstyle
Encoding: 63051 63051 385
Width: 586
Flags: HW
HStem: -14 56<190.997 335.57> 597 56<274.995 398.127>
VStem: 21 120<92.3264 231.806> 100 124<432.118 533.2> 390 128<105.511 216.737> 429 113<433.189 566.167>
LayerCount: 2
Back
SplineSet
24.751 169 m 0xe4
 34.7295 240 90.1621 300 179.113 321 c 1
 119.189 350 87.0596 406 95.6328 467 c 0
 110.39 572 213.773 653 350.773 653 c 0
 473.773 653 546.232 578 533.021 484 c 0xd8
 524.589 424 476 370 396.644 339 c 1
 483.567 310 526.573 246 516.173 172 c 0
 500.433 60 392.032 -14 238.032 -14 c 0
 84.0322 -14 10.8379 70 24.751 169 c 0xe4
142.297 180 m 0xe4
 131.897 106 179.902 42 254.902 42 c 0
 321.902 42 378.806 84 386.957 142 c 0
 396.514 210 339.697 254 220.74 297 c 1
 175.103 264 148.763 226 142.297 180 c 0xe4
223.849 497 m 0xd8
 215.838 440 263.06 406 352.876 362 c 1
 391.373 394 414.714 432 420.757 475 c 0
 430.735 546 395.903 597 332.903 597 c 0
 279.903 597 231.578 552 223.849 497 c 0xd8
EndSplineSet
Fore
SplineSet
21 148 m 0
 21 240 87 304 183 320 c 1xe8
 129 346 100 397 100 450 c 0
 100 570 218 653 357 653 c 0
 470 653 542 588 542 504 c 0xd4
 542 426 473 368 394 340 c 1
 472 314 518 250 518 191 c 0
 518 68 408 -14 240 -14 c 0
 106 -14 21 60 21 148 c 0
141 160 m 0xe8
 141 95 193 42 257 42 c 0
 330 42 390 87 390 156 c 0
 390 224 335 256 225 296 c 1
 174 261 141 221 141 160 c 0xe8
224 485 m 0
 224 435 267 404 350 363 c 1
 396 399 429 439 429 498 c 0xd4
 429 557 395 597 339 597 c 0
 285 597 224 548 224 485 c 0
EndSplineSet
EndChar

StartChar: nine.taboldstyle
Encoding: 63052 63052 386
Width: 586
Flags: HW
HStem: 64 70<196.723 318.984> 444 56<234.605 361.323>
VStem: 31 129<169.689 345.693> 400 128<177.724 387.238>
LayerCount: 2
Back
SplineSet
28 263 m 4
 48 402 168 500 320 500 c 4
 464 500 546 402 524 249 c 4
 495 46 324 -114 47 -203 c 5
 29 -139 l 5
 76 -131 l 5
 212 -76 300 0 350 102 c 5
 300 77 250 65 201 65 c 4
 91 65 11 140 28 263 c 4
162 284 m 4
 148 182 195 138 283 138 c 4
 311 138 340 146 373 161 c 5
 383 192 391 218 395 249 c 4
 414 382 372 442 298 442 c 4
 234 442 176 382 162 284 c 4
EndSplineSet
Fore
SplineSet
31 -152 m 1
 190 -94 290 -22 350 102 c 1
 298 70 250 64 201 64 c 0
 110 64 31 133 31 237 c 0
 31 399 152 500 313 500 c 0
 442 500 528 410 528 291 c 0
 528 158 459 48 356 -40 c 0
 277 -107 184 -158 49 -206 c 1
 31 -152 l 1
160 251 m 0
 160 164 202 134 280 134 c 0
 308 134 341 149 374 164 c 1
 389 210 400 252 400 308 c 0
 400 408 360 444 298 444 c 0
 222 444 160 362 160 251 c 0
EndSplineSet
EndChar

StartChar: ff
Encoding: 64256 64256 387
Width: 645
Flags: MW
HStem: -214 68<-20.1404 -8.91768> -196 66<306.295 321.135> 408 59<225 421 545 681> 673 47<285.923 304.807> 686 47<604.907 625.682>
DStem2: 58 102 179 147 0.144736 0.98947<-119.326 309.002 385.328 491.206> 378 102 499 147 0.143698 0.989622<-114.385 309.003 385.21 495.105>
LayerCount: 2
Back
SplineSet
166 -152 m 0
 166 -123 180 -100 206 -89 c 1
 313 -146 l 1
 344 -105 360 -22 378 102 c 2
 421 408 l 1
 354 400 l 1
 355 444 l 1
 433 478 l 1
 461 636 566 733 670 733 c 0
 728 733 767 701 767 664 c 0
 767 634 743 607 703 598 c 1
 619 686 l 1
 590 651 565 578 545 467 c 1
 681 467 l 1
 681 408 l 1
 536 408 l 1
 499 147 l 2
 486 58 465 -15 427 -75 c 0
 370 -165 297 -214 235 -214 c 0
 195 -214 166 -187 166 -152 c 0
-154 -152 m 0
 -154 -123 -140 -100 -114 -89 c 1
 -7 -146 l 1
 24 -105 40 -22 58 102 c 2
 101 408 l 1
 34 400 l 1
 35 444 l 1
 113 478 l 1
 141 636 246 733 350 733 c 0
 408 733 447 701 447 664 c 0
 447 634 423 607 383 598 c 1
 299 686 l 1
 270 651 245 578 225 467 c 1
 361 467 l 1
 361 408 l 1
 216 408 l 1
 179 147 l 2
 166 58 145 -15 107 -75 c 0
 50 -165 -23 -214 -85 -214 c 0
 -125 -214 -154 -187 -154 -152 c 0
EndSplineSet
Fore
SplineSet
-154 -152 m 0xa0
 -154 -123 -140 -100 -114 -89 c 1
 -7 -146 l 1
 24 -105 40 -22 58 102 c 2
 101 408 l 1
 34 400 l 1
 35 444 l 1
 113 478 l 1
 140 629 246 720 339 720 c 0
 384 720 436 690 436 648 c 0
 436 614 410 588 372 585 c 1
 299 673 l 1xb0
 270 638 244 571 225 467 c 1
 431 467 l 1
 458 629 561 733 670 733 c 0
 728 733 767 701 767 664 c 0
 767 634 743 607 703 598 c 1
 619 686 l 1
 590 651 565 578 545 467 c 1
 681 467 l 1
 681 408 l 1
 536 408 l 1
 499 147 l 2
 489 75 474 11 438 -54 c 0
 398 -126 329 -196 241 -196 c 0
 205 -196 175 -167 175 -132 c 0
 175 -97 190 -80 216 -69 c 1
 318 -130 l 1x68
 349 -89 365 6 378 102 c 2
 421 408 l 1
 216 408 l 1
 179 147 l 2
 166 58 145 -15 107 -75 c 0
 50 -165 -23 -214 -85 -214 c 0
 -125 -214 -154 -187 -154 -152 c 0xa0
EndSplineSet
EndChar

StartChar: ffi
Encoding: 64259 64259 388
Width: 943
Flags: MW
HStem: -214 68<-20.1404 -8.91768> -196 66<306.295 321.135> -7 66<722.5 870.166> 408 59<225 421 544 736> 473 20G<751.923 869> 587 134<799 892.939> 673 47<285.923 304.807> 686 47<604.907 626.417>
VStem: 673 127<65.9716 202.023> 778 135<606.319 699.875>
DStem2: 58 102 179 147 0.144736 0.98947<-119.326 309.002 385.328 491.206> 378 102 499 147 0.143698 0.989622<-114.385 309.003 385.066 495.105> 613.578 -214 733.274 -214 0.190809 0.981627<358.099 634.913>
LayerCount: 2
Fore
SplineSet
-154 -152 m 0xb880
 -154 -123 -140 -100 -114 -89 c 1
 -7 -146 l 1
 24 -105 40 -22 58 102 c 2
 101 408 l 1
 34 400 l 1
 35 444 l 1
 113 478 l 1
 140 629 246 720 339 720 c 0
 384 720 436 690 436 648 c 0
 436 614 410 588 372 585 c 1
 299 673 l 1xba80
 270 638 244 571 225 467 c 1
 431 467 l 1
 458 629 561 733 670 733 c 0
 726 733 761 705 761 669 c 0
 761 642 742 616 708 602 c 1
 619 686 l 1
 590 651 564 577 544 467 c 1
 730 467 l 1
 825 493 l 1
 869 493 l 1
 805 155 l 2
 802 140 800 126 800 114 c 0
 800 78 817 59 849 59 c 0
 865 59 888 64 918 73 c 1
 918 32 l 1
 855 7 800 -7 747 -7 c 0
 698 -7 673 20 673 71 c 0
 673 90 677 112 682 138 c 2
 736 409 l 1
 536 410 l 1
 499 147 l 2
 489 75 474 11 438 -54 c 0
 398 -126 329 -196 241 -196 c 0
 205 -196 175 -167 175 -132 c 0
 175 -97 190 -80 216 -69 c 1
 318 -130 l 1x7980
 349 -89 365 6 378 102 c 2
 421 408 l 1
 216 408 l 1
 179 147 l 2
 166 58 145 -15 107 -75 c 0
 50 -165 -23 -214 -85 -214 c 0
 -125 -214 -154 -187 -154 -152 c 0xb880
778 648 m 0x3c40
 778 689 810 721 850 721 c 0
 889 721 913 695 913 658 c 0
 913 618 882 587 842 587 c 0
 805 587 778 612 778 648 c 0x3c40
EndSplineSet
EndChar

StartChar: ffl
Encoding: 64260 64260 389
Width: 948
Flags: MW
HStem: -214 68<-20.1404 -8.91768> -196 66<306.295 321.135> -9 63<737.5 870.71> 408 59<225 421 543 671> 673 47<285.923 304.807> 686 47<605.414 626>
VStem: 678 122<59.4465 216.711>
DStem2: 58 102 179 147 0.144736 0.98947<-119.326 309.002 385.328 491.206> 378 102 499 147 0.143698 0.989622<-114.385 309.003 384.922 495.108> 615.609 -214 733.053 -214 0.190809 0.981627<349.113 880.066>
LayerCount: 2
Fore
SplineSet
-154 -152 m 0xb2
 -154 -123 -140 -100 -114 -89 c 1
 -7 -146 l 1
 24 -105 40 -22 58 102 c 2
 101 408 l 1
 34 400 l 1
 35 444 l 1
 113 478 l 1
 140 629 246 720 339 720 c 0
 384 720 436 690 436 648 c 0
 436 614 410 588 372 585 c 1
 299 673 l 1xba
 270 638 244 571 225 467 c 1
 431 467 l 1
 458 629 561 733 671 733 c 0
 709 733 735 723 752 703 c 1
 872 736 l 1
 915 736 l 1
 908 702 905 682 904 677 c 2
 811 187 l 2
 804 149 800 122 800 105 c 0
 800 70 816 54 849 54 c 0
 862 54 886 59 921 70 c 1
 921 31 l 1
 848 2 795 -9 768 -9 c 0
 707 -9 678 20 678 81 c 0
 678 105 684 137 692 179 c 2
 783 650 l 1
 745 653 l 1
 700 605 l 1
 619 686 l 1
 590 651 563 577 543 467 c 1
 671 467 l 1
 671 409 l 1
 536 409 l 1
 499 147 l 2
 489 75 474 11 438 -54 c 0
 398 -126 329 -196 241 -196 c 0
 205 -196 175 -167 175 -132 c 0
 175 -97 190 -80 216 -69 c 1
 318 -130 l 1x76
 349 -89 365 6 378 102 c 2
 421 408 l 1
 216 408 l 1
 179 147 l 2
 166 58 145 -15 107 -75 c 0
 50 -165 -23 -214 -85 -214 c 0
 -125 -214 -154 -187 -154 -152 c 0xb2
EndSplineSet
EndChar
